<?xml version="1.0" encoding="UTF-8" standalone="no"?>
<svg width="38px" height="43px" viewBox="0 0 38 43" version="1.1" xmlns="http://www.w3.org/2000/svg" xmlns:xlink="http://www.w3.org/1999/xlink">
    <!-- Generator: Sketch 46.2 (44496) - http://www.bohemiancoding.com/sketch -->
    <title>sprite-flip</title>
    <desc>Created with Sketch.</desc>
    <defs></defs>
    <g id="Symbols" stroke="none" stroke-width="1" fill="none" fill-rule="evenodd">
        <g id="sprite-flip">
            <path d="M28.3302362,1.37478913 L8.01529456,1.37478913 C4.94480547,1.37478913 2.43250511,3.77581433 2.43250511,6.71030487 L2.43250511,21.493992 L2.43250511,22.4202269 L2.43250511,37.2408485 C2.43250511,40.1754827 4.94480547,42.5763642 8.01529456,42.5763642 L28.3302362,42.5763642 C31.4007253,42.5763642 33.9128753,40.1754827 33.9128753,37.2408485 L33.9128753,22.4202269 L33.9128753,21.493992 L33.9128753,6.71030487 C33.9128753,3.77581433 31.4007253,1.37478913 28.3302362,1.37478913" id="Fill-1" fill="#F0F0F1"></path>
            <path d="M0,19.5697154 L0,24.3372888 C0,24.8578125 0.411715305,25.2797077 0.919679381,25.2797077 C1.42764346,25.2797077 1.83935876,24.8578125 1.83935876,24.3372888 L1.83935876,19.5697154 C1.83935876,19.0490483 1.42764346,18.6271531 0.919679381,18.6271531 C0.411715305,18.6271531 0,19.0490483 0,19.5697154 Z" id="Fill-4" fill="#F0F0F0"></path>
            <path d="M34.4879768,19.5697154 L34.4879768,24.3372888 C34.4879768,24.8578125 34.8998007,25.2797077 35.4077261,25.2797077 C35.9156515,25.2797077 36.3273355,24.8578125 36.3273355,24.3372888 L36.3273355,19.5697154 C36.3273355,19.0490483 35.9156515,18.6271531 35.4077261,18.6271531 C34.8998007,18.6271531 34.4879768,19.0490483 34.4879768,19.5697154 Z" id="Fill-6" fill="#F0F0F0"></path>
            <path d="M8.79222247,0.0840527183 C5.75182375,0.0840527183 3.26414358,2.4765978 3.26414358,5.40089914 L3.26414358,35.8255771 C3.26414358,38.7498785 5.75182375,41.1425668 8.79222247,41.1425668 L28.9080805,41.1425668 C31.9484792,41.1425668 34.4360105,38.7498785 34.4360105,35.8255771 L34.4360105,5.40089914 C34.4360105,2.4765978 31.9484792,0.0840527183 28.9080805,0.0840527183 L8.79222247,0.0840527183 Z" id="Fill-8" fill="#227EBA"></path>
            <polygon id="Fill-11" fill="#FEFEFE" points="3.21887783 21.2881749 34.4879768 21.2881749 34.4879768 20.4011676 3.21887783 20.4011676"></polygon>
            <path d="M1.37951907,17.2966421 C0.871554996,17.2966421 0.45983969,17.7185373 0.45983969,18.2390611 L0.45983969,23.0066345 C0.45983969,23.5273016 0.871554996,23.9491968 1.37951907,23.9491968 C1.88748315,23.9491968 2.29919845,23.5273016 2.29919845,23.0066345 L2.29919845,18.2390611 C2.29919845,17.7185373 1.88748315,17.2966421 1.37951907,17.2966421" id="Fill-13" fill="#C1C1C1"></path>
            <path d="M36.3274055,17.2966421 C35.81948,17.2966421 35.4076562,17.7185373 35.4076562,18.2390611 L35.4076562,23.0066345 C35.4076562,23.5273016 35.81948,23.9491968 36.3274055,23.9491968 C36.8353309,23.9491968 37.2470149,23.5273016 37.2470149,23.0066345 L37.2470149,18.2390611 C37.2470149,17.7185373 36.8353309,17.2966421 36.3274055,17.2966421" id="Fill-14" fill="#C1C1C1"></path>
        </g>
    </g>
</svg>