<?xml version="1.0" encoding="UTF-8"?>
<svg width="20px" height="20px" viewBox="0 0 20 20" version="1.1" xmlns="http://www.w3.org/2000/svg" xmlns:xlink="http://www.w3.org/1999/xlink">
    <!-- Generator: Sketch 46.2 (44496) - http://www.bohemiancoding.com/sketch -->
    <title>Group</title>
    <desc>Created with Sketch.</desc>
    <defs></defs>
    <g id="Page-1" stroke="none" stroke-width="1" fill="none" fill-rule="evenodd">
        <g id="Desktop-HD-Copy" transform="translate(-1119.000000, -38.000000)">
            <g id="Group-4" transform="translate(1119.000000, 38.000000)">
                <g id="noun_1085539_cc">
                    <g id="Group">
                        <path d="M12.0762222,10.1795556 C12.5411111,9.66466667 12.7973333,8.99911111 12.7973333,8.306 C12.7973333,6.76288889 11.5417778,5.50733333 9.99866667,5.50733333 C8.45555556,5.50733333 7.2,6.76288889 7.2,8.30622222 C7.2,8.99911111 7.45622222,9.66444444 7.92177778,10.18 C8.45155556,10.766 9.20866667,11.1022222 9.99866667,11.1022222 C10.7888889,11.1022222 11.5462222,10.766 12.0762222,10.1795556 Z" id="Shape" fill="#FFFFFF" fill-rule="nonzero"></path>
                        <path d="M9.99866667,1.02888889 C5.05266667,1.02888889 1.02888889,5.05377778 1.02888889,10.0013333 C1.02888889,12.7508889 2.268,15.302 4.386,16.9982222 L4.386,14.1633333 C4.386,12.6337778 5.34333333,11.3006667 6.73622222,10.7866667 L6.96733333,11.0422222 C7.74088889,11.8977778 8.84577778,12.3884444 9.99866667,12.3884444 C11.1517778,12.3884444 12.2566667,11.8977778 13.0302222,11.0422222 L13.2613333,10.7866667 C14.6542222,11.3006667 15.6115556,12.6337778 15.6115556,14.1633333 L15.6115556,16.9993333 C17.7311111,15.3057778 18.9711111,12.754 18.9711111,10.0013333 C18.9711111,5.05377778 14.946,1.02888889 9.99866667,1.02888889 Z" id="Shape"></path>
                        <path d="M9.99866667,0 C4.48555556,0 0,4.48644444 0,10.0013333 C0,12.0162222 0.614666667,14.01 1.76,15.6686667 C2.25355556,16.3833333 2.866,17.0057778 3.53155556,17.5608889 C3.86822222,17.8415556 4.21822222,18.1057778 4.57466667,18.3608889 C5.162,18.7811111 5.75888889,19.0822222 6.43955556,19.3426667 C6.81177778,19.4851111 7.19266667,19.6051111 7.57933333,19.702 C8.36977778,19.9 9.184,20 9.99866667,20 C10.7942222,20 11.5868889,19.8902222 12.3571111,19.6935556 C12.7468889,19.594 13.1308889,19.4726667 13.5084444,19.3335556 C13.7037778,19.2615556 13.8975556,19.1846667 14.0893333,19.1037778 C14.5384444,18.914 14.9642222,18.696 15.376,18.4313333 C15.376,18.4313333 15.6117778,18.2806667 15.6117778,18.2806667 L15.6117778,18.2702222 C18.3628889,16.4051111 20,13.3377778 20,10.0013333 C20,4.48644444 15.5135556,0 9.99866667,0 Z M15.6117778,16.9993333 L15.6117778,14.1633333 C15.6117778,12.6337778 14.6544444,11.3006667 13.2615556,10.7866667 L13.0304444,11.0422222 C12.2568889,11.8977778 11.152,12.3884444 9.99888889,12.3884444 C8.846,12.3884444 7.74111111,11.8977778 6.96755556,11.0422222 L6.73644444,10.7866667 C5.34355556,11.3006667 4.38622222,12.6337778 4.38622222,14.1633333 L4.38622222,16.998 C2.26822222,15.3017778 1.02888889,12.7508889 1.02888889,10.0013333 C1.02888889,5.05377778 5.05266667,1.02888889 9.99866667,1.02888889 C14.946,1.02888889 18.9708889,5.05377778 18.9708889,10.0011111 C18.9711111,12.754 17.7311111,15.3057778 15.6117778,16.9993333 Z" id="Shape" fill="#FFFFFF" fill-rule="nonzero"></path>
                    </g>
                </g>
            </g>
        </g>
    </g>
</svg>