<?xml version="1.0" encoding="UTF-8"?>
<svg width="26px" height="26px" viewBox="0 0 26 26" version="1.1" xmlns="http://www.w3.org/2000/svg" xmlns:xlink="http://www.w3.org/1999/xlink">
    <!-- Generator: Sketch 46.2 (44496) - http://www.bohemiancoding.com/sketch -->
    <title>cabinet-blue</title>
    <desc>Created with Sketch.</desc>
    <defs></defs>
    <g id="Symbols" stroke="none" stroke-width="1" fill="none" fill-rule="evenodd">
        <g id="cabinet-blue">
            <path d="M15.6990889,13.2334222 C16.3034444,12.5640667 16.6365333,11.6988444 16.6365333,10.7978 C16.6365333,8.79175556 15.0043111,7.15953333 12.9982667,7.15953333 C10.9922222,7.15953333 9.36,8.79175556 9.36,10.7980889 C9.36,11.6988444 9.69308889,12.5637778 10.2983111,13.234 C10.9870222,13.9958 11.9712667,14.4328889 12.9982667,14.4328889 C14.0255556,14.4328889 15.0100889,13.9958 15.6990889,13.2334222 Z" id="Shape" fill="#227EBA" fill-rule="nonzero"></path>
            <path d="M12.9982667,1.33755556 C6.56846667,1.33755556 1.33755556,6.56991111 1.33755556,13.0017333 C1.33755556,16.5761556 2.9484,19.8926 5.7018,22.0976889 L5.7018,18.4123333 C5.7018,16.4239111 6.94633333,14.6908667 8.75708889,14.0226667 L9.05753333,14.3548889 C10.0631556,15.4671111 11.4995111,16.1049778 12.9982667,16.1049778 C14.4973111,16.1049778 15.9336667,15.4671111 16.9392889,14.3548889 L17.2397333,14.0226667 C19.0504889,14.6908667 20.2950222,16.4239111 20.2950222,18.4123333 L20.2950222,22.0991333 C23.0504444,19.8975111 24.6624444,16.5802 24.6624444,13.0017333 C24.6624444,6.56991111 19.4298,1.33755556 12.9982667,1.33755556 Z" id="Shape"></path>
            <path d="M12.9982667,0 C5.83122222,0 0,5.83237778 0,13.0017333 C0,15.6210889 0.799066667,18.213 2.288,20.3692667 C2.92962222,21.2983333 3.7258,22.1075111 4.59102222,22.8291556 C5.02868889,23.1940222 5.48368889,23.5375111 5.94706667,23.8691556 C6.7106,24.4154444 7.48655556,24.8068889 8.37142222,25.1454667 C8.85531111,25.3306444 9.35046667,25.4866444 9.85313333,25.6126 C10.8807111,25.87 11.9392,26 12.9982667,26 C14.0324889,26 15.0629556,25.8572889 16.0642444,25.6016222 C16.5709556,25.4722 17.0701556,25.3144667 17.5609778,25.1336222 C17.8149111,25.0400222 18.0668222,24.9400667 18.3161333,24.8349111 C18.8999778,24.5882 19.4534889,24.3048 19.9888,23.9607333 C19.9888,23.9607333 20.2953111,23.7648667 20.2953111,23.7648667 L20.2953111,23.7512889 C23.8717556,21.3266444 26,17.3391111 26,13.0017333 C26,5.83237778 20.1676222,0 12.9982667,0 Z M20.2953111,22.0991333 L20.2953111,18.4123333 C20.2953111,16.4239111 19.0507778,14.6908667 17.2400222,14.0226667 L16.9395778,14.3548889 C15.9339556,15.4671111 14.4976,16.1049778 12.9985556,16.1049778 C11.4998,16.1049778 10.0634444,15.4671111 9.05782222,14.3548889 L8.75737778,14.0226667 C6.94662222,14.6908667 5.70208889,16.4239111 5.70208889,18.4123333 L5.70208889,22.0974 C2.94868889,19.8923111 1.33755556,16.5761556 1.33755556,13.0017333 C1.33755556,6.56991111 6.56846667,1.33755556 12.9982667,1.33755556 C19.4298,1.33755556 24.6621556,6.56991111 24.6621556,13.0014444 C24.6624444,16.5802 23.0504444,19.8975111 20.2953111,22.0991333 Z" id="Shape" fill="#227EBA" fill-rule="nonzero"></path>
        </g>
    </g>
</svg>