<?xml version="1.0" encoding="UTF-8"?>
<svg width="49px" height="49px" viewBox="0 0 49 49" version="1.1" xmlns="http://www.w3.org/2000/svg" xmlns:xlink="http://www.w3.org/1999/xlink">
    <!-- Generator: Sketch 46.2 (44496) - http://www.bohemiancoding.com/sketch -->
    <title>Group</title>
    <desc>Created with Sketch.</desc>
    <defs></defs>
    <g id="Page-1" stroke="none" stroke-width="1" fill="none" fill-rule="evenodd">
        <g id="Artboard" transform="translate(-1013.000000, -1062.000000)" fill-rule="nonzero" fill="#A5B4BE">
            <g id="Group-5" transform="translate(458.000000, 764.000000)">
                <g id="noun_1198128_cc-copy" transform="translate(555.000000, 298.000000)">
                    <g id="Group">
                        <rect id="Rectangle-path" x="16.8744567" y="18.25201" width="15.25027" height="1.69442"></rect>
                        <rect id="Rectangle-path" x="16.8744567" y="25.76959" width="15.25027" height="1.69442"></rect>
                        <rect id="Rectangle-path" x="16.8744567" y="22.0108" width="15.25027" height="1.69442"></rect>
                        <path d="M24.4991833,0 C10.9688133,0 0,10.9693033 0,24.49951 C0,38.0295533 10.9688133,48.99951 24.4991833,48.99951 C38.0295533,48.99951 48.9996733,38.0295533 48.9996733,24.49951 C48.99951,10.9693033 38.0295533,0 24.4991833,0 Z M30.32904,10.5456167 L35.4768167,15.22822 L30.32904,15.22822 L30.32904,10.5456167 Z M27.89325,35.0474133 L27.89325,37.7277133 L27.89325,38.45373 L16.4991167,38.45373 C14.8546767,38.45373 13.5223667,37.1210933 13.5223667,35.47698 L13.5223667,13.5223667 C13.5223667,11.8782533 14.8550033,10.5456167 16.4991167,10.5456167 L29.0576533,10.5456167 L29.0576533,16.4991167 L35.4763267,16.4991167 L35.4763267,29.5270733 L33.4137533,29.5270733 L31.7193333,29.5270733 L31.7193333,29.5287067 L16.8744567,29.5287067 L16.8744567,31.2231267 L31.7198233,31.2231267 L31.7198233,33.2874967 L16.8744567,33.2874967 L16.8744567,34.9819167 L27.89325,34.9819167 L27.89325,35.0474133 L27.89325,35.0474133 Z M39.9201367,37.7278767 L36.0940533,37.7278767 L36.0940533,41.55396 L33.4142433,41.55396 L33.4142433,37.7278767 L29.58767,37.7278767 L29.58767,35.0475767 L33.4142433,35.0475767 L33.4142433,31.2214933 L36.0940533,31.2214933 L36.0940533,35.0475767 L39.9201367,35.0475767 C39.9201367,35.04774 39.9201367,37.7278767 39.9201367,37.7278767 Z" id="Shape"></path>
                    </g>
                </g>
            </g>
        </g>
    </g>
</svg>