<?xml version="1.0" encoding="UTF-8" standalone="no"?>
<svg width="133px" height="134px" viewBox="0 0 133 134" version="1.1" xmlns="http://www.w3.org/2000/svg" xmlns:xlink="http://www.w3.org/1999/xlink">
    <!-- Generator: Sketch 46.2 (44496) - http://www.bohemiancoding.com/sketch -->
    <title>Group 5 Copy</title>
    <desc>Created with Sketch.</desc>
    <defs></defs>
    <g id="Page-1" stroke="none" stroke-width="1" fill="none" fill-rule="evenodd" opacity="0.300000012">
        <g id="Artboard-2" transform="translate(-539.000000, -144.000000)" fill="#D8D8D8">
            <g id="Group-5-Copy" transform="translate(539.000000, 144.000000)">
                <path d="M0,18 L3,18 L3,5 C3,3.66666667 3.66666667,3 5,3 C6.33333333,3 10.6666667,3 18,3 L18,0 L2,0 C0.666666667,0 8.16431199e-17,0.666666667 0,2 C0,3.33333333 0,8.66666667 0,18 Z" id="Path-3"></path>
                <path d="M0,134 L3,134 L3,121 C3,119.666667 3.66666667,119 5,119 C6.33333333,119 10.6666667,119 18,119 L18,116 L2,116 C0.666666667,116 8.16431199e-17,116.666667 0,118 C0,119.333333 0,124.666667 0,134 Z" id="Path-3-Copy-2" transform="translate(9.000000, 125.000000) scale(1, -1) translate(-9.000000, -125.000000) "></path>
                <path d="M115,18 L118,18 L118,5 C118,3.66666667 118.666667,3 120,3 C121.333333,3 125.666667,3 133,3 L133,0 L117,0 C115.666667,0 115,0.666666667 115,2 C115,3.33333333 115,8.66666667 115,18 Z" id="Path-3-Copy" transform="translate(124.000000, 9.000000) scale(-1, 1) translate(-124.000000, -9.000000) "></path>
                <path d="M115,134 L118,134 L118,121 C118,119.666667 118.666667,119 120,119 C121.333333,119 125.666667,119 133,119 L133,116 L117,116 C115.666667,116 115,116.666667 115,118 C115,119.333333 115,124.666667 115,134 Z" id="Path-3-Copy-3" transform="translate(124.000000, 125.000000) scale(-1, -1) translate(-124.000000, -125.000000) "></path>
            </g>
        </g>
    </g>
</svg>