<svg xmlns="http://www.w3.org/2000/svg" width="225px" height="249px" viewBox="0 0 225 249">
    <circle id="Oval" cx="112.5" cy="136.5" r="111.5" style="fill:none;stroke:#227eba;stroke-width:2px">
        <animate
                id="circle-anim"
                class='start-animation'
                begin="indefinite"
                dur="1.5s"
                fill="freeze"
                attributeName="stroke-width"
                values="2;3;3;2"
                keyTimes="0;0.3;0.7;1"
        />
        <animate
                begin="indefinite"
                dur="1.5s"
                fill="freeze"
                attributeName="stroke"
                values="#227EBA;#5ABAFB;#5ABAFB;#227EBA;#227EBA"
                keyTimes="0;0.2;0.6;0.8;1"
        />
    </circle>
    <rect id="text-background" x="84" width="55" height="44" rx="1" ry="1" style="fill:#3d4360"/>
    <path id="tl" d="M52,92h2.67V80.44a1.57,1.57,0,0,1,1.78-1.78H68V76H53.78A1.57,1.57,0,0,0,52,77.78Z"
          style="fill:#d8d8d8;opacity:0.30000001192092896;isolation:isolate">
        <animateTransform
                begin="indefinite"
                dur="1.5s"
                fill="freeze"
                attributeName="transform"
                type="translate"
                values="0 0;0 0;-3 -3;-3 -3;0 0;0 0"
                keyTimes="0;0.1;0.3;0.6;0.8;1"
        />
    </path>
    <path id="bl" d="M52,182h2.67v11.56a1.57,1.57,0,0,0,1.78,1.78H68V198H53.78A1.57,1.57,0,0,1,52,196.22Z"
          style="fill:#d8d8d8;opacity:0.30000001192092896;isolation:isolate">
        <animateTransform
                begin="indefinite"
                dur="1.5s"
                fill="freeze"
                attributeName="transform"
                type="translate"
                values="0 0;0 0;-3 3;-3 3;0 0;0 0"
                keyTimes="0;0.1;0.3;0.6;0.8;1"
        />
    </path>
    <path id="tr" d="M173,92h-2.67V80.44a1.57,1.57,0,0,0-1.78-1.78H157V76h14.22A1.57,1.57,0,0,1,173,77.78Z"
          style="fill:#d8d8d8;opacity:0.30000001192092896;isolation:isolate">
        <animateTransform
                begin="indefinite"
                dur="1.5s"
                fill="freeze"
                attributeName="transform"
                type="translate"
                values="0 0;0 0;3 -3;3 -3;0 0;0 0"
                keyTimes="0;0.1;0.3;0.6;0.8;1"
        />
    </path>
    <path id="br" d="M173,182h-2.67v11.56a1.57,1.57,0,0,1-1.78,1.78H157V198h14.22a1.57,1.57,0,0,0,1.78-1.78Z"
          style="fill:#d8d8d8;opacity:0.30000001192092896;isolation:isolate">
        <animateTransform
                begin="indefinite"
                dur="1.5s"
                fill="freeze"
                attributeName="transform"
                type="translate"
                values="0 0;0 0;3 3;3 3;0 0;0 0"
                keyTimes="0;0.1;0.3;0.6;0.8;1"
        />
    </path>
    <path id="text" fill="#457ec2"
          d="M103.3,30H92.12V21h2v7.29h2.55V21h2v7.29h2.55V21h2Zm8.11,0q-.14-.47-.32-1l-.34-1h-3.51l-.34,1q-.18.49-.32,1h-2.11q.51-1.46,1-2.69t.89-2.33q.44-1.09.86-2.07t.88-1.92H110q.44.94.87,1.92t.86,2.07q.44,1.09.89,2.33t1,2.69ZM109,23q-.06.2-.19.53l-.3.78-.37,1q-.2.53-.41,1.12h2.56l-.4-1.12q-.19-.53-.37-1l-.31-.78Zm7.8,7h-2V21h6.15v1.72h-4.12Zm8.67-7.14q.38-.16.79-.36t.8-.44q.39-.24.75-.51a5.13,5.13,0,0,0,.64-.57h1.35v9h-1.94V23.51A5.9,5.9,0,0,1,127,24q-.48.21-.94.37Z">
        <animate
                begin="indefinite"
                dur="1.5s"
                fill="freeze"
                attributeName="fill"
                values="#457EC2;#457EC2;#FFFFFF;#FFFFFF;#457EC2;#457EC2"
                keyTimes="0;0.1;0.4;0.6;0.8;1"
        />
    </path>
    <path id="monitor"
          d="M67.45,104A1.77,1.77,0,0,0,66,105.78V166a3.34,3.34,0,0,0,.77,1.55H67l.11.11h.22l.11.11a1.77,1.77,0,0,0,.33,0H97.85v10.64H87.23V182h49.53v-3.55H126.15V167.82h30.07a1.77,1.77,0,0,0,1-.33l.11-.11a1.77,1.77,0,0,0,.33-.22s0-.07,0-.11a8924.64,8924.64,0,0,1,.33-.66,1.78,1.78,0,0,0,0-.33V105.78a1.77,1.77,0,0,0-1.77-1.77H67.78A1.77,1.77,0,0,0,67.45,104Zm2.1,3.55h84.91v46.09H69.55V107.55Zm0,49.63h84.91v7.09H69.55Zm31.84,10.64h21.23v10.64H101.39Z"
          style="fill:#fff"/>
    <path id="cursor"
          d="M126,136.67a.28.28,0,0,1-.09.22l0,0,0,0-6,3a1.39,1.39,0,0,0-.64.67h0l-2.87,6.19a.25.25,0,0,1-.28.19.24.24,0,0,1-.25-.22l-4.69-14.67a.48.48,0,0,1,.11-.47.45.45,0,0,1,.32-.14l.14,0,14.08,4.89A.24.24,0,0,1,126,136.67Zm-22.81-11.88,2.39,2.49a1,1,0,0,0,.7.29,1,1,0,0,0,.71-.29h0a1.07,1.07,0,0,0,.3-.77,1,1,0,0,0-.31-.7l-2.39-2.49a1,1,0,0,0-.72-.32.93.93,0,0,0-.7.32,1.07,1.07,0,0,0-.3.76A1,1,0,0,0,103.19,124.79Zm8-.37-.4-3.52h0a1,1,0,0,0-1-.9h-.14a1,1,0,0,0-.86,1.16l.4,3.51a1,1,0,0,0,1,.91h.14a1.1,1.1,0,0,0,.58-.31A1,1,0,0,0,111.21,124.42Zm2.74,1.94h0a1.06,1.06,0,0,0,.52.14h0a1,1,0,0,0,.7-.3.75.75,0,0,0,.15-.2l1.75-3a1,1,0,0,0,.13-.76,1.06,1.06,0,0,0-.46-.67,1,1,0,0,0-1.38.35l-1.76,3A1.05,1.05,0,0,0,114,126.36Zm2.39,3a1,1,0,0,0,1,.68h0a1,1,0,0,0,.35-.06l3.17-1.26a.8.8,0,0,0,.35-.24,1.08,1.08,0,0,0,.23-1.1,1,1,0,0,0-.93-.69,1,1,0,0,0-.35.06L116.94,128A1.06,1.06,0,0,0,116.34,129.33Zm-12.1,2.35h.12a.9.9,0,0,0,.71-.32,1.17,1.17,0,0,0,.29-.6h0a1,1,0,0,0-.85-1.16l-3.38-.42H101a1,1,0,0,0-1,.9,1,1,0,0,0,.85,1.16l3.38.45Zm1,2.36a1,1,0,0,0-.53.16L101.84,136a1.05,1.05,0,0,0-.33,1.43,1,1,0,0,0,.85.51h0a1,1,0,0,0,.53-.16L105.8,136a.83.83,0,0,0,.19-.16,1,1,0,0,0,.15-1.28A1,1,0,0,0,105.29,134Zm3.69,3h0a1,1,0,0,0-.35-.06,1,1,0,0,0-1,.68l-1.21,3.3h0a1.06,1.06,0,0,0,.59,1.34.92.92,0,0,0,.35.07h0a1.07,1.07,0,0,0,.72-.29h0a1,1,0,0,0,.22-.36l1.21-3.3h0A1.1,1.1,0,0,0,109,137Z"
          style="fill:#fff"/>
</svg>