<?xml version="1.0" encoding="UTF-8"?>
<svg width="223px" height="248px" viewBox="0 0 223 248" version="1.1" xmlns="http://www.w3.org/2000/svg" xmlns:xlink="http://www.w3.org/1999/xlink">
    <!-- Generator: Sketch 46.2 (44496) - http://www.bohemiancoding.com/sketch -->
    <title>Oval</title>
    <desc>Created with Sketch.</desc>
    <defs></defs>
    <g id="Symbols" stroke="none" stroke-width="1" fill="none" fill-rule="evenodd">
        <g id="Oval">
            <circle stroke="#227EBA" stroke-width="2" cx="111.5" cy="136.5" r="111.5"></circle>
            <rect id="Rectangle-5" fill="#3D4360" x="83" y="0" width="55" height="44" rx="1"></rect>
            <path d="M103.297,30 L92.117,30 L92.117,20.991 L94.145,20.991 L94.145,28.284 L96.693,28.284 L96.693,20.991 L98.721,20.991 L98.721,28.284 L101.269,28.284 L101.269,20.991 L103.297,20.991 L103.297,30 Z M111.409,30 C111.313666,29.6879984 111.207501,29.367335 111.0905,29.038 C110.973499,28.708665 110.858667,28.379335 110.746,28.05 L107.236,28.05 C107.123333,28.379335 107.008501,28.708665 106.8915,29.038 C106.774499,29.367335 106.668334,29.6879984 106.573,30 L104.467,30 C104.805002,29.0293285 105.125665,28.1323374 105.429,27.309 C105.732335,26.4856626 106.029165,25.7100036 106.3195,24.982 C106.609835,24.2539964 106.895832,23.5628366 107.1775,22.9085 C107.459168,22.2541634 107.751665,21.6150031 108.055,20.991 L109.992,20.991 C110.286668,21.6150031 110.576999,22.2541634 110.863,22.9085 C111.149001,23.5628366 111.437165,24.2539964 111.7275,24.982 C112.017835,25.7100036 112.314665,26.4856626 112.618,27.309 C112.921335,28.1323374 113.241998,29.0293285 113.58,30 L111.409,30 Z M108.978,23.032 C108.934666,23.1620006 108.869667,23.3396655 108.783,23.565 C108.696333,23.7903345 108.596667,24.0503319 108.484,24.345 C108.371333,24.6396681 108.247834,24.9646649 108.1135,25.32 C107.979166,25.6753351 107.842667,26.0479981 107.704,26.438 L110.265,26.438 C110.126333,26.0479981 109.992001,25.6753351 109.862,25.32 C109.731999,24.9646649 109.608501,24.6396681 109.4915,24.345 C109.374499,24.0503319 109.272667,23.7903345 109.186,23.565 C109.099333,23.3396655 109.03,23.1620006 108.978,23.032 Z M116.778,30 L114.75,30 L114.75,20.991 L120.899,20.991 L120.899,22.707 L116.778,22.707 L116.778,30 Z M125.449,22.863 C125.700335,22.7589995 125.962499,22.639834 126.2355,22.5055 C126.508501,22.371166 126.774999,22.2238341 127.035,22.0635 C127.295001,21.9031659 127.544165,21.7341676 127.7825,21.5565 C128.020835,21.3788324 128.235332,21.1903343 128.426,20.991 L129.778,20.991 L129.778,30 L127.841,30 L127.841,23.513 C127.580999,23.6863342 127.290668,23.8444993 126.97,23.9875 C126.649332,24.1305007 126.337335,24.2539995 126.034,24.358 L125.449,22.863 Z" id="ШАГ-1-Copy" fill="#457EC2"></path>
        </g>
    </g>
</svg>