<svg xmlns="http://www.w3.org/2000/svg" width="225" height="249" viewBox="0 0 225 249"><symbol id="star" viewBox="0 0 26 25" fill="#fff"><path d="M12.5 0A1.5 1.5 0 0 1 14 1.5v7a1.5 1.5 0 0 1-3 0v-7A1.5 1.5 0 0 1 12.5 0zm0 15a1.5 1.5 0 0 1 1.5 1.5v7a1.5 1.5 0 0 1-3 0v-7a1.5 1.5 0 0 1 1.5-1.5zm-2-2A1.5 1.5 0 0 0 9 11.5H2a1.5 1.5 0 0 0 0 3h7a1.5 1.5 0 0 0 1.5-1.5zm15 0a1.5 1.5 0 0 0-1.5-1.5h-7a1.5 1.5 0 0 0 0 3h7a1.5 1.5 0 0 0 1.5-1.5z"/></symbol><circle id="Oval-Copy-2" cx="112.5" cy="136.5" r="111.5" fill="none" stroke="#227eba" stroke-width="2"><animate id="circle-anim" begin="indefinite" dur="1.5s" fill="freeze" attributeName="stroke-width" values="2;3;3;2" keyTimes="0;0.3;0.7;1"/><animate begin="indefinite" dur="1.5s" fill="freeze" attributeName="stroke" values="#227EBA;#5ABAFB;#5ABAFB;#227EBA;#227EBA" keyTimes="0;0.2;0.6;0.8;1"/></circle><path d="M81.19 98.07a1.59 1.59 0 0 0-1.3 1.59V123l-12.25 9.73a2.79 2.79 0 0 0-.6 1.89v50.82a1.6 1.6 0 0 0 1.6 1.56h86.72a1.6 1.6 0 0 0 1.61-1.59v-50.82a2.79 2.79 0 0 0-.6-1.89l-12.25-9.7v-4.17a1.61 1.61 0 0 0-3.21 0v4.27a1.57 1.57 0 0 0 0 .2v.1a1.57 1.57 0 0 0 0 .79v18.36L112 161.59l-28.91-19V124a1.57 1.57 0 0 0 0-.6v-22.15h40.15a1.61 1.61 0 0 0 1.41-.79 1.57 1.57 0 0 0 0-1.6 1.61 1.61 0 0 0-1.41-.79H81.19zm48 0a1.59 1.59 0 0 0-1.1 1.59v12.7a1.6 1.6 0 0 0 1.61 1.59h12.85a1.61 1.61 0 0 0 1.54-1 1.58 1.58 0 0 0-.43-1.77l-12.85-12.7a1.62 1.62 0 0 0-1.61-.4zm2.11 5.36l7.43 7.34h-7.43zM79.88 127v13.5l-9.23-6.05zm64.24.1l9.23 7.34-9.23 6.05zm-73.87 10.67l40.85 27a1.62 1.62 0 0 0 1.81 0l40.85-27v46.05H70.25z" fill="#fff"/><rect id="text-bg" x="85" width="55" height="44" rx="1" ry="1" fill="#3d4360"/><path id="text" fill="#457ec2" d="M103.3 30H92.12v-9h2v7.29h2.55V21h2v7.29h2.55V21h2zm8.11 0q-.14-.47-.32-1l-.34-1h-3.51l-.34 1q-.18.49-.32 1h-2.11q.51-1.46 1-2.69t.89-2.33q.44-1.09.86-2.07t.88-1.92h1.9q.44.94.87 1.92t.86 2.07q.44 1.09.89 2.33t1 2.69zM109 23q-.06.2-.19.53l-.3.78-.37 1q-.2.53-.41 1.12h2.56l-.4-1.12q-.19-.53-.37-1l-.31-.78zm7.8 7h-2v-9h6.15v1.72h-4.12zm10.72.19a6.41 6.41 0 0 1-.74 0q-.39 0-.75-.12l-.66-.17a3.82 3.82 0 0 1-.47-.17l.38-1.61q.34.14.86.31a4.49 4.49 0 0 0 1.31.16 2.07 2.07 0 0 0 1.31-.34 1.11 1.11 0 0 0 .42-.91 1.1 1.1 0 0 0-.15-.59 1.14 1.14 0 0 0-.41-.39 1.82 1.82 0 0 0-.62-.21 4.71 4.71 0 0 0-.76-.06h-.75v-1.6h.86a2.88 2.88 0 0 0 .55-.05 1.47 1.47 0 0 0 .47-.18.92.92 0 0 0 .33-.34 1.07 1.07 0 0 0 .12-.54.85.85 0 0 0-.1-.43.93.93 0 0 0-.27-.3 1.16 1.16 0 0 0-.38-.18 1.65 1.65 0 0 0-.44-.06 3.06 3.06 0 0 0-1 .17 4.32 4.32 0 0 0-.86.42l-.77-1.41.49-.27a4.81 4.81 0 0 1 .62-.26 5.64 5.64 0 0 1 .72-.19 4.07 4.07 0 0 1 .81-.08A4.44 4.44 0 0 1 129 21a2.58 2.58 0 0 1 1 .53 2.15 2.15 0 0 1 .56.81 2.72 2.72 0 0 1 .18 1 2.07 2.07 0 0 1-1.11 1.79 2.34 2.34 0 0 1 1.09.85 2.36 2.36 0 0 1 .38 1.36 3.1 3.1 0 0 1-.21 1.15 2.32 2.32 0 0 1-.65.91 3.12 3.12 0 0 1-1.12.6 5.42 5.42 0 0 1-1.62.19z"><animate begin="indefinite" dur="1.5s" fill="freeze" attributeName="fill" values="#457EC2;#457EC2;#FFFFFF;#FFFFFF;#457EC2;#457EC2" keyTimes="0;0.1;0.4;0.6;0.8;1"/></path><use x="117" y="52" width="26" height="25"/><use x="171" y="137" width="26" height="25"/><use x="31" y="94" width="26" height="25"/></svg>