<svg xmlns="http://www.w3.org/2000/svg" width="225" height="249" viewBox="0 0 225 249"><circle id="Oval-Copy" cx="112.5" cy="136.5" r="111.5" fill="none" stroke="#227eba" stroke-width="2"><animate id="circle-anim" begin="indefinite" dur="1.5s" fill="freeze" attributeName="stroke-width" values="2;3;3;2" keyTimes="0;0.3;0.7;1"/><animate begin="indefinite" dur="1.5s" fill="freeze" attributeName="stroke" values="#227EBA;#5ABAFB;#5ABAFB;#227EBA;#227EBA" keyTimes="0;0.2;0.6;0.8;1"/></circle><path id="Combined-Shape" d="M135.55 173.85a46.53 46.53 0 1 1 4.1-2.77l18.56 24.63a2 2 0 0 1-.39 2.8l-.76.57a2 2 0 0 1-2.8-.39L135.66 174l-.11-.16zm1.61-6.07a42.44 42.44 0 1 0-59.38-8.4 42.4 42.4 0 0 0 59.38 8.4z" fill="#fff"/><path id="Shape" d="M113 114a1.81 1.81 0 0 0-1 .33L95.61 127a1.61 1.61 0 0 0-.61 1.26v22.24a1.65 1.65 0 0 0 1.59 1.59h32.82a1.65 1.65 0 0 0 1.59-1.59v-22.21a1.62 1.62 0 0 0-.61-1.26L114 114.33a1.6 1.6 0 0 0-1-.33zm0 3.59l14.82 11.47v19.89H98.18v-19.89z" fill="#fff"/><rect id="text-bg" x="84" width="55" height="44" rx="1" ry="1" fill="#3d4360"/><path id="text" d="M104.3 30H93.12v-9h2v7.29h2.55V21h2v7.29h2.55V21h2zm8.11 0q-.14-.47-.32-1l-.34-1h-3.51l-.34 1q-.18.49-.32 1h-2.11q.51-1.46 1-2.69t.89-2.33q.44-1.09.86-2.07t.88-1.92h1.9q.44.94.87 1.92t.86 2.07q.44 1.09.89 2.33t1 2.69zM110 23q-.06.2-.19.53l-.3.78-.37 1q-.2.53-.41 1.12h2.56l-.4-1.12q-.19-.53-.37-1l-.31-.78zm7.8 7h-2v-9h6.15v1.72h-4.12zm14.2-6.64a2.39 2.39 0 0 1-.19.95 4.38 4.38 0 0 1-.51.88 7.19 7.19 0 0 1-.7.81l-.77.74-.42.41-.44.46-.37.44a1.08 1.08 0 0 0-.2.33h3.87V30h-6a2.1 2.1 0 0 1 0-.36v-.31a3.14 3.14 0 0 1 .2-1.14 4.28 4.28 0 0 1 .53-1 6.1 6.1 0 0 1 .73-.84l.81-.78.58-.57a6.45 6.45 0 0 0 .48-.52 2.37 2.37 0 0 0 .32-.51 1.21 1.21 0 0 0 .12-.51.93.93 0 0 0-.32-.81 1.34 1.34 0 0 0-.81-.23 1.92 1.92 0 0 0-.66.11 3.32 3.32 0 0 0-.56.26 3.44 3.44 0 0 0-.44.3l-.27.24L126 22a4.91 4.91 0 0 1 1.33-.88 3.91 3.91 0 0 1 1.63-.34 4.53 4.53 0 0 1 1.37.18 2.55 2.55 0 0 1 .94.51 2 2 0 0 1 .55.81 3.08 3.08 0 0 1 .18 1.08z" fill="#457ec2"><animate begin="indefinite" dur="1.5s" fill="freeze" attributeName="fill" values="#457EC2;#457EC2;#FFFFFF;#FFFFFF;#457EC2;#457EC2" keyTimes="0;0.1;0.4;0.6;0.8;1"/></path><path id="round-bottom" d="M57.23 97.34S55 94.79 55 94.67c-6.11 7.31-22.92 38.77-4 72.84s55 36.34 67.25 34.49c0-1.18 1-2.31.54-3.57-14 2.6-47.89-2.06-64.79-32.64s-3.27-58.88 3.23-68.45z" fill="#fff" opacity=".3" style="isolation:isolate"><animateTransform begin="indefinite" dur="1.5s" fill="freeze" attributeName="transform" type="translate" values="0 0;0 0;-5 5;-5 5;0 0;0 0" keyTimes="0;0.1;0.3;0.6;0.8;1"/></path><path id="round-top" d="M163.07 172.71s2.1 2.63 2.16 2.75c6.36-7.09 24.26-38 6.58-72.65S118 64.56 105.75 66c0 1.18-1.06 2.27-.66 3.55 14.11-2.11 47.78 3.73 63.61 34.88s1.21 58.95-5.63 68.28z" fill="#fff" opacity=".3" style="isolation:isolate"><animateTransform begin="indefinite" dur="1.5s" fill="freeze" attributeName="transform" type="translate" values="0 0;0 0;5 -5;5 -5;0 0;0 0" keyTimes="0;0.1;0.3;0.6;0.8;1"/></path></svg>