<?xml version="1.0" encoding="UTF-8" standalone="no"?>
<svg width="225px" height="249px" viewBox="0 0 225 249" version="1.1" xmlns="http://www.w3.org/2000/svg"
     xmlns:xlink="http://www.w3.org/1999/xlink">
    <!-- Generator: Sketch 46.2 (44496) - http://www.bohemiancoding.com/sketch -->
    <title>icon1</title>
    <desc>Created with Sketch.</desc>
    <defs></defs>
    <g id="Symbols" stroke="none" stroke-width="1" fill="none" fill-rule="evenodd">
        <g id="icon1">
            <circle id="Oval" stroke="#227EBA" stroke-width="2" cx="112.5" cy="136.5" r="111.5">
                <animate
                        id="circle-anim"
                        class='start-animation'
                        begin="indefinite"
                        dur="2s"
                        fill="freeze"
                        attributeName="stroke-width"
                        values="2;3;3;2"
                        keyTimes="0; 0.2;0.8;1"
                />
                <animate
                        begin="indefinite"
                        dur="2s"
                        fill="freeze"
                        attributeName="stroke"
                        values="#227EBA;#5ABAFB;#5ABAFB;#227EBA"
                        keyTimes="0;0.2;0.8;1"
                />
            </circle>
            <rect id="text-background" fill="#3D4360" fill-rule="nonzero" x="84" y="0" width="55" height="44"
                  rx="1"></rect>

            <!--border-->
            <path d="M52,92 L54.6666667,92 L54.6666667,80.4444444 C54.6666667,79.2592593 55.2592593,78.6666667 56.4444444,78.6666667 C57.6296296,78.6666667 61.4814815,78.6666667 68,78.6666667 L68,76 L53.7777778,76 C52.5925926,76 52,76.5925926 52,77.7777778 C52,78.962963 52,83.7037037 52,92 Z"
                  id="tl" fill="#D8D8D8" opacity="0.3">
                <animateTransform
                        begin="indefinite"
                        dur="2s"
                        fill="freeze"
                        attributeName="transform"
                        type="translate"
                        values="0 0;-3 -3;-3 -3;0 0"
                        keyTimes="0;0.2;0.8;1"
                />
            </path>
            <path d="M52,182 L54.6666667,182 L54.6666667,193.555556 C54.6666667,194.74074 55.2592593,195.333333 56.4444444,195.333333 L68,195.333333 L68,198 L53.7777778,198 C52.5925926,198 52,197.407407 52,196.222222 L52,182 Z"
                  id="bl" fill="#D8D8D8" opacity="0.3">
                <animateTransform
                        begin="indefinite"
                        dur="2s"
                        fill="freeze"
                        attributeName="transform"
                        type="translate"
                        values="0 0;-3 3;-3 3;0 0"
                        keyTimes="0;0.2;0.8;1"
                />
            </path>
            <path d="M173,92 L170.333333,92 L170.333333,80.4444444 C170.333333,79.2592593 169.74074,78.6666667 168.555556,78.6666667 L157,78.6666667 L157,76 L171.222222,76 C172.407407,76 173,76.5925926 173,77.7777778 L173,92 Z"
                  id="tr" fill="#D8D8D8" opacity="0.3">
                <animateTransform
                        begin="indefinite"
                        dur="2s"
                        fill="freeze"
                        attributeName="transform"
                        type="translate"
                        values="0 0;3 -3;3 -3;0 0"
                        keyTimes="0;0.2;0.8;1"
                />
            </path>
            <path d="M173,182 L170.333333,182 L170.333333,193.555556 C170.333333,194.74074 169.74074,195.333333 168.555556,195.333333 L157,195.333333 L157,198 L171.222222,198 C172.407407,198 173,197.407407 173,196.222222 L173,182 Z"
                  id="br" fill="#D8D8D8" opacity="0.3">
                <animateTransform
                        begin="indefinite"
                        dur="2s"
                        fill="freeze"
                        attributeName="transform"
                        type="translate"
                        values="0 0;3 3;3 3;0 0"
                        keyTimes="0;0.2;0.8;1"
                />
            </path>
            <!--/border-->

            <path d="M94.6726074,29 L104.727295,29 L104.727295,19.840332 L103.584717,19.840332 L103.584717,27.9716797 L100.27124,27.9716797 L100.27124,19.840332 L99.1286621,19.840332 L99.1286621,27.9716797 L95.8151855,27.9716797 L95.8151855,19.840332 L94.6726074,19.840332 L94.6726074,29 Z M113.068115,29 L112.147705,26.378418 L108.50415,26.378418 L107.58374,29 L106.384033,29 L109.760986,19.840332 L110.890869,19.840332 L114.267822,29 L113.068115,29 Z M110.275146,21.3193359 L108.840576,25.4072266 L111.811279,25.4072266 L110.376709,21.3193359 L110.275146,21.3193359 Z M117.073486,29 L117.073486,20.8813477 L121.358154,20.8813477 L121.358154,19.840332 L115.924561,19.840332 L115.924561,29 L117.073486,29 Z M128.784912,29 L129.92749,29 L129.92749,19.840332 L128.79126,19.840332 L126.35376,21.5922852 L126.35376,22.7983398 L128.68335,21.1098633 L128.784912,21.1098633 L128.784912,29 Z"
                  id="text" fill="#457EC2" fill-rule="nonzero">
                <animate
                        begin="indefinite"
                        dur="2s"
                        fill="freeze"
                        attributeName="fill"
                        values="#457EC2;#FFFFFF;#FFFFFF;#457EC2"
                        keyTimes="0;0.2;0.8;1"
                />
            </path>
            <path d="M67.4450466,104.007806 C66.5993524,104.169501 65.9926189,104.917777 66.00779,105.780356 L66.00779,147.435278 L66.00779,149.207827 L66.00779,166.047051 C65.9974033,166.157591 65.9974033,166.268864 66.00779,166.379404 C66.0394415,166.455754 66.0763844,166.52979 66.1183482,166.600973 C66.1941173,166.80441 66.3065417,166.992168 66.4500228,167.154895 C66.536725,167.31911 66.6486493,167.468648 66.7816974,167.598032 C66.8553307,167.602652 66.9291804,167.602652 67.0028138,167.598032 C67.0380192,167.636575 67.0749079,167.673539 67.113372,167.708817 C67.1870053,167.713437 67.260855,167.713437 67.3344884,167.708817 C67.3696938,167.747359 67.4065825,167.784324 67.4450466,167.819601 C67.5553608,167.830009 67.6664069,167.830009 67.7767212,167.819601 L97.8485508,167.819601 L97.8485508,178.4549 L87.2349638,178.4549 L87.2349638,182 L136.765036,182 L136.765036,178.4549 L126.151449,178.4549 L126.151449,167.819601 L156.223279,167.819601 C156.580855,167.812149 156.92778,167.696271 157.218303,167.487248 C157.256767,167.451971 157.293655,167.415006 157.328861,167.376464 C157.447396,167.315364 157.558661,167.241036 157.660535,167.154895 C157.661687,167.117976 157.661687,167.08103 157.660535,167.044111 C157.702499,166.972928 157.739442,166.898891 157.771094,166.822542 C157.865136,166.685929 157.939569,166.53676 157.99221,166.379404 C158.002597,166.268864 158.002597,166.157591 157.99221,166.047051 L157.99221,149.207827 L157.99221,147.435278 L157.99221,105.780356 C157.992112,104.801444 157.200192,104.007904 156.223279,104.007806 L135.880571,104.007806 L88.5616622,104.007806 L67.7767212,104.007806 C67.6664069,103.997398 67.5553608,103.997398 67.4450466,104.007806 Z M69.5456523,107.552906 L88.5616622,107.552906 L135.880571,107.552906 L154.454348,107.552906 L154.454348,147.435278 L154.454348,153.639202 L69.5456523,153.639202 L69.5456523,149.207827 L69.5456523,147.435278 L69.5456523,107.552906 Z M69.5456523,157.184302 L154.454348,157.184302 L154.454348,164.274501 L69.5456523,164.274501 L69.5456523,157.184302 Z M101.386413,167.819601 L122.613587,167.819601 L122.613587,178.4549 L101.386413,178.4549 L101.386413,167.819601 Z"
                  id="monitor" fill="#FFFFFF" fill-rule="nonzero"></path>
            <path d="M126,136.669746 C126,136.774121 125.965588,136.830301 125.906157,136.892094 L125.879271,136.920061 L125.844889,136.937359 L119.870067,139.945362 C119.60356,140.07163 119.352919,140.333045 119.231528,140.611358 L119.22936,140.616199 L116.359291,146.807654 C116.340595,146.889551 116.279086,147 116.083601,147 C115.944567,147 115.84973,146.917117 115.831997,146.784991 L111.139131,132.113015 C111.086082,131.947156 111.128684,131.765325 111.250316,131.638503 C111.336482,131.548805 111.45411,131.497404 111.573153,131.497404 C111.621113,131.497404 111.668713,131.505482 111.714626,131.521424 L125.792352,136.411753 C125.919946,136.430655 126,136.527753 126,136.669746 Z M103.189772,124.792954 L105.580086,127.283985 C105.762384,127.473988 106.010345,127.578609 106.278327,127.578609 C106.542275,127.578609 106.795174,127.476701 106.990478,127.291632 L106.998186,127.283954 C107.199812,127.073817 107.307204,126.800838 107.30058,126.51528 C107.294318,126.245909 107.185722,125.997105 106.994663,125.813979 L104.604349,123.322947 C104.408112,123.118453 104.152473,123.005814 103.884491,123.005814 C103.61419,123.005814 103.365145,123.119779 103.182546,123.326833 C102.983298,123.536477 102.877262,123.807882 102.883885,124.091653 C102.890117,124.361024 102.998713,124.609858 103.189772,124.792954 Z M111.214458,124.419794 L110.810663,120.903206 L110.810302,120.900122 C110.743495,120.378556 110.331511,120 109.830681,120 C109.784376,120 109.737319,120.003268 109.690804,120.009744 C109.136866,120.086738 108.760468,120.596679 108.833568,121.167643 L109.236791,124.679205 C109.274635,125.188623 109.694959,125.586882 110.19618,125.586882 C110.240046,125.586882 110.284514,125.583799 110.32838,125.577693 L110.335726,125.576552 C110.554212,125.538626 110.772819,125.424106 110.920464,125.27018 C111.144159,125.037133 111.251249,124.726752 111.214458,124.419794 Z M113.956332,126.356112 L113.966598,126.362309 C114.130832,126.455646 114.311745,126.504981 114.489737,126.505012 C114.489767,126.505012 114.489767,126.505012 114.489798,126.505012 C114.753174,126.505012 115.001466,126.397368 115.188912,126.20197 C115.249517,126.138882 115.297749,126.088591 115.341554,126.000558 L117.094383,122.975966 C117.234862,122.753649 117.280685,122.484186 117.223422,122.216573 C117.164262,121.940048 116.996385,121.695561 116.762815,121.545767 C116.600568,121.4417 116.417307,121.386722 116.232872,121.386722 C115.887545,121.386722 115.569735,121.575831 115.381687,121.894259 L113.623349,124.928318 C113.331732,125.422195 113.478022,126.049339 113.956332,126.356112 Z M116.343394,129.33251 C116.483603,129.741561 116.866895,130.01642 117.297184,130.016482 C117.297244,130.016482 117.297244,130.016482 117.297304,130.016482 C117.415625,130.016482 117.531988,129.995514 117.643083,129.954165 L120.808953,128.69445 C120.977432,128.645577 121.090634,128.527481 121.159007,128.456192 C121.434366,128.169276 121.521104,127.746873 121.386255,127.352068 C121.270824,126.945268 120.890664,126.661836 120.458869,126.661836 C120.340699,126.661836 120.224426,126.682835 120.113301,126.724184 L116.938309,127.987506 C116.422275,128.181209 116.155406,128.783932 116.343394,129.33251 Z M104.244871,131.679821 C104.285877,131.684569 104.327154,131.686974 104.367588,131.686974 C104.367588,131.686974 104.367588,131.686974 104.367618,131.686974 C104.648124,131.686974 104.904546,131.569464 105.072844,131.364198 C105.216243,131.211228 105.322671,130.98851 105.358288,130.7661 L105.359342,130.7587 C105.430846,130.199639 105.047373,129.678997 104.504574,129.598118 L101.12648,129.176826 C101.083156,129.170875 101.03926,129.167853 100.995966,129.167853 C100.503356,129.167853 100.078968,129.553686 100.008577,130.067451 C99.9370733,130.626574 100.320546,131.147216 100.863375,131.228033 L104.241018,131.679327 L104.244871,131.679821 Z M105.286001,134.040514 C105.101536,134.040514 104.918274,134.095492 104.757624,134.198541 L101.843147,136.032982 C101.364837,136.339662 101.218547,136.966806 101.510163,137.460806 C101.697218,137.777539 102.015058,137.966647 102.360385,137.966647 C102.360385,137.966647 102.360385,137.966647 102.360385,137.966647 C102.54479,137.966647 102.728081,137.911638 102.888702,137.80862 L105.79511,135.979268 C105.871432,135.937364 105.93574,135.875324 105.988608,135.820038 C106.326438,135.468031 106.385298,134.955776 106.135319,134.544906 C105.948174,134.229037 105.630786,134.040514 105.286001,134.040514 Z M108.97504,137.03899 L108.961854,137.033594 C108.850759,136.992245 108.734395,136.971277 108.616045,136.971277 C108.186629,136.971277 107.804029,137.244995 107.663128,137.652752 L106.452617,140.956828 L106.450961,140.961453 C106.263093,141.509445 106.529209,142.111551 107.044309,142.305871 C107.156006,142.351814 107.273875,142.375125 107.394815,142.375156 C107.394845,142.375156 107.394845,142.375156 107.394875,142.375156 C107.650273,142.375156 107.904978,142.271182 108.112024,142.082444 L108.122983,142.071744 C108.232271,141.95778 108.3079,141.838172 108.347852,141.716191 L109.557641,138.41418 L109.560802,138.40493 C109.739878,137.845067 109.493543,137.270588 108.97504,137.03899 Z"
                  id="cursor" fill="#FFFFFF" fill-rule="nonzero"></path>
        </g>
    </g>
</svg>