<?xml version="1.0" encoding="UTF-8"?><svg width="205" height="96" viewBox="0 0 205 96" xmlns="http://www.w3.org/2000/svg" xmlns:xlink="http://www.w3.org/1999/xlink"><svg width="20" height="20" viewBox="0 0 20 20" id="L1VzZXJzL2t1a2tvbWFoL3Byb2plY3RzL29kb2JyZW5vL3NyYy9tb2R1bGVzL2hlYWRlci9zcHJpdGUtY2FiaW5ldC5zdmc=" x="180" y="56" xmlns="http://www.w3.org/2000/svg"><title>Group</title><g fill="none" fill-rule="evenodd"><path d="M12.076 10.18c.465-.515.721-1.18.721-1.874A2.802 2.802 0 0 0 10 5.507a2.802 2.802 0 0 0-2.799 2.8c0 .692.256 1.357.722 1.873.53.586 1.287.922 2.077.922s1.547-.336 2.077-.922z" fill="#FFF" fill-rule="nonzero"/><path d="M9.999 1.029c-4.946 0-8.97 4.025-8.97 8.972 0 2.75 1.239 5.301 3.357 6.997v-2.835c0-1.53.957-2.862 2.35-3.376l.231.255A4.094 4.094 0 0 0 10 12.388c1.153 0 2.258-.49 3.031-1.346l.231-.255a3.597 3.597 0 0 1 2.35 3.376V17a8.922 8.922 0 0 0 3.36-6.998c0-4.947-4.025-8.972-8.972-8.972z"/><path d="M9.999 0C4.486 0 0 4.486 0 10.001c0 2.015.615 4.009 1.76 5.668.494.714 1.106 1.337 1.772 1.892.336.28.686.545 1.043.8.587.42 1.184.721 1.865.982A9.97 9.97 0 0 0 9.999 20c.795 0 1.588-.11 2.358-.306.39-.1.774-.221 1.151-.36.196-.072.39-.15.581-.23.45-.19.875-.408 1.287-.673l.236-.15v-.01A9.948 9.948 0 0 0 20 10C20 4.486 15.514 0 9.999 0zm5.613 17v-2.837c0-1.53-.958-2.862-2.35-3.376l-.232.255A4.094 4.094 0 0 1 10 12.388a4.094 4.094 0 0 1-3.031-1.346l-.232-.255a3.597 3.597 0 0 0-2.35 3.376v2.835a8.93 8.93 0 0 1-3.357-6.997c0-4.947 4.024-8.972 8.97-8.972 4.947 0 8.972 4.025 8.972 8.972A8.922 8.922 0 0 1 15.61 17z" fill="#FFF" fill-rule="nonzero"/></g></svg><svg width="156" height="40" viewBox="0 0 156 40" id="L1VzZXJzL2t1a2tvbWFoL3Byb2plY3RzL29kb2JyZW5vL3NyYy9tb2R1bGVzL2hlYWRlci9zcHJpdGUtbG9nby13aGl0ZS5zdmc=" y="56" xmlns="http://www.w3.org/2000/svg"><title>Group 18 Copy 18</title><g fill="#FFF" fill-rule="evenodd"><path d="M46.215 25.594c0 .635.117 1.221.35 1.758.233.536.548 1.002.946 1.398A4.332 4.332 0 0 0 50.575 30a4.382 4.382 0 0 0 3.074-1.25 4.365 4.365 0 0 0 1.306-3.156c0-.635-.117-1.221-.35-1.758a4.364 4.364 0 0 0-4.03-2.647 4.332 4.332 0 0 0-3.064 1.25 4.449 4.449 0 0 0-.946 1.397 4.365 4.365 0 0 0-.35 1.758zm-4.215 0c0-1.186.212-2.29.637-3.315a8.286 8.286 0 0 1 1.769-2.679 8.058 8.058 0 0 1 2.704-1.79c1.049-.43 2.203-.645 3.465-.645 1.247 0 2.399.215 3.454.646a8.146 8.146 0 0 1 2.725 1.79 8.204 8.204 0 0 1 1.778 2.678c.425 1.024.638 2.129.638 3.315s-.213 2.29-.638 3.314a8.204 8.204 0 0 1-1.778 2.68 8.146 8.146 0 0 1-2.725 1.79c-1.055.43-2.207.645-3.454.645-1.262 0-2.416-.215-3.465-.646a8.058 8.058 0 0 1-2.704-1.79 8.286 8.286 0 0 1-1.769-2.679C42.212 27.885 42 26.78 42 25.594zm26.814.318h-2.817v3.261c0 .282-.007.508-.02.678-.015.17-.035.346-.062.53h2.899v-4.47zm-7.526 4.468c.37 0 .624-.127.76-.38.138-.255.206-.65.206-1.187v-6.1h10.282v7.667h1.254v5.422h-3.722v-2.224h-5.572v2.224h-3.722V30.38h.514zm17.746-2.287c0 .367.065.702.195 1.006.13.304.301.568.514.794.212.226.466.403.76.53.296.127.607.19.936.19a2.338 2.338 0 0 0 1.697-.72c.212-.226.384-.49.514-.794.13-.304.195-.632.195-.985 0-.339-.065-.66-.195-.963a2.702 2.702 0 0 0-.514-.795 2.338 2.338 0 0 0-1.696-.72 2.338 2.338 0 0 0-1.697.72 2.743 2.743 0 0 0-.514.784c-.13.296-.195.614-.195.953zm-3.928-.042c0-.805.158-1.557.473-2.256a5.531 5.531 0 0 1 1.316-1.821 6.221 6.221 0 0 1 2.005-1.218c.774-.297 1.62-.445 2.54-.445a7.14 7.14 0 0 1 2.518.434c.775.29 1.447.692 2.015 1.208a5.407 5.407 0 0 1 1.327 1.842c.315.713.473 1.5.473 2.362 0 .86-.161 1.648-.483 2.361a5.597 5.597 0 0 1-1.327 1.842 5.9 5.9 0 0 1-2.025 1.197 7.537 7.537 0 0 1-2.56.424 7.213 7.213 0 0 1-2.509-.424 5.757 5.757 0 0 1-1.984-1.207 5.6 5.6 0 0 1-1.306-1.874c-.315-.728-.473-1.536-.473-2.425zm20.316-2.415a2.338 2.338 0 0 0-1.696.72 2.743 2.743 0 0 0-.514.784c-.13.296-.196.621-.196.974 0 .339.062.66.185.964.124.303.292.568.504.794.213.226.466.406.76.54.296.134.614.201.957.201.33 0 .64-.067.936-.2.294-.135.551-.315.77-.541.22-.226.391-.49.515-.794.123-.304.185-.625.185-.964a2.535 2.535 0 0 0-.7-1.758 2.372 2.372 0 0 0-1.706-.72zm4.154-5.866a6.275 6.275 0 0 1-.525.455c-.157.12-.346.23-.565.328a9.76 9.76 0 0 1-.823.318c-.329.113-.76.254-1.295.424-.466.155-.843.282-1.131.38-.288.1-.52.191-.7.276a1.787 1.787 0 0 0-.42.265 2.278 2.278 0 0 0-.299.328l-.123.17c.315-.127.634-.226.956-.297.322-.07.689-.106 1.1-.106.836 0 1.621.148 2.355.445a6.037 6.037 0 0 1 1.922 1.228 5.574 5.574 0 0 1 1.285 1.864c.309.72.463 1.51.463 2.372 0 .833-.154 1.603-.463 2.309a5.27 5.27 0 0 1-1.305 1.82c-.562.51-1.248.908-2.057 1.198-.809.289-1.713.434-2.714.434-.918 0-1.755-.134-2.509-.403a4.952 4.952 0 0 1-1.943-1.25c-.541-.564-.96-1.288-1.254-2.17-.295-.883-.442-1.938-.442-3.166 0-1.977.384-3.66 1.151-5.051a6.836 6.836 0 0 1 3.331-3.04 3.73 3.73 0 0 1 .792-.285c.13-.036.295-.085.494-.149.198-.063.49-.159.874-.286.603-.197 1.11-.374 1.521-.53.411-.154.761-.313 1.049-.476.288-.162.528-.335.72-.518a4.4 4.4 0 0 0 .555-.657v3.77zm12.317 8.408c0-.34-.058-.66-.175-.964a2.32 2.32 0 0 0-.504-.794 2.517 2.517 0 0 0-.77-.54 2.28 2.28 0 0 0-.957-.201 2.287 2.287 0 0 0-1.676.72c-.212.226-.384.49-.514.794-.13.303-.195.625-.195.964 0 .338.061.656.185.953.123.296.295.554.514.773.22.218.476.395.771.53.295.133.607.2.936.2a2.287 2.287 0 0 0 1.676-.72c.212-.226.383-.487.514-.783.13-.297.195-.608.195-.932zM107.205 39h-3.722V22.714h3.722v1.207c.795-1.03 1.878-1.546 3.248-1.546.754 0 1.457.152 2.108.455a5.347 5.347 0 0 1 1.697 1.24c.48.521.853 1.136 1.12 1.842.268.706.401 1.46.401 2.266 0 .805-.133 1.553-.4 2.245a5.799 5.799 0 0 1-1.111 1.821 5.13 5.13 0 0 1-1.676 1.228 4.956 4.956 0 0 1-2.097.445c-1.316 0-2.413-.466-3.29-1.398V39zm17.992-12.432c-.123-.536-.377-.967-.76-1.292-.385-.324-.85-.487-1.4-.487-.575 0-1.044.155-1.408.466-.363.31-.593.748-.689 1.313h4.257zm-4.36 2.224c0 1.652.755 2.478 2.263 2.478.808 0 1.418-.34 1.83-1.017h3.598c-.726 2.485-2.543 3.728-5.449 3.728-.891 0-1.707-.138-2.447-.413a5.434 5.434 0 0 1-1.902-1.176 5.245 5.245 0 0 1-1.224-1.821c-.287-.706-.431-1.497-.431-2.372 0-.904.137-1.72.41-2.446a5.162 5.162 0 0 1 1.173-1.853c.507-.509 1.12-.9 1.84-1.176.72-.275 1.532-.413 2.437-.413.891 0 1.693.138 2.406.413a4.856 4.856 0 0 1 1.81 1.197c.493.522.87 1.161 1.13 1.916.26.756.391 1.607.391 2.553v.402h-7.834zm17.047-2.33v-3.748h3.722v10.864h-3.722v-3.96h-3.783v3.96h-3.722V22.714h3.722v3.748h3.783zm9.377 1.631c0 .367.065.702.195 1.006.13.304.302.568.514.794a2.338 2.338 0 0 0 1.696.72 2.338 2.338 0 0 0 1.697-.72c.213-.226.384-.49.514-.794.13-.304.196-.632.196-.985 0-.339-.066-.66-.196-.963a2.702 2.702 0 0 0-.514-.795 2.338 2.338 0 0 0-1.696-.72 2.338 2.338 0 0 0-1.697.72 2.743 2.743 0 0 0-.514.784c-.13.296-.195.614-.195.953zm-3.928-.042c0-.805.158-1.557.473-2.256a5.531 5.531 0 0 1 1.316-1.821 6.221 6.221 0 0 1 2.005-1.218c.775-.297 1.621-.445 2.54-.445a7.14 7.14 0 0 1 2.519.434c.774.29 1.446.692 2.015 1.208a5.407 5.407 0 0 1 1.326 1.842c.315.713.473 1.5.473 2.362 0 .86-.161 1.648-.483 2.361a5.597 5.597 0 0 1-1.327 1.842 5.9 5.9 0 0 1-2.025 1.197 7.537 7.537 0 0 1-2.56.424 7.213 7.213 0 0 1-2.509-.424 5.757 5.757 0 0 1-1.984-1.207 5.6 5.6 0 0 1-1.306-1.874c-.315-.728-.473-1.536-.473-2.425z"/><g fill-rule="nonzero"><path d="M27.692 20.213l-3.069-3.116-7.892 8.014-3.508-3.562-3.07 3.116 6.578 6.679z"/><path d="M30.653 15.358l-12.648-9.53-12.672 9.55v20.017h25.32V15.358zm3.785-1.34h.711v25.198h-.699v.676H1.126v-.676h-.29V14.018h.737l-.691-.917L17.924.259l.081.108.082-.108L35.129 13.1l-.691.917z"/></g></g></svg><svg width="205" height="56" viewBox="0 0 205 56" id="L1VzZXJzL2t1a2tvbWFoL3Byb2plY3RzL29kb2JyZW5vL3NyYy9tb2R1bGVzL2hlYWRlci9zcHJpdGUtdnRiLnN2Zw==" xmlns="http://www.w3.org/2000/svg"><title>VTB24_Logo (1)</title><g fill-rule="nonzero" fill="#FFF"><path d="M59.595 19H59v37h15.29C81.404 56 86 51.843 86 45.41c0-3.217-1.057-5.52-3.426-7.464-.864-.714-1.826-1.211-2.828-1.609.771-.372 1.508-.81 2.159-1.381 1.749-1.59 2.669-3.807 2.669-6.419 0-2.698-1.027-4.93-3.14-6.824C78.86 19.453 75.907 19 71.975 19H59.595zm11.533 7.283c.64 0 1.83 0 2.823.416 1.075.447 1.743 1.623 1.743 3.076 0 .988-.343 1.963-.895 2.544-.856.927-1.858 1.001-2.986 1.001h-4.352v-7.037h3.667zM72.18 40.42c1.108 0 2.252.112 3.118.918.722.665 1.187 1.918 1.187 3.193 0 1.067-.326 2.13-.894 2.917-.939 1.26-1.96 1.506-3.41 1.506h-4.615V40.42h4.614zM115.176 19H86v7.093l10.304.02V56h8.285V26.104c1.007-.003 9.024 0 9.024 0L116 19h-.824zM143.754 19H119v37h14.159c3.206 0 6.216-.788 8.254-2.164 2.091-1.398 4.587-4.172 4.587-9.45 0-4.95-2.42-7.609-3.861-8.754-1.54-1.213-4.4-2.659-9.294-2.659h-5.33v-6.858h14.326L144.347 19h-.593zm-11.967 21.016c1.198 0 2.335.287 3.034.77 1.112.76 1.651 1.936 1.651 3.6 0 1.75-.527 2.598-.925 3.084-.753.93-1.897 1.38-3.498 1.38h-4.535v-8.834h4.273zM151.655 19.364l-.27.134-.005 7.76 1.04-.486c.75-.432 4.778-2.651 8.416-2.833 1.5-.076 2.847.356 3.789 1.216.77.701 1.193 1.64 1.193 2.645 0 3.329-2.398 5.006-5.294 6.705C153.41 38.606 149 42.882 149 51.512l.01 2.488 23.658-.004v-6.998h-14.653l.087-.338c.598-2.305 2.111-4.057 5.063-5.859l3.68-2.184c4.326-2.547 7.068-6.763 7.155-11.005v-.252c0-2.826-.981-5.28-2.838-7.1-2.173-2.134-5.344-3.26-9.173-3.26-3.336 0-7.391.928-10.334 2.364zM189.702 19c-.16.25-14.616 23.155-14.702 23.29v6.498h16.305V56h6.825v-7.212h4.496L205 41.67h-6.87v-7.288h-6.826v7.288h-8.055c.582-1.004 12.275-19.59 14.223-22.671h-7.77zM34.701 18.496H6.258s.858 2.72 1.853 4.111h25.306s4.83 3.743 7.14 10.287h-26.6a30.24 30.24 0 0 1-9.832-14.398c.229-.697.483-1.382.761-2.054h29.802c2.324-1.597 4.633-4.112 4.633-4.112H6.971a30.01 30.01 0 0 1 1.37-2.053h32.672c.862-1.034 2.595-4.111 2.595-4.111H11.944a30.36 30.36 0 0 1 2.393-2.054H44.58C45.409 2.149 46 0 46 0H13.15C6.871 4.418 2.14 10.891 0 18.496 2.12 26.016 6.81 32.54 13.134 37h32.78s-.576-9.84-11.213-18.504z"/></g></svg><svg width="24" height="20" viewBox="0 0 24 20" id="L1VzZXJzL2t1a2tvbWFoL3Byb2plY3RzL29kb2JyZW5vL3NyYy9tb2R1bGVzL2xhc3Qvc3ByaXRlLWNoZWNrLnN2Zw==" x="156" y="56" xmlns="http://www.w3.org/2000/svg"><title>Shape Copy</title><path d="M24 4.375L19.8 0 9 11.25l-4.8-5L0 10.625 9 20z" fill-rule="nonzero" fill="#4CAF50"/></svg></svg>