<svg width="305" height="251" viewBox="0 0 305 251" xmlns="http://www.w3.org/2000/svg" xmlns:xlink="http://www.w3.org/1999/xlink"><svg data-name="Слой 1" viewBox="0 0 20 16" width="20" height="16" id="L1VzZXJzL2t1a2tvbWFoL3Byb2plY3RzL29kb2JyZW5vL3NyYy9tb2R1bGVzL21lbnUvc3ByaXRlLW1lbnUtYmxhY2suc3Zn" x="176" y="116" xmlns="http://www.w3.org/2000/svg"><title>sprite-menu1</title><path d="M0 0h20v2.5H0zm0 6.75h20v2.5H0zm0 6.75h20V16H0z"/></svg><svg data-name="Слой 1" viewBox="0 0 20 16" width="20" height="16" id="L1VzZXJzL2t1a2tvbWFoL3Byb2plY3RzL29kb2JyZW5vL3NyYy9tb2R1bGVzL21lbnUvc3ByaXRlLW1lbnUuc3Zn" x="176" y="96" xmlns="http://www.w3.org/2000/svg"><title>sprite-menu1</title><path fill="#fff" d="M0 0h20v2.5H0zm0 6.75h20v2.5H0zm0 6.75h20V16H0z"/></svg><svg width="26" height="26" viewBox="0 0 26 26" id="L1VzZXJzL2t1a2tvbWFoL3Byb2plY3RzL29kb2JyZW5vL3NyYy9tb2R1bGVzL21lbnUvc3ByaXRlLWNhYmluZXQtYmx1ZS5zdmc=" x="156" y="56" xmlns="http://www.w3.org/2000/svg"><title>cabinet-blue</title><g fill="none" fill-rule="evenodd"><path d="M15.7 13.233a3.63 3.63 0 0 0 .937-2.435 3.643 3.643 0 0 0-3.639-3.638 3.643 3.643 0 0 0-3.638 3.638c0 .9.333 1.766.938 2.436a3.646 3.646 0 0 0 2.7 1.199 3.647 3.647 0 0 0 2.701-1.2z" fill="#227EBA" fill-rule="nonzero"/><path d="M12.998 1.338c-6.43 0-11.66 5.232-11.66 11.664 0 3.574 1.61 6.89 4.364 9.096v-3.686a4.676 4.676 0 0 1 3.055-4.39l.3.333a5.322 5.322 0 0 0 3.941 1.75 5.322 5.322 0 0 0 3.941-1.75l.3-.332a4.676 4.676 0 0 1 3.056 4.39v3.686a11.6 11.6 0 0 0 4.367-9.097c0-6.432-5.232-11.664-11.664-11.664z"/><path d="M12.998 0C5.831 0 0 5.832 0 13.002c0 2.62.8 5.211 2.288 7.367.642.93 1.438 1.739 2.303 2.46.438.365.893.709 1.356 1.04.764.546 1.54.938 2.424 1.276a12.962 12.962 0 0 0 4.627.855 12.44 12.44 0 0 0 3.066-.398 15.63 15.63 0 0 0 2.252-.768 10.99 10.99 0 0 0 1.673-.873l.306-.196v-.014A12.932 12.932 0 0 0 26 13.001C26 5.833 20.168 0 12.998 0zm7.297 22.1v-3.688a4.676 4.676 0 0 0-3.055-4.39l-.3.333a5.322 5.322 0 0 1-3.941 1.75 5.322 5.322 0 0 1-3.941-1.75l-.3-.332a4.676 4.676 0 0 0-3.056 4.39v3.684a11.61 11.61 0 0 1-4.364-9.095c0-6.432 5.23-11.664 11.66-11.664C19.43 1.338 24.662 6.57 24.662 13c0 3.58-1.612 6.897-4.367 9.098z" fill="#227EBA" fill-rule="nonzero"/></g></svg><svg width="20" height="20" viewBox="0 0 20 20" id="L1VzZXJzL2t1a2tvbWFoL3Byb2plY3RzL29kb2JyZW5vL3NyYy9tb2R1bGVzL21lbnUvc3ByaXRlLWNhYmluZXQuc3Zn" x="153" y="136" xmlns="http://www.w3.org/2000/svg"><title>Group</title><g fill="none" fill-rule="evenodd"><path d="M12.076 10.18a2.79 2.79 0 0 0 .721-1.874A2.802 2.802 0 0 0 10 5.507a2.802 2.802 0 0 0-2.799 2.8c0 .692.256 1.357.722 1.873.53.586 1.287.922 2.077.922s1.547-.336 2.077-.922z" fill="#FFF" fill-rule="nonzero"/><path d="M9.999 1.029c-4.946 0-8.97 4.025-8.97 8.972a8.93 8.93 0 0 0 3.357 6.997v-2.835c0-1.53.957-2.862 2.35-3.376l.231.255A4.094 4.094 0 0 0 10 12.388a4.09 4.09 0 0 0 3.031-1.346l.231-.255a3.597 3.597 0 0 1 2.35 3.376V17a8.922 8.922 0 0 0 3.36-6.998c0-4.947-4.025-8.972-8.972-8.972z"/><path d="M9.999 0C4.486 0 0 4.486 0 10.001c0 2.015.615 4.009 1.76 5.668.494.714 1.106 1.337 1.772 1.892.336.28.686.545 1.043.8.587.42 1.184.721 1.865.982A9.97 9.97 0 0 0 9.999 20c.795 0 1.588-.11 2.358-.306a11.803 11.803 0 0 0 1.732-.59c.45-.19.875-.408 1.287-.673l.236-.15v-.01A9.948 9.948 0 0 0 20 10C20 4.486 15.514 0 9.999 0zm5.613 17v-2.837c0-1.53-.958-2.862-2.35-3.376l-.232.255A4.094 4.094 0 0 1 10 12.388a4.094 4.094 0 0 1-3.031-1.346l-.232-.255a3.597 3.597 0 0 0-2.35 3.376v2.835a8.93 8.93 0 0 1-3.357-6.997c0-4.947 4.024-8.972 8.97-8.972 4.947 0 8.972 4.025 8.972 8.972A8.922 8.922 0 0 1 15.61 17z" fill="#FFF" fill-rule="nonzero"/></g></svg><svg width="156" height="40" viewBox="0 0 156 40" id="L1VzZXJzL2t1a2tvbWFoL3Byb2plY3RzL29kb2JyZW5vL3NyYy9tb2R1bGVzL21lbnUvc3ByaXRlLWxvZ28tY29sb3Iuc3Zn" y="56" xmlns="http://www.w3.org/2000/svg"><title>Group 18 Copy 18</title><g fill="none" fill-rule="evenodd"><path d="M46.215 25.594c0 .635.117 1.221.35 1.758.233.536.548 1.002.946 1.398A4.332 4.332 0 0 0 50.575 30a4.382 4.382 0 0 0 3.074-1.25 4.365 4.365 0 0 0 1.306-3.156 4.37 4.37 0 0 0-.35-1.758 4.364 4.364 0 0 0-4.03-2.647 4.332 4.332 0 0 0-3.064 1.25 4.449 4.449 0 0 0-.946 1.397 4.365 4.365 0 0 0-.35 1.758zm-4.215 0c0-1.186.212-2.29.637-3.315a8.286 8.286 0 0 1 1.769-2.679 8.058 8.058 0 0 1 2.704-1.79c1.049-.43 2.203-.645 3.465-.645 1.247 0 2.399.215 3.454.646a8.146 8.146 0 0 1 2.725 1.79 8.204 8.204 0 0 1 1.778 2.678c.425 1.024.638 2.129.638 3.315s-.213 2.29-.638 3.314a8.204 8.204 0 0 1-1.778 2.68 8.146 8.146 0 0 1-2.725 1.79c-1.055.43-2.207.645-3.454.645-1.262 0-2.416-.215-3.465-.646a8.058 8.058 0 0 1-2.704-1.79 8.286 8.286 0 0 1-1.769-2.679C42.212 27.885 42 26.78 42 25.594zm26.814.318h-2.817v3.261c0 .282-.007.508-.02.678a9.22 9.22 0 0 1-.062.53h2.899v-4.47zm-7.526 4.468c.37 0 .624-.127.76-.38.138-.255.206-.65.206-1.187v-6.1h10.282v7.667h1.254v5.422h-3.722v-2.224h-5.572v2.224h-3.722V30.38h.514zm17.746-2.287c0 .367.065.702.195 1.006.13.304.301.568.514.794.212.226.466.403.76.53.296.127.607.19.936.19a2.338 2.338 0 0 0 1.697-.72c.212-.226.384-.49.514-.794.13-.304.195-.632.195-.985 0-.339-.065-.66-.195-.963a2.702 2.702 0 0 0-.514-.795 2.338 2.338 0 0 0-1.696-.72 2.338 2.338 0 0 0-1.697.72 2.743 2.743 0 0 0-.514.784c-.13.296-.195.614-.195.953zm-3.928-.042c0-.805.158-1.557.473-2.256a5.531 5.531 0 0 1 1.316-1.821 6.221 6.221 0 0 1 2.005-1.218c.774-.297 1.62-.445 2.54-.445a7.14 7.14 0 0 1 2.518.434c.775.29 1.447.692 2.015 1.208a5.407 5.407 0 0 1 1.327 1.842c.315.713.473 1.5.473 2.362 0 .86-.161 1.648-.483 2.361a5.597 5.597 0 0 1-1.327 1.842 5.9 5.9 0 0 1-2.025 1.197 7.537 7.537 0 0 1-2.56.424 7.213 7.213 0 0 1-2.509-.424 5.757 5.757 0 0 1-1.984-1.207 5.6 5.6 0 0 1-1.306-1.874c-.315-.728-.473-1.536-.473-2.425zm20.316-2.415a2.338 2.338 0 0 0-1.696.72 2.743 2.743 0 0 0-.514.784c-.13.296-.196.621-.196.974a2.572 2.572 0 0 0 .689 1.758 2.4 2.4 0 0 0 .76.54c.296.134.614.201.957.201.33 0 .64-.067.936-.2.294-.135.551-.315.77-.541.22-.226.391-.49.515-.794.123-.304.185-.625.185-.964a2.535 2.535 0 0 0-.7-1.758 2.372 2.372 0 0 0-1.706-.72zm4.154-5.866a6.275 6.275 0 0 1-.525.455 2.84 2.84 0 0 1-.565.328 9.76 9.76 0 0 1-.823.318c-.329.113-.76.254-1.295.424-.466.155-.843.282-1.131.38-.288.1-.52.191-.7.276a1.787 1.787 0 0 0-.42.265 2.278 2.278 0 0 0-.299.328l-.123.17c.315-.127.634-.226.956-.297.322-.07.689-.106 1.1-.106.836 0 1.621.148 2.355.445a6.037 6.037 0 0 1 1.922 1.228 5.574 5.574 0 0 1 1.285 1.864c.309.72.463 1.51.463 2.372 0 .833-.154 1.603-.463 2.309a5.27 5.27 0 0 1-1.305 1.82c-.562.51-1.248.908-2.057 1.198-.809.289-1.713.434-2.714.434-.918 0-1.755-.134-2.509-.403a4.952 4.952 0 0 1-1.943-1.25c-.541-.564-.96-1.288-1.254-2.17-.295-.883-.442-1.938-.442-3.166 0-1.977.384-3.66 1.151-5.051a6.836 6.836 0 0 1 3.331-3.04 3.73 3.73 0 0 1 .792-.285c.13-.036.295-.085.494-.149.198-.063.49-.159.874-.286.603-.197 1.11-.374 1.521-.53a7.468 7.468 0 0 0 1.049-.476 3.59 3.59 0 0 0 .72-.518 4.4 4.4 0 0 0 .555-.657v3.77zm12.317 8.408c0-.34-.058-.66-.175-.964a2.32 2.32 0 0 0-.504-.794 2.517 2.517 0 0 0-.77-.54 2.28 2.28 0 0 0-.957-.201 2.287 2.287 0 0 0-1.676.72c-.212.226-.384.49-.514.794-.13.303-.195.625-.195.964 0 .338.061.656.185.953.123.296.295.554.514.773.22.218.476.395.771.53.295.133.607.2.936.2a2.287 2.287 0 0 0 1.676-.72c.212-.226.383-.487.514-.783.13-.297.195-.608.195-.932zM107.205 39h-3.722V22.714h3.722v1.207c.795-1.03 1.878-1.546 3.248-1.546.754 0 1.457.152 2.108.455a5.347 5.347 0 0 1 1.697 1.24 5.62 5.62 0 0 1 1.12 1.842c.268.706.401 1.46.401 2.266 0 .805-.133 1.553-.4 2.245a5.799 5.799 0 0 1-1.111 1.821 5.13 5.13 0 0 1-1.676 1.228 4.956 4.956 0 0 1-2.097.445c-1.316 0-2.413-.466-3.29-1.398V39zm17.992-12.432c-.123-.536-.377-.967-.76-1.292-.385-.324-.85-.487-1.4-.487-.575 0-1.044.155-1.408.466-.363.31-.593.748-.689 1.313h4.257zm-4.36 2.224c0 1.652.755 2.478 2.263 2.478.808 0 1.418-.34 1.83-1.017h3.598c-.726 2.485-2.543 3.728-5.449 3.728-.891 0-1.707-.138-2.447-.413a5.434 5.434 0 0 1-1.902-1.176 5.245 5.245 0 0 1-1.224-1.821c-.287-.706-.431-1.497-.431-2.372 0-.904.137-1.72.41-2.446a5.162 5.162 0 0 1 1.173-1.853c.507-.509 1.12-.9 1.84-1.176.72-.275 1.532-.413 2.437-.413.891 0 1.693.138 2.406.413a4.856 4.856 0 0 1 1.81 1.197c.493.522.87 1.161 1.13 1.916.26.756.391 1.607.391 2.553v.402h-7.834zm17.047-2.33v-3.748h3.722v10.864h-3.722v-3.96h-3.783v3.96h-3.722V22.714h3.722v3.748h3.783zm9.377 1.631c0 .367.065.702.195 1.006.13.304.302.568.514.794a2.338 2.338 0 0 0 1.696.72 2.338 2.338 0 0 0 1.697-.72c.213-.226.384-.49.514-.794.13-.304.196-.632.196-.985 0-.339-.066-.66-.196-.963a2.702 2.702 0 0 0-.514-.795 2.338 2.338 0 0 0-1.696-.72 2.338 2.338 0 0 0-1.697.72 2.743 2.743 0 0 0-.514.784c-.13.296-.195.614-.195.953zm-3.928-.042c0-.805.158-1.557.473-2.256a5.531 5.531 0 0 1 1.316-1.821 6.221 6.221 0 0 1 2.005-1.218c.775-.297 1.621-.445 2.54-.445a7.14 7.14 0 0 1 2.519.434c.774.29 1.446.692 2.015 1.208a5.407 5.407 0 0 1 1.326 1.842c.315.713.473 1.5.473 2.362 0 .86-.161 1.648-.483 2.361a5.597 5.597 0 0 1-1.327 1.842 5.9 5.9 0 0 1-2.025 1.197 7.537 7.537 0 0 1-2.56.424 7.213 7.213 0 0 1-2.509-.424 5.757 5.757 0 0 1-1.984-1.207 5.6 5.6 0 0 1-1.306-1.874c-.315-.728-.473-1.536-.473-2.425z" fill="#227EBA"/><g fill-rule="nonzero"><path fill="#36AF47" d="M27.692 20.213l-3.069-3.116-7.892 8.014-3.508-3.562-3.07 3.116 6.578 6.679z"/><path d="M30.653 15.358l-12.648-9.53-12.672 9.55v20.017h25.32V15.358zm3.785-1.34h.711v25.198h-.699v.676H1.126v-.676h-.29V14.018h.737l-.691-.917L17.924.259l.081.108.082-.108L35.129 13.1l-.691.917z" fill="#227EBA"/></g></g></svg><svg width="156" height="40" viewBox="0 0 156 40" id="L1VzZXJzL2t1a2tvbWFoL3Byb2plY3RzL29kb2JyZW5vL3NyYy9tb2R1bGVzL21lbnUvc3ByaXRlLWxvZ28td2hpdGUuc3Zn" y="96" xmlns="http://www.w3.org/2000/svg"><title>Group 18 Copy 18</title><g fill="#FFF" fill-rule="evenodd"><path d="M46.215 25.594c0 .635.117 1.221.35 1.758.233.536.548 1.002.946 1.398A4.332 4.332 0 0 0 50.575 30a4.382 4.382 0 0 0 3.074-1.25 4.365 4.365 0 0 0 1.306-3.156 4.37 4.37 0 0 0-.35-1.758 4.364 4.364 0 0 0-4.03-2.647 4.332 4.332 0 0 0-3.064 1.25 4.449 4.449 0 0 0-.946 1.397 4.365 4.365 0 0 0-.35 1.758zm-4.215 0c0-1.186.212-2.29.637-3.315a8.286 8.286 0 0 1 1.769-2.679 8.058 8.058 0 0 1 2.704-1.79c1.049-.43 2.203-.645 3.465-.645 1.247 0 2.399.215 3.454.646a8.146 8.146 0 0 1 2.725 1.79 8.204 8.204 0 0 1 1.778 2.678c.425 1.024.638 2.129.638 3.315s-.213 2.29-.638 3.314a8.204 8.204 0 0 1-1.778 2.68 8.146 8.146 0 0 1-2.725 1.79c-1.055.43-2.207.645-3.454.645-1.262 0-2.416-.215-3.465-.646a8.058 8.058 0 0 1-2.704-1.79 8.286 8.286 0 0 1-1.769-2.679C42.212 27.885 42 26.78 42 25.594zm26.814.318h-2.817v3.261c0 .282-.007.508-.02.678a9.22 9.22 0 0 1-.062.53h2.899v-4.47zm-7.526 4.468c.37 0 .624-.127.76-.38.138-.255.206-.65.206-1.187v-6.1h10.282v7.667h1.254v5.422h-3.722v-2.224h-5.572v2.224h-3.722V30.38h.514zm17.746-2.287c0 .367.065.702.195 1.006.13.304.301.568.514.794.212.226.466.403.76.53.296.127.607.19.936.19a2.338 2.338 0 0 0 1.697-.72c.212-.226.384-.49.514-.794.13-.304.195-.632.195-.985 0-.339-.065-.66-.195-.963a2.702 2.702 0 0 0-.514-.795 2.338 2.338 0 0 0-1.696-.72 2.338 2.338 0 0 0-1.697.72 2.743 2.743 0 0 0-.514.784c-.13.296-.195.614-.195.953zm-3.928-.042c0-.805.158-1.557.473-2.256a5.531 5.531 0 0 1 1.316-1.821 6.221 6.221 0 0 1 2.005-1.218c.774-.297 1.62-.445 2.54-.445a7.14 7.14 0 0 1 2.518.434c.775.29 1.447.692 2.015 1.208a5.407 5.407 0 0 1 1.327 1.842c.315.713.473 1.5.473 2.362 0 .86-.161 1.648-.483 2.361a5.597 5.597 0 0 1-1.327 1.842 5.9 5.9 0 0 1-2.025 1.197 7.537 7.537 0 0 1-2.56.424 7.213 7.213 0 0 1-2.509-.424 5.757 5.757 0 0 1-1.984-1.207 5.6 5.6 0 0 1-1.306-1.874c-.315-.728-.473-1.536-.473-2.425zm20.316-2.415a2.338 2.338 0 0 0-1.696.72 2.743 2.743 0 0 0-.514.784c-.13.296-.196.621-.196.974a2.572 2.572 0 0 0 .689 1.758 2.4 2.4 0 0 0 .76.54c.296.134.614.201.957.201.33 0 .64-.067.936-.2.294-.135.551-.315.77-.541.22-.226.391-.49.515-.794.123-.304.185-.625.185-.964a2.535 2.535 0 0 0-.7-1.758 2.372 2.372 0 0 0-1.706-.72zm4.154-5.866a6.275 6.275 0 0 1-.525.455 2.84 2.84 0 0 1-.565.328 9.76 9.76 0 0 1-.823.318c-.329.113-.76.254-1.295.424-.466.155-.843.282-1.131.38-.288.1-.52.191-.7.276a1.787 1.787 0 0 0-.42.265 2.278 2.278 0 0 0-.299.328l-.123.17c.315-.127.634-.226.956-.297.322-.07.689-.106 1.1-.106.836 0 1.621.148 2.355.445a6.037 6.037 0 0 1 1.922 1.228 5.574 5.574 0 0 1 1.285 1.864c.309.72.463 1.51.463 2.372 0 .833-.154 1.603-.463 2.309a5.27 5.27 0 0 1-1.305 1.82c-.562.51-1.248.908-2.057 1.198-.809.289-1.713.434-2.714.434-.918 0-1.755-.134-2.509-.403a4.952 4.952 0 0 1-1.943-1.25c-.541-.564-.96-1.288-1.254-2.17-.295-.883-.442-1.938-.442-3.166 0-1.977.384-3.66 1.151-5.051a6.836 6.836 0 0 1 3.331-3.04 3.73 3.73 0 0 1 .792-.285c.13-.036.295-.085.494-.149.198-.063.49-.159.874-.286.603-.197 1.11-.374 1.521-.53a7.468 7.468 0 0 0 1.049-.476 3.59 3.59 0 0 0 .72-.518 4.4 4.4 0 0 0 .555-.657v3.77zm12.317 8.408c0-.34-.058-.66-.175-.964a2.32 2.32 0 0 0-.504-.794 2.517 2.517 0 0 0-.77-.54 2.28 2.28 0 0 0-.957-.201 2.287 2.287 0 0 0-1.676.72c-.212.226-.384.49-.514.794-.13.303-.195.625-.195.964 0 .338.061.656.185.953.123.296.295.554.514.773.22.218.476.395.771.53.295.133.607.2.936.2a2.287 2.287 0 0 0 1.676-.72c.212-.226.383-.487.514-.783.13-.297.195-.608.195-.932zM107.205 39h-3.722V22.714h3.722v1.207c.795-1.03 1.878-1.546 3.248-1.546.754 0 1.457.152 2.108.455a5.347 5.347 0 0 1 1.697 1.24 5.62 5.62 0 0 1 1.12 1.842c.268.706.401 1.46.401 2.266 0 .805-.133 1.553-.4 2.245a5.799 5.799 0 0 1-1.111 1.821 5.13 5.13 0 0 1-1.676 1.228 4.956 4.956 0 0 1-2.097.445c-1.316 0-2.413-.466-3.29-1.398V39zm17.992-12.432c-.123-.536-.377-.967-.76-1.292-.385-.324-.85-.487-1.4-.487-.575 0-1.044.155-1.408.466-.363.31-.593.748-.689 1.313h4.257zm-4.36 2.224c0 1.652.755 2.478 2.263 2.478.808 0 1.418-.34 1.83-1.017h3.598c-.726 2.485-2.543 3.728-5.449 3.728-.891 0-1.707-.138-2.447-.413a5.434 5.434 0 0 1-1.902-1.176 5.245 5.245 0 0 1-1.224-1.821c-.287-.706-.431-1.497-.431-2.372 0-.904.137-1.72.41-2.446a5.162 5.162 0 0 1 1.173-1.853c.507-.509 1.12-.9 1.84-1.176.72-.275 1.532-.413 2.437-.413.891 0 1.693.138 2.406.413a4.856 4.856 0 0 1 1.81 1.197c.493.522.87 1.161 1.13 1.916.26.756.391 1.607.391 2.553v.402h-7.834zm17.047-2.33v-3.748h3.722v10.864h-3.722v-3.96h-3.783v3.96h-3.722V22.714h3.722v3.748h3.783zm9.377 1.631c0 .367.065.702.195 1.006.13.304.302.568.514.794a2.338 2.338 0 0 0 1.696.72 2.338 2.338 0 0 0 1.697-.72c.213-.226.384-.49.514-.794.13-.304.196-.632.196-.985 0-.339-.066-.66-.196-.963a2.702 2.702 0 0 0-.514-.795 2.338 2.338 0 0 0-1.696-.72 2.338 2.338 0 0 0-1.697.72 2.743 2.743 0 0 0-.514.784c-.13.296-.195.614-.195.953zm-3.928-.042c0-.805.158-1.557.473-2.256a5.531 5.531 0 0 1 1.316-1.821 6.221 6.221 0 0 1 2.005-1.218c.775-.297 1.621-.445 2.54-.445a7.14 7.14 0 0 1 2.519.434c.774.29 1.446.692 2.015 1.208a5.407 5.407 0 0 1 1.326 1.842c.315.713.473 1.5.473 2.362 0 .86-.161 1.648-.483 2.361a5.597 5.597 0 0 1-1.327 1.842 5.9 5.9 0 0 1-2.025 1.197 7.537 7.537 0 0 1-2.56.424 7.213 7.213 0 0 1-2.509-.424 5.757 5.757 0 0 1-1.984-1.207 5.6 5.6 0 0 1-1.306-1.874c-.315-.728-.473-1.536-.473-2.425z"/><g fill-rule="nonzero"><path d="M27.692 20.213l-3.069-3.116-7.892 8.014-3.508-3.562-3.07 3.116 6.578 6.679z"/><path d="M30.653 15.358l-12.648-9.53-12.672 9.55v20.017h25.32V15.358zm3.785-1.34h.711v25.198h-.699v.676H1.126v-.676h-.29V14.018h.737l-.691-.917L17.924.259l.081.108.082-.108L35.129 13.1l-.691.917z"/></g></g></svg><svg width="10" height="10" viewBox="0 0 10 10" id="L1VzZXJzL2t1a2tvbWFoL3Byb2plY3RzL29kb2JyZW5vL3NyYy9tb2R1bGVzL2RvY3Mvc3ByaXRlLWRlbGV0ZS5zdmc=" x="293" y="72" xmlns="http://www.w3.org/2000/svg"><title>Combined Shape</title><path d="M5 3.114L2.643.757A1.333 1.333 0 0 0 .757 2.643L3.114 5 .757 7.357a1.333 1.333 0 1 0 1.886 1.886L5 6.886l2.357 2.357a1.333 1.333 0 1 0 1.886-1.886L6.886 5l2.357-2.357A1.333 1.333 0 1 0 7.357.757L5 3.114z" fill="#E94C36" fill-rule="evenodd"/></svg><svg width="49" height="49" viewBox="0 0 49 49" id="L1VzZXJzL2t1a2tvbWFoL3Byb2plY3RzL29kb2JyZW5vL3NyYy9tb2R1bGVzL2RvY3Mvc3ByaXRlLXVwbG9hZC5zdmc=" y="202" xmlns="http://www.w3.org/2000/svg"><title>Group</title><g fill="#A5B4BE"><path d="M16.874 18.252h15.25v1.694h-15.25zm0 7.518h15.25v1.694h-15.25zm0-3.759h15.25v1.694h-15.25z"/><path d="M24.5 0C10.968 0 0 10.97 0 24.5S10.969 49 24.5 49C38.03 49 49 38.03 49 24.5S38.03 0 24.5 0zm5.829 10.546l5.148 4.682h-5.148v-4.682zm-2.436 24.501v3.407H16.5a2.976 2.976 0 0 1-2.977-2.977V13.522a2.977 2.977 0 0 1 2.977-2.976h12.559v5.953h6.418v13.028H31.72v.002H16.874v1.694H31.72v2.064H16.874v1.695h11.02v.065zm12.027 2.68h-3.826v3.827h-2.68v-3.826h-3.826v-2.68h3.826V31.22h2.68v3.827h3.826v2.68z"/></g></svg><svg width="75" height="84" viewBox="0 0 75 84" id="L1VzZXJzL2t1a2tvbWFoL3Byb2plY3RzL29kb2JyZW5vL3NyYy9tb2R1bGVzL2RvbmUvc3ByaXRlLWxvZ28tYmlnLnN2Zw==" x="205" y="116" xmlns="http://www.w3.org/2000/svg"><title>Group 27</title><g fill="none"><path fill="#4CAF50" d="M56.73 43.741l-6.698-6.577-17.225 16.913-7.656-7.517-6.699 6.577 14.355 14.094z"/><path d="M65.095 33.689L37.33 12.766 9.509 33.73v40.641h55.586V33.69zm9.47-4.746h.02v.014l.02.016-.02.027v54.94h-9.49v-.077H9.51v.077H.019V28.943h.075l37.156-28 .08.107.08-.106 37.156 27.999z" fill="#4476B0"/></g></svg><svg width="10" height="20" viewBox="0 0 10 20" id="L1VzZXJzL2t1a2tvbWFoL3Byb2plY3RzL29kb2JyZW5vL3NyYy9tb2R1bGVzL2Zvb3Rlci9zcHJpdGUtZmIuc3Zn" x="293" y="28" xmlns="http://www.w3.org/2000/svg"><title>facebook</title><path d="M2.232 20h4.456l-.036-9.98h2.971L10 6.563H6.688V4.456s0-.56.334-.77c.333-.209.717-.229.717-.229H10V0H6.906C5.769 0 4.488.338 3.84.73c-1.5.904-1.61 3.051-1.61 3.051v2.782H0V9.98h2.232V20z" fill="#5293B7"/></svg><svg width="20" height="20" viewBox="0 0 20 20" id="L1VzZXJzL2t1a2tvbWFoL3Byb2plY3RzL29kb2JyZW5vL3NyYy9tb2R1bGVzL2Zvb3Rlci9zcHJpdGUtaW5zLnN2Zw==" x="156" y="96" xmlns="http://www.w3.org/2000/svg"><title>instagram</title><path d="M11.925 10.207c0-1.032-.84-1.872-1.872-1.872s-1.872.84-1.872 1.872c0 1.033.84 1.873 1.872 1.873 1.033 0 1.872-.84 1.872-1.873zm2.638 0a4.515 4.515 0 0 1-4.51 4.51 4.515 4.515 0 0 1-4.51-4.51c0-.685.154-1.334.428-1.916H.456v6.5a4.754 4.754 0 0 0 4.748 4.748h9.503a4.754 4.754 0 0 0 4.749-4.749V8.291h-5.321c.274.582.428 1.231.428 1.916zm-.618-6.86a.53.53 0 0 1 .528-.528h1.63a.53.53 0 0 1 .528.528v1.63a.53.53 0 0 1-.528.528h-1.63a.529.529 0 0 1-.528-.528v-1.63zm-3.892 2.35c.972 0 1.873.31 2.61.835h6.793V5.21A4.754 4.754 0 0 0 14.707.46H5.204A4.754 4.754 0 0 0 .456 5.21v1.322h6.987a4.483 4.483 0 0 1 2.61-.835z" fill="#5293B7"/></svg><svg width="153" height="39" viewBox="0 0 153 39" id="L1VzZXJzL2t1a2tvbWFoL3Byb2plY3RzL29kb2JyZW5vL3NyYy9tb2R1bGVzL2Zvb3Rlci9zcHJpdGUtbG9nby5zdmc=" y="136" xmlns="http://www.w3.org/2000/svg"><title>Group 18 Copy 18</title><g fill="#96B6CA" fill-rule="evenodd"><path d="M45.124 24.97c0 .626.115 1.204.344 1.733.229.529.539.988.93 1.378a4.244 4.244 0 0 0 3.01 1.232 4.305 4.305 0 0 0 3.96-2.61 4.315 4.315 0 0 0 .343-1.733c0-.627-.114-1.204-.343-1.733a4.303 4.303 0 0 0-2.314-2.286 4.244 4.244 0 0 0-1.646-.324 4.244 4.244 0 0 0-3.94 2.61 4.315 4.315 0 0 0-.344 1.733zm-4.142 0c0-1.17.209-2.259.627-3.268a8.171 8.171 0 0 1 1.737-2.641 7.916 7.916 0 0 1 2.657-1.764c1.03-.425 2.165-.637 3.405-.637 1.226 0 2.357.212 3.394.637a8.003 8.003 0 0 1 2.677 1.764 8.09 8.09 0 0 1 1.748 2.641 8.461 8.461 0 0 1 .627 3.268 8.47 8.47 0 0 1-.627 3.267 8.09 8.09 0 0 1-1.748 2.641 8.003 8.003 0 0 1-2.677 1.765c-1.037.424-2.168.637-3.394.637-1.24 0-2.374-.213-3.405-.637a7.916 7.916 0 0 1-2.657-1.765 8.171 8.171 0 0 1-1.737-2.64 8.461 8.461 0 0 1-.627-3.268zm26.348.313h-2.768v3.215c0 .279-.007.501-.02.668a7.815 7.815 0 0 1-.061.522h2.849v-4.405zm-7.395 4.405c.363 0 .613-.125.747-.375.135-.251.202-.64.202-1.17V22.13h10.103v7.558h1.232v5.345h-3.657v-2.192h-5.475v2.192H59.43v-5.345h.505zm17.437-2.255c0 .362.064.693.192.992.128.3.296.56.505.783a2.29 2.29 0 0 0 1.667.71 2.29 2.29 0 0 0 1.667-.71c.209-.223.377-.484.505-.783.128-.3.192-.623.192-.97 0-.335-.064-.651-.192-.95-.128-.3-.296-.56-.505-.784a2.29 2.29 0 0 0-1.667-.71 2.29 2.29 0 0 0-1.667.71c-.209.223-.377.48-.505.773a2.317 2.317 0 0 0-.192.94zm-3.86-.041c0-.794.155-1.535.465-2.224a5.456 5.456 0 0 1 1.293-1.795 6.11 6.11 0 0 1 1.97-1.201 6.904 6.904 0 0 1 2.496-.438 6.98 6.98 0 0 1 2.475.428 6.084 6.084 0 0 1 1.98 1.19 5.33 5.33 0 0 1 1.303 1.816c.31.703.465 1.479.465 2.328 0 .85-.158 1.625-.475 2.328a5.517 5.517 0 0 1-1.303 1.817 5.794 5.794 0 0 1-1.99 1.18 7.384 7.384 0 0 1-2.516.417c-.889 0-1.71-.14-2.465-.418a5.654 5.654 0 0 1-1.95-1.19 5.52 5.52 0 0 1-1.283-1.848c-.31-.717-.464-1.513-.464-2.39zm19.963-2.38a2.29 2.29 0 0 0-1.667.71c-.208.222-.377.48-.505.772a2.369 2.369 0 0 0-.192.96c0 .334.061.651.182.95.121.3.286.56.495.783.209.223.458.4.748.533.29.132.603.198.94.198.323 0 .63-.066.919-.198a2.42 2.42 0 0 0 1.263-1.315c.12-.3.181-.617.181-.95a2.506 2.506 0 0 0-.687-1.734 2.33 2.33 0 0 0-1.677-.71zm4.082-5.784a6.35 6.35 0 0 1-.515.449c-.155.118-.34.226-.556.324a9.572 9.572 0 0 1-.808.313c-.324.111-.748.25-1.273.417-.458.153-.829.279-1.111.376a6.75 6.75 0 0 0-.687.272c-.176.083-.314.17-.415.26a2.4 2.4 0 0 0-.293.324l-.12.167a5.86 5.86 0 0 1 .939-.292 5.06 5.06 0 0 1 1.08-.104c.822 0 1.593.146 2.314.438a5.93 5.93 0 0 1 1.89 1.211c.538.515.96 1.127 1.262 1.837a5.9 5.9 0 0 1 .455 2.339c0 .821-.152 1.58-.455 2.276a5.196 5.196 0 0 1-1.283 1.795c-.552.501-1.226.894-2.02 1.18-.795.285-1.684.428-2.667.428-.903 0-1.725-.132-2.466-.397a4.864 4.864 0 0 1-1.909-1.232c-.532-.557-.943-1.27-1.232-2.14-.29-.87-.435-1.91-.435-3.121 0-1.949.377-3.609 1.132-4.98a6.725 6.725 0 0 1 3.273-2.996 3.659 3.659 0 0 1 .778-.282c.128-.035.29-.083.485-.146.195-.063.481-.157.858-.282a36.479 36.479 0 0 0 1.496-.522c.404-.153.747-.31 1.03-.47.283-.16.519-.33.707-.511.189-.181.37-.397.546-.647v3.716zm12.103 8.289c0-.334-.057-.65-.172-.95-.114-.3-.28-.56-.495-.783a2.473 2.473 0 0 0-.758-.532 2.235 2.235 0 0 0-.94-.199 2.247 2.247 0 0 0-1.647.71 2.665 2.665 0 0 0-.504.783 2.39 2.39 0 0 0-.192.95c0 .334.06.647.182.94.121.292.29.546.505.762.215.215.468.39.758.522s.596.198.919.198a2.247 2.247 0 0 0 1.647-.71c.208-.223.377-.48.505-.772a2.27 2.27 0 0 0 .192-.919zm-4.607 10.669h-3.657V22.13h3.657v1.19c.781-1.016 1.845-1.524 3.192-1.524.741 0 1.432.15 2.071.45.64.298 1.196.705 1.667 1.22a5.572 5.572 0 0 1 1.102 1.817c.262.696.394 1.44.394 2.234a6.12 6.12 0 0 1-.394 2.213 5.72 5.72 0 0 1-1.092 1.796 5.041 5.041 0 0 1-1.646 1.21 4.856 4.856 0 0 1-2.061.44c-1.293 0-2.37-.46-3.233-1.379v6.389zm17.68-12.256c-.122-.529-.37-.953-.748-1.273-.377-.32-.835-.48-1.374-.48-.566 0-1.027.152-1.384.459-.357.306-.583.737-.677 1.294h4.183zm-4.284 2.192c0 1.629.74 2.443 2.223 2.443.794 0 1.394-.334 1.798-1.002h3.536c-.714 2.45-2.499 3.675-5.355 3.675-.875 0-1.677-.136-2.404-.407a5.337 5.337 0 0 1-1.869-1.16 5.172 5.172 0 0 1-1.202-1.795c-.283-.696-.425-1.475-.425-2.338 0-.891.135-1.695.405-2.412a5.09 5.09 0 0 1 1.151-1.827 5.08 5.08 0 0 1 1.809-1.158c.707-.272 1.505-.407 2.394-.407.876 0 1.664.135 2.364.407a4.77 4.77 0 0 1 1.778 1.18c.485.514.855 1.144 1.111 1.889.256.745.384 1.583.384 2.516v.396h-7.698zm16.75-2.296V22.13h3.657v10.711H135.2v-3.904h-3.718v3.904h-3.657v-10.71h3.657v3.695h3.718zm9.214 1.607c0 .362.064.693.192.992.128.3.296.56.505.783a2.29 2.29 0 0 0 1.667.71 2.29 2.29 0 0 0 1.667-.71c.209-.223.377-.484.505-.783.128-.3.192-.623.192-.97 0-.335-.064-.651-.192-.95-.128-.3-.296-.56-.505-.784a2.29 2.29 0 0 0-1.667-.71 2.29 2.29 0 0 0-1.667.71c-.209.223-.377.48-.505.773a2.317 2.317 0 0 0-.192.94zm-3.86-.041c0-.794.155-1.535.465-2.224a5.456 5.456 0 0 1 1.293-1.795 6.11 6.11 0 0 1 1.97-1.201 6.904 6.904 0 0 1 2.496-.438 6.98 6.98 0 0 1 2.475.428 6.084 6.084 0 0 1 1.98 1.19 5.33 5.33 0 0 1 1.303 1.816c.31.703.465 1.479.465 2.328 0 .85-.158 1.625-.475 2.328a5.517 5.517 0 0 1-1.303 1.817 5.794 5.794 0 0 1-1.99 1.18 7.384 7.384 0 0 1-2.516.417c-.889 0-1.71-.14-2.465-.418a5.654 5.654 0 0 1-1.95-1.19 5.52 5.52 0 0 1-1.283-1.848c-.31-.717-.464-1.513-.464-2.39z" transform="translate(0 -1)"/><g fill-rule="nonzero"><path d="M27.321 20.302l-3.028-2.976-7.786 7.652-3.461-3.401-3.028 2.976 6.489 6.377z" transform="translate(0 -1)"/><path d="M30.298 15.79L17.769 6.347l-12.554 9.46V34.79h25.083v-19zm4.06-1.812h.242V38.81h-.624v.283H1.134v-.283h-.22V13.978h.266l-.248-.33L17.728.994l.041.054.041-.054L34.606 13.65l-.248.329z" transform="translate(0 -1)"/></g></g></svg><svg width="23" height="15" viewBox="0 0 23 15" id="L1VzZXJzL2t1a2tvbWFoL3Byb2plY3RzL29kb2JyZW5vL3NyYy9tb2R1bGVzL2Zvb3Rlci9zcHJpdGUtdHcuc3Zn" x="182" y="56" xmlns="http://www.w3.org/2000/svg"><title>twitter</title><path d="M0 10.51s.877 1.482 2.502 2.425c1.842 1.07 3.235 1.625 5.247 1.728 2.012.103 3.103.26 5.975-.81 3.083-1.148 4.103-2.613 4.949-3.711a6.7 6.7 0 0 0 1.122-2.366s.808.004 1.406-.219c.721-.267 1.231-.761 1.231-.761s-.725.048-1.414-.026c-.507-.055-.979-.232-.979-.232s.92-.054 1.523-.361c.549-.28.781-.811.781-.811s-.497.177-1.047.193c-.772.023-1.561-.103-1.561-.103s-.163-1.136-1.273-2.633c-1.11-1.496-3.5-1.468-3.5-1.468s1.974-.595 1.87-.937C16.73.076 15.228.58 15.228.58s.633-.567.441-.578c-.314-.02-1.454.515-1.454.515l.068-.387s-1.766 1.678-2.509 2.875a11.714 11.714 0 0 0-1.033 2.193L9.11 4.01S4.35 1.147 3.29 1.663C2.23 2.179 5.139 4.32 5.139 4.32s-1.822-.516-1.278.67c.544 1.187 2.366 1.548 2.366 1.548s-1.768 0-1.306.903c.463.902 2.448 1.031 2.448 1.031s-1.006.31-.707 1.084c.299.774 1.658.774 1.658.774s-1.169 1.186-3.589 1.599C2.311 12.342 0 10.51 0 10.51z" fill="#5293B7"/></svg><svg width="22" height="14" viewBox="0 0 22 14" id="L1VzZXJzL2t1a2tvbWFoL3Byb2plY3RzL29kb2JyZW5vL3NyYy9tb2R1bGVzL2Zvb3Rlci9zcHJpdGUtdmsuc3Zn" x="156" y="82" xmlns="http://www.w3.org/2000/svg"><title>vkontakte</title><path d="M.004 1.024C-.147.128 4.3.683 4.3.683S6.88 7 7.898 7c1.018 0 .528-5.357.528-5.357s-1.262-.32-1.262-.81C7.164.34 8.426 0 8.426 0h3.712c.445 0 .622.704.622 1.174v5.74h1.017s.906-1.418 1.62-2.86c.716-1.439 1.583-3.37 1.583-3.37h4.315s.791.021.697.661c-.128.872-2.999 5.008-3.599 6.424-.452 1.067 1.9 2.512 2.902 4.055.65 1.002.697 2.177.697 2.177h-5.125l-2.562-2.903s-.528-.213-.942.086c-.415.299-.434.896-.434.896V14H8.916s-3.071-1.024-5.671-5.506S.155 1.92.004 1.024z" fill="#5293B7"/></svg><svg width="101" height="27" viewBox="0 0 101 27" id="L1VzZXJzL2t1a2tvbWFoL3Byb2plY3RzL29kb2JyZW5vL3NyYy9tb2R1bGVzL2Zvb3Rlci9zcHJpdGUtdnRiLnN2Zw==" y="175" xmlns="http://www.w3.org/2000/svg"><title>VTB24_Logo (1)</title><path d="M29.287 9H29v18h7.362C39.787 27 42 24.978 42 21.848c0-1.565-.509-2.685-1.65-3.63-.416-.348-.879-.59-1.361-.784a4.526 4.526 0 0 0 1.04-.672c.841-.773 1.284-1.852 1.284-3.122 0-1.313-.494-2.4-1.511-3.32C38.562 9.22 37.14 9 35.247 9h-5.96zm5.553 3.543c.307 0 .88 0 1.359.202.517.218.839.79.839 1.497 0 .48-.166.955-.43 1.238-.413.45-.896.487-1.439.487h-2.095v-3.424h1.766zm.506 6.878c.533 0 1.084.054 1.501.446.348.324.572.933.572 1.554 0 .519-.157 1.036-.43 1.419-.453.612-.945.732-1.643.732h-2.222v-4.151h2.222zM56.588 9H42v3.45l5.152.01V27h4.142V12.456c.504-.002 4.512 0 4.512 0L57 9h-.412zm14.331 0H59v18h6.817c1.544 0 2.993-.383 3.974-1.053 1.007-.68 2.209-2.03 2.209-4.597 0-2.408-1.166-3.702-1.86-4.259-.74-.59-2.118-1.293-4.474-1.293H63.1V12.46h6.897L71.204 9h-.285zm-5.762 10.224c.577 0 1.124.14 1.46.375.536.37.796.942.796 1.751 0 .851-.254 1.264-.446 1.5-.362.452-.913.672-1.684.672H63.1v-4.298h2.057zm9.117-9.074l-.13.065-.001 3.775.498-.236c.36-.21 2.294-1.29 4.04-1.378.72-.037 1.367.173 1.819.591.37.342.573.799.573 1.287 0 1.62-1.151 2.435-2.541 3.262C75.116 19.51 73 21.59 73 25.789L73.005 27l11.356-.002v-3.405h-7.034l.042-.164c.287-1.121 1.013-1.973 2.43-2.85l1.767-1.062c2.076-1.24 3.392-3.29 3.434-5.354v-.123c0-1.375-.471-2.568-1.362-3.454C82.595 9.548 81.073 9 79.235 9c-1.601 0-3.548.451-4.96 1.15zM93.35 9L86 20.33v3.161h8.152V27h3.413v-3.509h2.248L101 20.03h-3.435v-3.545h-3.413v3.545h-4.027c.29-.488 6.137-9.53 7.111-11.029h-3.885zm-76-.002H3.13s.428 1.323.925 2H16.71s2.415 1.821 3.57 5.004H6.98a14.706 14.706 0 0 1-4.916-7.004c.114-.34.241-.672.38-1h14.901c1.162-.776 2.317-2 2.317-2H3.485A14.8 14.8 0 0 1 4.17 5h16.336c.432-.503 1.298-2 1.298-2H5.972c.38-.353.78-.687 1.197-1H22.29c.414-.955.71-2 .71-2H6.575C3.436 2.15 1.07 5.298 0 8.998 1.06 12.656 3.405 15.831 6.567 18h16.39s-.288-4.787-5.606-9.002z" fill="#96B6CA"/></svg><svg width="18" height="18" viewBox="0 0 18 18" id="L1VzZXJzL2t1a2tvbWFoL3Byb2plY3RzL29kb2JyZW5vL3NyYy9tb2R1bGVzL2Zvcm0vc3ByaXRlLWNoZWNrb3gtY2hlY2tlZC5zdmc=" x="153" y="156" xmlns="http://www.w3.org/2000/svg"><title>Shape</title><path d="M16 0H2C.9 0 0 .9 0 2v14c0 1.1.9 2 2 2h14c1.1 0 2-.9 2-2V2c0-1.1-.9-2-2-2zM7 14L2 9.192l1.4-1.346L7 11.308 14.6 4 16 5.346 7 14z" fill="#227EBA" fill-rule="evenodd"/></svg><svg width="18" height="18" viewBox="0 0 18 18" id="L1VzZXJzL2t1a2tvbWFoL3Byb2plY3RzL29kb2JyZW5vL3NyYy9tb2R1bGVzL2Zvcm0vc3ByaXRlLWNoZWNrb3guc3Zn" x="173" y="136" xmlns="http://www.w3.org/2000/svg"><title>Shape</title><path d="M16 0H2C.9 0 0 .9 0 2v14c0 1.1.9 2 2 2h14c1.1 0 2-.9 2-2V2c0-1.1-.9-2-2-2z" fill="#227EBA" fill-rule="evenodd"/></svg><svg data-name="Слой 1" viewBox="0 0 100 28" width="100" height="28" id="L1VzZXJzL2t1a2tvbWFoL3Byb2plY3RzL29kb2JyZW5vL3NyYy9tb2R1bGVzL2hlYWRlci9zcHJpdGUtdnRiLXNtYWxsLnN2Zw==" x="205" xmlns="http://www.w3.org/2000/svg"><title>Монтажная область 1</title><g data-name="VTB24_Logo-(1)" fill="#fff"><path d="M29.07 9.61h-.29v18h7.46c3.47 0 5.71-2 5.71-5.17a4.33 4.33 0 0 0-1.67-3.64 5 5 0 0 0-1.38-.78 4.59 4.59 0 0 0 1.1-.63 4.09 4.09 0 0 0 1.3-3.13 4.27 4.27 0 0 0-1.53-3.33c-1.26-1.1-2.7-1.32-4.62-1.32zm5.63 3.55a3.67 3.67 0 0 1 1.38.2 1.54 1.54 0 0 1 .85 1.5 1.86 1.86 0 0 1-.44 1.24 1.76 1.76 0 0 1-1.49.5h-2.09v-3.44zm.51 6.9a2.12 2.12 0 0 1 1.52.45 2.19 2.19 0 0 1 .58 1.56 2.48 2.48 0 0 1-.44 1.42 1.79 1.79 0 0 1-1.66.73H33v-4.16z"/><path data-name="Shape" d="M56.18 9.61H42v3.46h5v14.59h4V13.08h4.4l1.16-3.47zm13.94 0H58v18h7a7.39 7.39 0 0 0 4-1.06A5.2 5.2 0 0 0 71.22 22a5.23 5.23 0 0 0-1.88-4.27 7.12 7.12 0 0 0-4.53-1.3H62.2v-3.35h7l1.22-3.47zm-5.83 10.25a2.73 2.73 0 0 1 1.48.38 2 2 0 0 1 .8 1.76 2.19 2.19 0 0 1-.45 1.5 2 2 0 0 1-1.71.67H62.2v-4.31zM74 9.79l-.13.07v3.79l.51-.24A10.63 10.63 0 0 1 78.46 12a2.52 2.52 0 0 1 1.85.59 1.73 1.73 0 0 1 .58 1.29c0 1.62-1.17 2.44-2.58 3.27-3.47 2-5.62 4.09-5.62 8.3v1.21h11.54v-3.41h-7.15v-.16a4.76 4.76 0 0 1 2.47-2.86l1.8-1.07a6.65 6.65 0 0 0 3.49-5.37v-.12a4.72 4.72 0 0 0-1.38-3.46A6.22 6.22 0 0 0 79 8.63a12.42 12.42 0 0 0-5 1.16zm18.54-.18L85.37 21v3.17h8v3.52h3.33v-3.55h2.19l1.11-3.47h-3.35v-3.56h-3.33v3.56h-3.93c.28-.49 6-9.56 6.94-11.06zm-75.61-.25H3.05a9.13 9.13 0 0 0 .9 2H16.3a11.9 11.9 0 0 1 3.48 5h-13a14.75 14.75 0 0 1-4.8-7q.17-.51.37-1h14.57a15.92 15.92 0 0 0 2.26-2H3.4q.31-.52.67-1H20a20.76 20.76 0 0 0 1.27-2H5.83A14.81 14.81 0 0 1 7 2.35h14.75a18.72 18.72 0 0 0 .69-2h-16A16.52 16.52 0 0 0 0 9.36a16.58 16.58 0 0 0 6.41 9h16s-.29-4.77-5.48-9z"/></g></svg><svg width="205" height="56" viewBox="0 0 205 56" id="L1VzZXJzL2t1a2tvbWFoL3Byb2plY3RzL29kb2JyZW5vL3NyYy9tb2R1bGVzL2hlYWRlci9zcHJpdGUtdnRiLnN2Zw==" xmlns="http://www.w3.org/2000/svg"><title>VTB24_Logo (1)</title><path d="M59.595 19H59v37h15.29C81.404 56 86 51.843 86 45.41c0-3.217-1.057-5.52-3.426-7.464-.864-.714-1.826-1.211-2.828-1.609.771-.372 1.508-.81 2.159-1.381 1.749-1.59 2.669-3.807 2.669-6.419 0-2.698-1.027-4.93-3.14-6.824C78.86 19.453 75.907 19 71.975 19h-12.38zm11.533 7.283c.64 0 1.83 0 2.823.416 1.075.447 1.743 1.623 1.743 3.076 0 .988-.343 1.963-.895 2.544-.856.927-1.858 1.001-2.986 1.001h-4.352v-7.037h3.667zM72.18 40.42c1.108 0 2.252.112 3.118.918.722.665 1.187 1.918 1.187 3.193 0 1.067-.326 2.13-.894 2.917-.939 1.26-1.96 1.506-3.41 1.506h-4.615V40.42h4.614zM115.176 19H86v7.093l10.304.02V56h8.285V26.104c1.007-.003 9.024 0 9.024 0L116 19h-.824zm28.578 0H119v37h14.159c3.206 0 6.216-.788 8.254-2.164 2.091-1.398 4.587-4.172 4.587-9.45 0-4.95-2.42-7.609-3.861-8.754-1.54-1.213-4.4-2.659-9.294-2.659h-5.33v-6.858h14.326L144.347 19h-.593zm-11.967 21.016c1.198 0 2.335.287 3.034.77 1.112.76 1.651 1.936 1.651 3.6 0 1.75-.527 2.598-.925 3.084-.753.93-1.897 1.38-3.498 1.38h-4.535v-8.834h4.273zm19.868-20.652l-.27.134-.005 7.76 1.04-.486c.75-.432 4.778-2.651 8.416-2.833 1.5-.076 2.847.356 3.789 1.216.77.701 1.193 1.64 1.193 2.645 0 3.329-2.398 5.006-5.294 6.705C153.41 38.606 149 42.882 149 51.512l.01 2.488 23.658-.004v-6.998h-14.653l.087-.338c.598-2.305 2.111-4.057 5.063-5.859l3.68-2.184c4.326-2.547 7.068-6.763 7.155-11.005v-.252c0-2.826-.981-5.28-2.838-7.1-2.173-2.134-5.344-3.26-9.173-3.26-3.336 0-7.391.928-10.334 2.364zM189.702 19c-.16.25-14.616 23.155-14.702 23.29v6.498h16.305V56h6.825v-7.212h4.496L205 41.67h-6.87v-7.288h-6.826v7.288h-8.055c.582-1.004 12.275-19.59 14.223-22.671h-7.77zm-155.001-.504H6.258s.858 2.72 1.853 4.111h25.306s4.83 3.743 7.14 10.287h-26.6a30.24 30.24 0 0 1-9.832-14.398c.229-.697.483-1.382.761-2.054h29.802c2.324-1.597 4.633-4.112 4.633-4.112H6.971a30.01 30.01 0 0 1 1.37-2.053h32.672c.862-1.034 2.595-4.111 2.595-4.111H11.944a30.36 30.36 0 0 1 2.393-2.054H44.58C45.409 2.149 46 0 46 0H13.15C6.871 4.418 2.14 10.891 0 18.496 2.12 26.016 6.81 32.54 13.134 37h32.78s-.576-9.84-11.213-18.504z" fill="#FFF"/></svg><svg data-name="Слой 1" viewBox="0 0 20 20" width="20" height="20" id="L1VzZXJzL2t1a2tvbWFoL3Byb2plY3RzL29kb2JyZW5vL3NyYy9tb2R1bGVzL2lucHV0L3Nwcml0ZS1zZWFyY2guc3Zn" x="156" y="116" xmlns="http://www.w3.org/2000/svg"><path d="M20 18.24l-3.7-3.69a8.91 8.91 0 0 0 1.84-5.48 9.07 9.07 0 1 0-9 9.07 9.16 9.16 0 0 0 5.49-1.83L18.28 20zM2.51 9.07a6.59 6.59 0 1 1 6.56 6.57 6.58 6.58 0 0 1-6.56-6.57z" fill="#227eba"/></svg><svg width="19" height="29" viewBox="0 0 19 29" id="L1VzZXJzL2t1a2tvbWFoL3Byb2plY3RzL29kb2JyZW5vL3NyYy9tb2R1bGVzL2xhc3Qvc3ByaXRlLWFycm93LWxlZnQuc3Zn" x="280" y="145" xmlns="http://www.w3.org/2000/svg"><title>Shape Copy 2</title><path d="M14.458 29L19 24.445 9.084 14.5 19 4.555 14.458 0 0 14.5z" fill="#A5B6C1"/></svg><svg width="19" height="29" viewBox="0 0 19 29" id="L1VzZXJzL2t1a2tvbWFoL3Byb2plY3RzL29kb2JyZW5vL3NyYy9tb2R1bGVzL2xhc3Qvc3ByaXRlLWFycm93LXJpZ2h0LnN2Zw==" x="280" y="116" xmlns="http://www.w3.org/2000/svg"><title>Shape Copy 2</title><path d="M4.542 0L0 4.555 9.916 14.5 0 24.445 4.542 29 19 14.5z" fill="#A5B6C1"/></svg><svg width="24" height="20" viewBox="0 0 24 20" id="L1VzZXJzL2t1a2tvbWFoL3Byb2plY3RzL29kb2JyZW5vL3NyYy9tb2R1bGVzL2xhc3Qvc3ByaXRlLWNoZWNrLnN2Zw==" x="280" y="174" xmlns="http://www.w3.org/2000/svg"><title>Shape Copy</title><path d="M24 4.375L19.8 0 9 11.25l-4.8-5L0 10.625 9 20z" fill="#4CAF50"/></svg><svg width="38" height="43" viewBox="0 0 38 43" id="L1VzZXJzL2t1a2tvbWFoL3Byb2plY3RzL29kb2JyZW5vL3NyYy9tb2R1bGVzL2xhc3Qvc3ByaXRlLWZsaXAuc3Zn" x="49" y="202" xmlns="http://www.w3.org/2000/svg"><title>sprite-flip</title><g fill="none" fill-rule="evenodd"><path d="M28.33 1.375H8.015c-3.07 0-5.582 2.4-5.582 5.335v30.53c0 2.935 2.512 5.336 5.582 5.336H28.33c3.07 0 5.583-2.4 5.583-5.335V6.71c0-2.934-2.512-5.335-5.583-5.335" fill="#F0F0F1"/><path d="M0 19.57v4.767c0 .52.412.943.92.943s.92-.422.92-.943V19.57a.931.931 0 0 0-.92-.943.931.931 0 0 0-.92.943zm34.488 0v4.767c0 .52.412.943.92.943s.92-.422.92-.943V19.57a.931.931 0 0 0-.92-.943.931.931 0 0 0-.92.943z" fill="#F0F0F0"/><path d="M8.792.084c-3.04 0-5.528 2.393-5.528 5.317v30.425c0 2.924 2.488 5.317 5.528 5.317h20.116c3.04 0 5.528-2.393 5.528-5.317V5.4c0-2.924-2.488-5.317-5.528-5.317H8.792z" fill="#227EBA"/><path fill="#FEFEFE" d="M3.219 21.288h31.269v-.887H3.218z"/><path d="M1.38 17.297a.931.931 0 0 0-.92.942v4.768c0 .52.412.942.92.942.507 0 .92-.422.92-.942v-4.768a.931.931 0 0 0-.92-.942m34.947 0a.931.931 0 0 0-.92.942v4.768c0 .52.412.942.92.942s.92-.422.92-.942v-4.768a.931.931 0 0 0-.92-.942" fill="#C1C1C1"/></g></svg><svg width="8" height="12" viewBox="0 0 8 12" id="L1VzZXJzL2t1a2tvbWFoL3Byb2plY3RzL29kb2JyZW5vL3NyYy9tb2R1bGVzL3BhZ2luYXRpb24vc3ByaXRlLW5leHQuc3Zn" x="293" y="48" xmlns="http://www.w3.org/2000/svg"><title>Shape</title><path d="M.6 1.4L2 0l6 6-6 6-1.4-1.4L5.2 6z" fill="#227EBA" fill-rule="evenodd"/></svg><svg width="8" height="12" viewBox="0 0 8 12" id="L1VzZXJzL2t1a2tvbWFoL3Byb2plY3RzL29kb2JyZW5vL3NyYy9tb2R1bGVzL3BhZ2luYXRpb24vc3ByaXRlLXByZXYuc3Zn" x="293" y="60" xmlns="http://www.w3.org/2000/svg"><title>Shape</title><path d="M7.4 1.4L6 0 0 6l6 6 1.4-1.4L2.8 6z" fill="#227EBA" fill-rule="evenodd"/></svg><svg width="17" height="17" viewBox="0 0 17 17" id="L1VzZXJzL2t1a2tvbWFoL3Byb2plY3RzL29kb2JyZW5vL3NyYy9tb2R1bGVzL3BvcHVwL3Nwcml0ZS1jbG9zZS5zdmc=" x="171" y="156" xmlns="http://www.w3.org/2000/svg"><title>Shape</title><path d="M0 15.524L1.476 17 8.5 9.976 15.524 17 17 15.524 9.976 8.5 17 1.476 15.524 0 8.5 7.024 1.476 0 0 1.476 7.024 8.5z" fill="#638BA2" opacity=".484"/></svg><svg width="88" height="88" viewBox="0 0 88 88" id="L1VzZXJzL2t1a2tvbWFoL3Byb2plY3RzL29kb2JyZW5vL3NyYy9tb2R1bGVzL3ZpZGVvL3Nwcml0ZS1wbGF5LnN2Zw==" x="205" y="28" xmlns="http://www.w3.org/2000/svg"><title>Group</title><g fill="#FFF"><path d="M44 88c24.322 0 44-19.678 44-44S68.322 0 44 0 0 19.678 0 44s19.678 44 44 44zm0-83.111c21.511 0 39.111 17.6 39.111 39.111 0 21.511-17.6 39.111-39.111 39.111-21.511 0-39.111-17.6-39.111-39.111 0-21.511 17.6-39.111 39.111-39.111z"/><path d="M31.214 62.634c.365.244.85.366 1.215.366.364 0 .85-.122 1.214-.366l29.143-17.062C63.514 45.084 64 44.353 64 43.5s-.486-1.706-1.214-2.072L33.643 24.366a2.2 2.2 0 0 0-2.429 0c-.728.487-1.214 1.218-1.214 2.072v34.124c0 .854.486 1.707 1.214 2.072zm3.643-31.93L56.714 43.5 34.857 56.297V30.703z"/></g></svg></svg>