<svg id="Слой_1" data-name="Слой 1" xmlns="http://www.w3.org/2000/svg" viewBox="0 0 100 28"><title>Монтажная область 1</title><g id="Page-1"><g id="Desktop-HD-Copy"><g id="VTB24_Logo-_1_" data-name="VTB24_Logo-(1)"><path id="Shape" d="M29.07,9.61h-.29v18h7.46c3.47,0,5.71-2,5.71-5.17a4.33,4.33,0,0,0-1.67-3.64,5,5,0,0,0-1.38-.78A4.59,4.59,0,0,0,40,17.39a4.09,4.09,0,0,0,1.3-3.13,4.27,4.27,0,0,0-1.53-3.33c-1.26-1.1-2.7-1.32-4.62-1.32Zm5.63,3.55a3.67,3.67,0,0,1,1.38.2,1.54,1.54,0,0,1,.85,1.5,1.86,1.86,0,0,1-.44,1.24A1.76,1.76,0,0,1,35,16.6H32.91V13.16Zm.51,6.9a2.12,2.12,0,0,1,1.52.45,2.19,2.19,0,0,1,.58,1.56,2.48,2.48,0,0,1-.44,1.42,1.79,1.79,0,0,1-1.66.73H33V20.06Z" fill="#fff"/><path id="Shape-2" data-name="Shape" d="M56.18,9.61H42v3.46h5V27.66h4V13.08h4.4l1.16-3.47Z" fill="#fff"/><path id="Shape-3" data-name="Shape" d="M70.12,9.61H58v18H65a7.39,7.39,0,0,0,4-1.06A5.2,5.2,0,0,0,71.22,22a5.23,5.23,0,0,0-1.88-4.27,7.12,7.12,0,0,0-4.53-1.3H62.2V13.08h7l1.22-3.47ZM64.29,19.86a2.73,2.73,0,0,1,1.48.38A2,2,0,0,1,66.57,22a2.19,2.19,0,0,1-.45,1.5,2,2,0,0,1-1.71.67H62.2V19.86Z" fill="#fff"/><path id="Shape-4" data-name="Shape" d="M74,9.79l-.13.07c0,.15,0,3.41,0,3.79l.51-.24A10.63,10.63,0,0,1,78.46,12a2.52,2.52,0,0,1,1.85.59,1.73,1.73,0,0,1,.58,1.29c0,1.62-1.17,2.44-2.58,3.27-3.47,2-5.62,4.09-5.62,8.3,0,0,0,1,0,1.21H84.23c0-.24,0-3.18,0-3.41H77.08l0-.16a4.76,4.76,0,0,1,2.47-2.86l1.8-1.07a6.65,6.65,0,0,0,3.49-5.37v-.12a4.72,4.72,0,0,0-1.38-3.46A6.22,6.22,0,0,0,79,8.63,12.42,12.42,0,0,0,74,9.79Z" fill="#fff"/><path id="Shape-5" data-name="Shape" d="M92.54,9.61,85.37,21v3.17h8v3.52h3.33V24.14h2.19L100,20.67H96.65V17.11H93.32v3.56H89.39c.28-.49,6-9.56,6.94-11.06Z" fill="#fff"/><path id="Shape-6" data-name="Shape" d="M16.93,9.36H3.05a9.13,9.13,0,0,0,.9,2H16.3a11.9,11.9,0,0,1,3.48,5h-13a14.75,14.75,0,0,1-4.8-7q.17-.51.37-1H16.92a15.92,15.92,0,0,0,2.26-2H3.4q.31-.52.67-1H20a20.76,20.76,0,0,0,1.27-2H5.83A14.81,14.81,0,0,1,7,2.35H21.75a18.72,18.72,0,0,0,.69-2h-16A16.52,16.52,0,0,0,0,9.36a16.58,16.58,0,0,0,6.41,9h16S22.12,13.59,16.93,9.36Z" fill="#fff"/></g></g></g></svg>