<?xml version="1.0" encoding="UTF-8"?>
<svg width="205px" height="56px" viewBox="0 0 205 56" version="1.1" xmlns="http://www.w3.org/2000/svg" xmlns:xlink="http://www.w3.org/1999/xlink">
    <!-- Generator: Sketch 46.2 (44496) - http://www.bohemiancoding.com/sketch -->
    <title>VTB24_Logo (1)</title>
    <desc>Created with Sketch.</desc>
    <defs></defs>
    <g id="Page-1" stroke="none" stroke-width="1" fill="none" fill-rule="evenodd">
        <g id="Desktop-HD-Copy" transform="translate(-1017.000000, -144.000000)" fill-rule="nonzero" fill="#FFFFFF">
            <g id="VTB24_Logo-(1)" transform="translate(1017.000000, 144.000000)">
                <path d="M59.5952395,19 L59,19 L59,56 L74.2898068,56 C81.4037914,56 86,51.8427683 86,45.4097419 C86,42.1926972 84.9430683,39.8903285 82.5741021,37.9461769 C81.7095875,37.2324001 80.7480468,36.7349354 79.7456241,36.3373889 C80.5174732,35.9653533 81.2544364,35.5274143 81.9047302,34.9555425 C83.6539277,33.3653562 84.5740415,31.1490871 84.5740415,28.5373975 C84.5740415,25.8385452 83.5470898,23.6063318 81.4348616,21.7126708 C78.859851,19.4533519 75.9060021,19 71.9737145,19 L59.5952395,19 Z M71.1282781,26.2828619 C71.7671249,26.2828619 72.9581491,26.2828619 73.9507601,26.6990103 C75.0262249,27.1459845 75.6939616,28.3221483 75.6939616,29.7746815 C75.6939616,30.7627016 75.3505542,31.7384978 74.799467,32.3194047 C73.9431288,33.2457733 72.9407062,33.3201804 71.8134577,33.3201804 C71.8134577,33.3201804 68.382654,33.3201804 67.4609049,33.3201804 C67.4609049,32.3938119 67.4609049,27.2102935 67.4609049,26.2828619 C68.3428623,26.2828619 71.1282781,26.2828619 71.1282781,26.2828619 Z M72.180304,40.4202135 C73.2879293,40.4202135 74.4320756,40.5318241 75.2976803,41.3380783 C76.0204712,42.002959 76.485434,43.2561874 76.485434,44.5312065 C76.485434,45.5978856 76.1594694,46.6613758 75.5914845,47.4484968 C74.6522924,48.7075714 73.6302465,48.9541779 72.1808491,48.9541779 C72.1808491,48.9541779 68.5009388,48.9541779 67.5655624,48.9541779 C67.5655624,47.9937946 67.5655624,41.3821911 67.5655624,40.4202135 C68.5003937,40.4202135 72.180304,40.4202135 72.180304,40.4202135 Z" id="Shape"></path>
                <path d="M115.175705,19 L86,19 L86,26.0928026 C86,26.0928026 95.2771381,26.1108356 96.3044739,26.1124267 C96.3044739,27.2251688 96.3044739,56 96.3044739,56 L104.588556,56 C104.588556,56 104.588556,27.2156219 104.588556,26.1039406 C105.595851,26.1007583 113.612552,26.1039406 113.612552,26.1039406 L116,19 L115.175705,19 Z" id="Shape"></path>
                <path d="M143.754029,19 L119,19 L119,56 L133.158742,56 C136.365253,56 139.37455,55.2117721 141.412983,53.8359562 C143.504115,52.4383778 146,49.6639218 146,44.3862453 C146,39.4365989 143.579089,36.7773251 142.138821,35.6324042 C140.599131,34.419011 137.738697,32.9731304 132.844719,32.9731304 C132.844719,32.9731304 128.476648,32.9731304 127.515021,32.9731304 C127.515021,32.0537966 127.515021,27.0356779 127.515021,26.1152825 C128.615731,26.1152825 141.840554,26.1152825 141.840554,26.1152825 L144.346761,19 L143.754029,19 Z M131.787472,40.0162251 C132.985432,40.0162251 134.121999,40.3028534 134.821217,40.7869367 C135.933336,41.5454402 136.472282,42.7222087 136.472282,44.3862453 C136.472282,46.1357396 135.944745,46.9844779 135.546512,47.4701536 C134.794052,48.3995725 133.649878,48.8507467 132.048796,48.8507467 C132.048796,48.8507467 128.444051,48.8507467 127.514478,48.8507467 C127.514478,47.8847031 127.514478,40.9817378 127.514478,40.0162251 C128.429382,40.0162251 131.787472,40.0162251 131.787472,40.0162251 Z" id="Shape"></path>
                <path d="M151.65491,19.3639944 C151.653828,19.3645149 151.50931,19.4363404 151.384819,19.4977563 C151.383736,19.8001519 151.38103,26.4918904 151.380488,27.2575082 C151.79997,27.0607689 152.419178,26.7719056 152.419178,26.7719056 C153.169373,26.3399119 157.198017,24.1206094 160.835866,23.9389638 C162.336797,23.8629746 163.682926,24.2949683 164.624729,25.1547919 C165.39441,25.8563913 165.818221,26.7958475 165.818221,27.8003629 C165.818221,31.1287963 163.420412,32.8057646 160.524097,34.5045928 C153.409154,38.6064511 149,42.8816273 149,51.5116122 C149,51.5116122 149.00866,53.5581173 149.010825,54 C149.556422,53.9994795 172.121265,53.9963567 172.667944,53.9963567 C172.668485,53.5091927 172.666862,47.4857432 172.667944,46.9975383 C172.122348,46.9975383 158.015329,46.9975383 158.015329,46.9975383 L158.102473,46.6597505 C158.70003,44.3545696 160.21341,42.6031735 163.164935,40.8012913 C163.169806,40.798689 166.845544,38.617381 166.845544,38.617381 C171.171343,36.0701796 173.912856,31.8543375 174,27.6124717 L174,27.3595212 C174,24.5343865 173.018685,22.08035 171.1616,20.2592103 C168.989499,18.1263065 165.818221,17 161.989305,17 C158.653481,17 154.597774,17.9280057 151.65491,19.3639944 Z" id="Shape"></path>
                <path d="M189.701862,19 C189.541911,19.2507127 175.086006,42.1551465 175,42.2903087 C175,42.4429625 175,48.2819712 175,48.787637 C175.531772,48.787637 191.304519,48.787637 191.304519,48.787637 C191.304519,48.787637 191.304519,55.4842633 191.304519,56 C191.79119,56 197.642776,56 198.129971,56 C198.129971,55.4837333 198.129971,48.787637 198.129971,48.787637 L202.625907,48.787637 L205,41.6712127 L198.129447,41.6712127 L198.129447,34.3830528 L191.303994,34.3830528 L191.303994,41.6712127 L183.249279,41.6712127 C183.831396,40.6667717 195.52408,22.0801089 197.472336,19 C196.607027,19 189.972992,19 189.701862,19 Z" id="Shape"></path>
                <path d="M34.7013963,18.4960173 L6.25832438,18.4960173 C6.25832438,18.4960173 7.1160043,21.2153795 8.11063373,22.6071875 C8.38184748,22.6071875 33.4172932,22.6071875 33.4172932,22.6071875 C33.4172932,22.6071875 38.2470462,26.3503595 40.5574651,32.8936091 L13.9570354,32.8936091 C9.36734694,29.1923877 5.9301826,24.1896322 4.12513426,18.4960173 C4.35392052,17.7987858 4.60794844,17.1142988 4.88614393,16.4420253 L34.6879699,16.4420253 C37.0118153,14.844712 39.32116,12.3303242 39.32116,12.3303242 L6.97099893,12.3303242 C7.40010741,11.6261894 7.8566058,10.9417024 8.34049409,10.2773943 L41.0128894,10.2773943 C41.8754028,9.24349498 43.6084855,6.16569313 43.6084855,6.16569313 L11.9441461,6.16569313 C12.7051557,5.44031746 13.5037594,4.75529945 14.3372718,4.11170114 L44.5800215,4.11170114 C45.4087003,2.14851386 46,0 46,0 L13.1493018,0 C6.87218045,4.41810066 2.13909774,10.8912554 0,18.4960173 C2.12083781,26.0158158 6.8104189,32.5404796 13.1337272,37 L45.9140709,37 C45.9140709,37 45.3378088,27.1596366 34.7013963,18.4960173 Z" id="Shape"></path>
            </g>
        </g>
    </g>
</svg>