<?xml version="1.0" encoding="UTF-8"?>
<svg width="156px" height="40px" viewBox="0 0 156 40" version="1.1" xmlns="http://www.w3.org/2000/svg" xmlns:xlink="http://www.w3.org/1999/xlink">
    <!-- Generator: Sketch 46.2 (44496) - http://www.bohemiancoding.com/sketch -->
    <title>Group 18 Copy 18</title>
    <desc>Created with Sketch.</desc>
    <defs></defs>
    <g id="Page-1" stroke="none" stroke-width="1" fill="none" fill-rule="evenodd">
        <g id="Desktop-HD-Copy" transform="translate(-166.000000, -23.000000)" fill="#FFFFFF">
            <g id="Group-18-Copy-18" transform="translate(166.000000, 23.000000)">
                <path d="M46.2153679,25.5939227 C46.2153679,26.2292849 46.3318891,26.8152214 46.564935,27.3517495 C46.7979809,27.8882777 47.1132736,28.3542031 47.5108225,28.7495396 C47.9083714,29.1448761 48.3710291,29.4519633 48.8988095,29.6708103 C49.4265899,29.8896573 49.9852062,29.9990792 50.5746753,29.9990792 C51.1641443,29.9990792 51.7227607,29.8896573 52.2505411,29.6708103 C52.7783215,29.4519633 53.2444063,29.1448761 53.6488095,28.7495396 C54.0532126,28.3542031 54.3719324,27.8882777 54.6049783,27.3517495 C54.8380242,26.8152214 54.9545454,26.2292849 54.9545454,25.5939227 C54.9545454,24.9585604 54.8380242,24.3726239 54.6049783,23.8360958 C54.3719324,23.2995676 54.0532126,22.8336422 53.6488095,22.4383057 C53.2444063,22.0429692 52.7783215,21.735882 52.2505411,21.517035 C51.7227607,21.298188 51.1641443,21.1887661 50.5746753,21.1887661 C49.9852062,21.1887661 49.4265899,21.298188 48.8988095,21.517035 C48.3710291,21.735882 47.9083714,22.0429692 47.5108225,22.4383057 C47.1132736,22.8336422 46.7979809,23.2995676 46.564935,23.8360958 C46.3318891,24.3726239 46.2153679,24.9585604 46.2153679,25.5939227 Z M42,25.5939227 C42,24.407913 42.2124798,23.3031052 42.6374459,22.2794659 C43.0624119,21.2558267 43.6518721,20.3628031 44.4058441,19.6003683 C45.1598162,18.8379336 46.0611419,18.2414079 47.1098485,17.8107735 C48.158555,17.380139 49.3134857,17.164825 50.5746753,17.164825 C51.8221563,17.164825 52.9736599,17.380139 54.0292207,17.8107735 C55.0847815,18.2414079 55.9929615,18.8379336 56.7537878,19.6003683 C57.5146141,20.3628031 58.1075014,21.2558267 58.5324674,22.2794659 C58.9574335,23.3031052 59.1699133,24.407913 59.1699133,25.5939227 C59.1699133,26.7799323 58.9574335,27.8847401 58.5324674,28.9083794 C58.1075014,29.9320186 57.5146141,30.8250422 56.7537878,31.587477 C55.9929615,32.3499117 55.0847815,32.9464374 54.0292207,33.3770718 C52.9736599,33.8077063 51.8221563,34.0230203 50.5746753,34.0230203 C49.3134857,34.0230203 48.158555,33.8077063 47.1098485,33.3770718 C46.0611419,32.9464374 45.1598162,32.3499117 44.4058441,31.587477 C43.6518721,30.8250422 43.0624119,29.9320186 42.6374459,28.9083794 C42.2124798,27.8847401 42,26.7799323 42,25.5939227 Z M68.8138528,25.9116022 L65.9967532,25.9116022 L65.9967532,29.1731123 C65.9967532,29.4554956 65.989899,29.6813988 65.9761904,29.8508287 C65.9624819,30.0202587 65.9419193,30.1967456 65.9145021,30.3802947 L68.8138528,30.3802947 L68.8138528,25.9116022 Z M61.2878788,30.3802947 C61.6580105,30.3802947 61.9116155,30.2532241 62.0487013,29.9990792 C62.1857871,29.7449343 62.254329,29.3496037 62.254329,28.8130755 L62.254329,22.713628 L72.5357142,22.713628 L72.5357142,30.3802947 L73.7900432,30.3802947 L73.7900432,35.8020258 L70.0681818,35.8020258 L70.0681818,33.5782689 L64.495671,33.5782689 L64.495671,35.8020258 L60.7738095,35.8020258 L60.7738095,30.3802947 L61.2878788,30.3802947 Z M79.0335498,28.0930018 C79.0335498,28.4601001 79.0986645,28.7954251 79.2288961,29.0989871 C79.3591276,29.4025491 79.5304823,29.6672794 79.7429653,29.893186 C79.9554484,30.1190926 80.2090533,30.2955795 80.5037878,30.4226519 C80.7985224,30.5497244 81.1103879,30.6132597 81.4393939,30.6132597 C81.7683999,30.6132597 82.0802654,30.5497244 82.375,30.4226519 C82.6697345,30.2955795 82.9233394,30.1190926 83.1358225,29.893186 C83.3483055,29.6672794 83.5196602,29.4025491 83.6498917,29.0989871 C83.7801233,28.7954251 83.845238,28.4671595 83.845238,28.1141805 C83.845238,27.7753206 83.7801233,27.4541145 83.6498917,27.1505525 C83.5196602,26.8469905 83.3483055,26.5822602 83.1358225,26.3563536 C82.9233394,26.130447 82.6697345,25.9539601 82.375,25.8268877 C82.0802654,25.6998152 81.7683999,25.6362799 81.4393939,25.6362799 C81.1103879,25.6362799 80.7985224,25.6998152 80.5037878,25.8268877 C80.2090533,25.9539601 79.9554484,26.130447 79.7429653,26.3563536 C79.5304823,26.5822602 79.3591276,26.8434608 79.2288961,27.1399632 C79.0986645,27.4364656 79.0335498,27.754142 79.0335498,28.0930018 Z M75.1060606,28.0506446 C75.1060606,27.2458523 75.2637069,26.4940182 75.5790043,25.7951197 C75.8943017,25.0962212 76.3329698,24.4891063 76.8950216,23.9737569 C77.4570735,23.4584075 78.1253569,23.0524877 78.8998918,22.7559853 C79.6744266,22.4594829 80.5209189,22.3112339 81.4393939,22.3112339 C82.3441603,22.3112339 83.1837984,22.4559531 83.9583333,22.7453959 C84.7328682,23.0348388 85.4045786,23.4372289 85.9734848,23.9525783 C86.542391,24.4679277 86.9844861,25.082102 87.2997835,25.7951197 C87.6150809,26.5081374 87.7727272,27.2952689 87.7727272,28.1565378 C87.7727272,29.0178066 87.6116538,29.8049381 87.2895021,30.5179558 C86.9673504,31.2309735 86.5252553,31.8451478 85.9632034,32.3604972 C85.4011515,32.8758467 84.726014,33.274707 83.9377705,33.5570902 C83.149527,33.8394735 82.2961806,33.980663 81.3777056,33.980663 C80.4729392,33.980663 79.6367282,33.8394735 78.8690476,33.5570902 C78.101367,33.274707 77.4399378,32.8723169 76.8847402,32.3499079 C76.3295427,31.8274989 75.8943017,31.2027354 75.5790043,30.4755985 C75.2637069,29.7484617 75.1060606,28.9401518 75.1060606,28.0506446 Z M95.4220779,25.6362799 C95.0930719,25.6362799 94.7812064,25.6998152 94.4864718,25.8268877 C94.1917373,25.9539601 93.9381324,26.130447 93.7256493,26.3563536 C93.5131663,26.5822602 93.3418116,26.8434608 93.2115801,27.1399632 C93.0813485,27.4364656 93.0162338,27.7612014 93.0162338,28.1141805 C93.0162338,28.4530404 93.0779214,28.7742465 93.2012987,29.0778085 C93.3246759,29.3813705 93.4926035,29.6461008 93.7050866,29.8720074 C93.9175696,30.097914 94.1711746,30.2779306 94.4659091,30.4120626 C94.7606436,30.5461947 95.0793633,30.6132597 95.4220779,30.6132597 C95.7510839,30.6132597 96.0629494,30.5461947 96.357684,30.4120626 C96.6524185,30.2779306 96.9094505,30.097914 97.1287878,29.8720074 C97.3481252,29.6461008 97.5194799,29.3813705 97.6428571,29.0778085 C97.7662343,28.7742465 97.827922,28.4530404 97.827922,28.1141805 C97.827922,27.7753206 97.7662343,27.4541145 97.6428571,27.1505525 C97.5194799,26.8469905 97.3481252,26.5822602 97.1287878,26.3563536 C96.9094505,26.130447 96.6524185,25.9539601 96.357684,25.8268877 C96.0629494,25.6998152 95.7510839,25.6362799 95.4220779,25.6362799 Z M99.5757575,19.7697974 C99.3838374,19.9533465 99.2090556,20.1051252 99.0514069,20.2251381 C98.8937582,20.345151 98.705268,20.4545729 98.4859307,20.553407 C98.2665934,20.6522411 97.9924259,20.7581333 97.6634199,20.8710866 C97.3344139,20.9840399 96.9026,21.1252294 96.3679653,21.2946593 C95.9018735,21.4499701 95.5248932,21.5770406 95.237013,21.6758748 C94.9491327,21.7747089 94.7160903,21.8664821 94.5378788,21.9511971 C94.3596672,22.035912 94.2191563,22.1241555 94.116342,22.21593 C94.0135276,22.3077046 93.9141419,22.4171264 93.8181818,22.5441989 L93.6948052,22.713628 C94.0101026,22.5865555 94.3288223,22.4877229 94.650974,22.4171271 C94.9731257,22.3465313 95.3398248,22.3112339 95.7510822,22.3112339 C96.5873057,22.3112339 97.3721103,22.4594829 98.1055194,22.7559853 C98.8389286,23.0524877 99.4797952,23.4619372 100.028138,23.9843462 C100.576482,24.5067552 101.004869,25.127989 101.313312,25.8480663 C101.621755,26.5681436 101.775974,27.3588048 101.775974,28.2200737 C101.775974,29.0531042 101.621755,29.822587 101.313312,30.5285451 C101.004869,31.2345032 100.569628,31.8416181 100.007576,32.3499079 C99.4455238,32.8581978 98.760105,33.2570581 97.9512987,33.5465009 C97.1424923,33.8359437 96.2377395,33.980663 95.237013,33.980663 C94.318538,33.980663 93.482327,33.846533 92.728355,33.5782689 C91.9743829,33.3100048 91.3266622,32.8934958 90.7851732,32.3287293 C90.2436842,31.7639628 89.8255787,31.0403666 89.5308442,30.157919 C89.2361096,29.2754713 89.0887446,28.2200798 89.0887446,26.9917127 C89.0887446,25.01503 89.4725791,23.3313452 90.2402597,21.9406077 C91.0079403,20.5498703 92.1183188,19.5368356 93.5714286,18.9014733 C93.7496401,18.8167583 93.8935781,18.7567528 94.0032467,18.7214549 C94.1129154,18.686157 94.2328637,18.6508596 94.3630952,18.6155617 C94.4933268,18.5802638 94.6578273,18.5308475 94.8566017,18.4673112 C95.0553762,18.403775 95.3466792,18.3084721 95.7305195,18.1813996 C96.3336971,17.9837314 96.840907,17.8072445 97.2521645,17.6519337 C97.6634219,17.4966229 98.0129855,17.3377847 98.3008658,17.1754144 C98.588746,17.013044 98.8286426,16.8400869 99.0205627,16.6565378 C99.2124829,16.4729886 99.397546,16.2541449 99.5757575,16 L99.5757575,19.7697974 Z M111.892857,28.1777164 C111.892857,27.8388565 111.834597,27.5176504 111.718074,27.2140884 C111.601551,26.9105264 111.433623,26.6457961 111.214286,26.4198895 C110.994948,26.1939829 110.737916,26.0139663 110.443182,25.8798343 C110.148447,25.7457022 109.829728,25.6786372 109.487013,25.6786372 C109.158007,25.6786372 108.849569,25.7421725 108.561688,25.8692449 C108.273808,25.9963174 108.02363,26.1728043 107.811147,26.3987109 C107.598664,26.6246175 107.427309,26.8893478 107.297078,27.1929098 C107.166846,27.4964717 107.101732,27.8176779 107.101732,28.1565378 C107.101732,28.4953976 107.163419,28.813074 107.286797,29.1095764 C107.410174,29.4060788 107.581528,29.6637497 107.800866,29.8825967 C108.020203,30.1014437 108.277235,30.2779306 108.57197,30.4120626 C108.866704,30.5461947 109.17857,30.6132597 109.507576,30.6132597 C109.836582,30.6132597 110.14502,30.5497244 110.4329,30.4226519 C110.720781,30.2955795 110.970959,30.1190926 111.183442,29.893186 C111.395925,29.6672794 111.567279,29.4060788 111.697511,29.1095764 C111.827742,28.813074 111.892857,28.5024571 111.892857,28.1777164 Z M107.204545,39 L103.482684,39 L103.482684,22.713628 L107.204545,22.713628 L107.204545,23.9208103 C107.999643,22.8901115 109.082605,22.3747698 110.453463,22.3747698 C111.207435,22.3747698 111.90999,22.5265485 112.561147,22.8301105 C113.212305,23.1336725 113.777775,23.5466518 114.257576,24.0690608 C114.737376,24.5914698 115.110929,25.2056441 115.378247,25.9116022 C115.645564,26.6175603 115.779221,27.3729242 115.779221,28.1777164 C115.779221,28.9825086 115.645564,29.730813 115.378247,30.4226519 C115.110929,31.1144909 114.740803,31.7216057 114.267857,32.2440147 C113.794911,32.7664237 113.236295,33.1758733 112.591991,33.4723757 C111.947688,33.7688781 111.248561,33.9171271 110.494589,33.9171271 C109.178565,33.9171271 108.081895,33.4512017 107.204545,32.519337 L107.204545,39 Z M125.19697,26.56814 C125.073592,26.0316118 124.819987,25.6009838 124.436147,25.2762431 C124.052307,24.9515024 123.586222,24.7891344 123.037879,24.7891344 C122.462118,24.7891344 121.992606,24.9444429 121.629329,25.2550645 C121.266052,25.565686 121.036436,26.0033735 120.940476,26.56814 L125.19697,26.56814 Z M120.837662,28.7918969 C120.837662,30.4438388 121.591623,31.2697974 123.099567,31.2697974 C123.908373,31.2697974 124.518396,30.9309426 124.929654,30.2532228 L128.528139,30.2532228 C127.801584,32.7381954 125.985224,33.980663 123.079004,33.980663 C122.187946,33.980663 121.372298,33.8430032 120.632035,33.5676796 C119.891771,33.2923559 119.257759,32.900555 118.729978,32.3922652 C118.202198,31.8839754 117.794374,31.2768605 117.506494,30.5709024 C117.218613,29.8649443 117.074675,29.0742831 117.074675,28.198895 C117.074675,27.2952687 117.211759,26.4798993 117.485931,25.7527624 C117.760102,25.0256256 118.150791,24.4079215 118.658009,23.8996317 C119.165226,23.3913418 119.778676,22.999541 120.498377,22.7242173 C121.218077,22.4488937 122.030299,22.3112339 122.935065,22.3112339 C123.826123,22.3112339 124.628063,22.4488937 125.340909,22.7242173 C126.053755,22.999541 126.656924,23.3984013 127.150433,23.9208103 C127.643942,24.4432193 128.020922,25.0821018 128.281385,25.837477 C128.541848,26.5928522 128.672078,27.4435189 128.672078,28.3895028 L128.672078,28.7918969 L120.837662,28.7918969 Z M137.884199,26.4622468 L137.884199,22.713628 L141.606061,22.713628 L141.606061,33.5782689 L137.884199,33.5782689 L137.884199,29.6178637 L134.100649,29.6178637 L134.100649,33.5782689 L130.378788,33.5782689 L130.378788,22.713628 L134.100649,22.713628 L134.100649,26.4622468 L137.884199,26.4622468 Z M147.260823,28.0930018 C147.260823,28.4601001 147.325937,28.7954251 147.456169,29.0989871 C147.5864,29.4025491 147.757755,29.6672794 147.970238,29.893186 C148.182721,30.1190926 148.436326,30.2955795 148.731061,30.4226519 C149.025795,30.5497244 149.337661,30.6132597 149.666667,30.6132597 C149.995673,30.6132597 150.307538,30.5497244 150.602273,30.4226519 C150.897007,30.2955795 151.150612,30.1190926 151.363095,29.893186 C151.575578,29.6672794 151.746933,29.4025491 151.877165,29.0989871 C152.007396,28.7954251 152.072511,28.4671595 152.072511,28.1141805 C152.072511,27.7753206 152.007396,27.4541145 151.877165,27.1505525 C151.746933,26.8469905 151.575578,26.5822602 151.363095,26.3563536 C151.150612,26.130447 150.897007,25.9539601 150.602273,25.8268877 C150.307538,25.6998152 149.995673,25.6362799 149.666667,25.6362799 C149.337661,25.6362799 149.025795,25.6998152 148.731061,25.8268877 C148.436326,25.9539601 148.182721,26.130447 147.970238,26.3563536 C147.757755,26.5822602 147.5864,26.8434608 147.456169,27.1399632 C147.325937,27.4364656 147.260823,27.754142 147.260823,28.0930018 Z M143.333333,28.0506446 C143.333333,27.2458523 143.49098,26.4940182 143.806277,25.7951197 C144.121575,25.0962212 144.560243,24.4891063 145.122294,23.9737569 C145.684346,23.4584075 146.35263,23.0524877 147.127165,22.7559853 C147.901699,22.4594829 148.748192,22.3112339 149.666667,22.3112339 C150.571433,22.3112339 151.411071,22.4559531 152.185606,22.7453959 C152.960141,23.0348388 153.631851,23.4372289 154.200758,23.9525783 C154.769664,24.4679277 155.211759,25.082102 155.527056,25.7951197 C155.842354,26.5081374 156,27.2952689 156,28.1565378 C156,29.0178066 155.838927,29.8049381 155.516775,30.5179558 C155.194623,31.2309735 154.752528,31.8451478 154.190476,32.3604972 C153.628424,32.8758467 152.953287,33.274707 152.165043,33.5570902 C151.3768,33.8394735 150.523453,33.980663 149.604978,33.980663 C148.700212,33.980663 147.864001,33.8394735 147.09632,33.5570902 C146.32864,33.274707 145.667211,32.8723169 145.112013,32.3499079 C144.556815,31.8274989 144.121575,31.2027354 143.806277,30.4755985 C143.49098,29.7484617 143.333333,28.9401518 143.333333,28.0506446 Z" id="Одобрено"></path>
                <g id="Group-27" fill-rule="nonzero">
                    <polygon id="Shape-Copy" points="27.6923077 20.2130792 24.6230769 17.0965251 16.7307692 25.1105212 13.2230769 21.5487452 10.1538462 24.6652992 16.7307692 31.3436293"></polygon>
                    <path d="M30.6527553,15.35814 L18.0054494,5.82771142 L5.33274337,15.3772804 L5.33274337,35.3951851 L30.6527553,35.3951851 L30.6527553,15.35814 Z M34.4380201,14.0183417 L35.1494621,14.0183417 L35.1494621,39.2163923 L34.4504088,39.2163923 L34.4504088,39.8918919 L1.1258408,39.8918919 L1.1258408,39.2163923 L0.836036568,39.2163923 L0.836036568,14.0183417 L1.57287874,14.0183417 L0.881593614,13.1009754 L17.9240093,0.25859406 L18.0054494,0.366668812 L18.0868896,0.25859406 L35.1293053,13.1009754 L34.4380201,14.0183417 Z" id="Combined-Shape"></path>
                </g>
            </g>
        </g>
    </g>
</svg>