<svg id="Layer_1" data-name="Layer 1" xmlns="http://www.w3.org/2000/svg" viewBox="0 0 169 60"><title>Монтажная область 1</title><path d="M48.8,8H8.57L11.43.08H51.67Zm-1.43,4H7.13L4.27,20H44.51Zm-4.3,12H2.71L-.16,32H40.08Z" fill="#ffffff"/><path d="M144.91,51.91h7.16c2.73,0,4.43-.65,5.6-2.21a7.39,7.39,0,0,0,1.43-4.56,6.3,6.3,0,0,0-2.47-5.47,7.09,7.09,0,0,0-4.56-1.17h-7.16ZM135.27,60V12.06h31.25l-2.73,8.07H144.91V30.68h7.68c6.25,0,9.51,1.43,11.72,3.39C166,35.5,169,38.88,169,45.39s-3.13,10-5.6,11.85c-3,2.08-6.12,2.6-12.5,2.6H135.27Zm-27.61,0V20.13H93.86V12.06h38.42l-2.73,8.07H117.3V60ZM69.38,31.2h5.34A10.32,10.32,0,0,0,78,30.94a5.19,5.19,0,0,0,3.65-5.34c0-3.26-1.43-4.69-3.65-5.34a12.25,12.25,0,0,0-3.65-.39H69.25V31.2Zm0,8.33V52.17H76c2,0,3.78-.13,5.08-1.43a6.57,6.57,0,0,0,2-4.95,6.38,6.38,0,0,0-1.3-4.17c-1.43-1.69-3.13-2.21-6.12-2.21H69.38Zm15.37-5.08v.13a15.25,15.25,0,0,1,4.43,2.6c2.86,2.34,4,5.34,4,9.38,0,6.51-3.52,11.33-9.25,12.76a23,23,0,0,1-6.9.65H59.74V12.06H75.11a26.74,26.74,0,0,1,7.16.65C87.87,14.14,91.52,18,91.52,24a10.48,10.48,0,0,1-3.13,7.81A10.52,10.52,0,0,1,84.75,34.46Z" fill="#ffffff"/></svg>