<?xml version="1.0" encoding="UTF-8" standalone="no"?>
<svg width="22px" height="14px" viewBox="0 0 22 14" version="1.1" xmlns="http://www.w3.org/2000/svg" xmlns:xlink="http://www.w3.org/1999/xlink">
    <!-- Generator: Sketch 46.2 (44496) - http://www.bohemiancoding.com/sketch -->
    <title>vkontakte</title>
    <desc>Created with Sketch.</desc>
    <defs></defs>
    <g id="Page-1" stroke="none" stroke-width="1" fill="none" fill-rule="evenodd">
        <g id="Desktop-HD-Copy" transform="translate(-1067.000000, -4576.000000)" fill-rule="nonzero" fill="#5293B7">
            <g id="Group-21" transform="translate(150.000000, 4512.000000)">
                <g id="Group-16" transform="translate(905.000000, 47.000000)">
                    <g id="if_vkontakte_633193" transform="translate(12.000000, 17.000000)">
                        <path d="M0.00374744063,1.02430688 C-0.146987561,0.127965418 4.29969378,0.682926831 4.29969378,0.682926831 C4.29969378,0.682926831 6.88102998,7.00000012 7.89849095,7.00000001 C8.91595192,6.99999989 8.42606332,1.64329268 8.42606332,1.64329268 C8.42606332,1.64329268 7.16365799,1.32317073 7.16365802,0.832317075 C7.16365808,0.341463415 8.42606332,0 8.42606332,0 C8.42606332,0 11.6930823,4.29046734e-08 12.1379117,0 C12.5827411,-4.34848397e-08 12.7597666,0.704268328 12.759767,1.17378049 C12.7597674,1.64329265 12.759767,6.91463415 12.759767,6.91463415 L13.777228,6.91463415 C13.777228,6.91463415 14.682933,5.49604953 15.3975552,4.05487804 C16.1121775,2.6137066 16.9802723,0.682926831 16.9802723,0.682926831 L21.2950605,0.682926831 C21.2950605,0.682926831 22.086419,0.704101567 21.9922097,1.34442883 C21.8640457,2.21554112 18.9934455,6.35230423 18.3934125,7.76820932 C17.9412076,8.8352825 20.2930826,10.279572 21.2950605,11.8230874 C21.9453576,12.8248495 21.9922097,14 21.9922097,14 L16.8672947,14 L14.3047268,11.0974776 C14.3047268,11.0974776 13.777228,10.8841464 13.3626332,11.1828435 C12.9480385,11.4815406 12.9292702,12.0791849 12.9292702,12.0791849 L12.9292702,14 L8.91595192,14 C8.91595192,14 5.84472712,12.9756098 3.24454907,8.49390244 C0.644370738,4.01219518 0.1544824,1.92064834 0.00374744063,1.02430688 Z" id="vkontakte"></path>
                    </g>
                </g>
            </g>
        </g>
    </g>
</svg>