<?xml version="1.0" encoding="UTF-8" standalone="no"?>
<svg width="10px" height="20px" viewBox="0 0 10 20" version="1.1" xmlns="http://www.w3.org/2000/svg" xmlns:xlink="http://www.w3.org/1999/xlink">
    <!-- Generator: Sketch 46.2 (44496) - http://www.bohemiancoding.com/sketch -->
    <title>facebook</title>
    <desc>Created with Sketch.</desc>
    <defs></defs>
    <g id="Page-1" stroke="none" stroke-width="1" fill="none" fill-rule="evenodd">
        <g id="Desktop-HD-Copy" transform="translate(-1134.000000, -4573.000000)" fill-rule="nonzero" fill="#5293B7">
            <g id="Group-21" transform="translate(150.000000, 4512.000000)">
                <g id="Group-16" transform="translate(905.000000, 47.000000)">
                    <g id="if_facebook_633198" transform="translate(79.000000, 14.000000)">
                        <path d="M2.23188406,20 L6.6884058,20 L6.65217389,10.0202567 L9.62318841,10.0202567 L10,6.56313312 L6.6884058,6.56313312 L6.6884058,4.45642207 C6.6884058,4.45642207 6.6884058,3.89598997 7.02173911,3.68669831 C7.35507246,3.47740667 7.73913042,3.4571237 7.73913042,3.4571237 L10,3.4571237 L10,1.5524364e-07 C10,1.5524364e-07 8.04256792,-1.94054551e-07 6.9057971,1.5524364e-07 C5.76902629,4.99264833e-07 4.48845016,0.33844426 3.84057971,0.729237151 C2.34057971,1.6340312 2.23188406,3.78122902 2.23188406,3.78122902 L2.23188406,6.56313312 L0,6.56313312 L0,9.9797435 L2.23188406,9.9797435 L2.23188406,20 Z" id="facebook"></path>
                    </g>
                </g>
            </g>
        </g>
    </g>
</svg>