<?xml version="1.0" encoding="UTF-8" standalone="no"?>
<svg width="101px" height="27px" viewBox="0 0 101 27" version="1.1" xmlns="http://www.w3.org/2000/svg" xmlns:xlink="http://www.w3.org/1999/xlink">
    <!-- Generator: Sketch 46.2 (44496) - http://www.bohemiancoding.com/sketch -->
    <title>VTB24_Logo (1)</title>
    <desc>Created with Sketch.</desc>
    <defs></defs>
    <g id="Page-1" stroke="none" stroke-width="1" fill="none" fill-rule="evenodd">
        <g id="Desktop-HD-Copy" transform="translate(-342.000000, -4551.000000)" fill-rule="nonzero" fill="#96B6CA">
            <g id="Group-21" transform="translate(150.000000, 4512.000000)">
                <g id="Group-17" transform="translate(13.000000, 30.000000)">
                    <g id="VTB24_Logo-(1)" transform="translate(179.000000, 9.000000)">
                        <path d="M29.2865968,9 L29,9 L29,27 L36.3617588,27 C39.7870107,27 42,24.977563 42,21.8479825 C42,20.2829338 41.4911069,19.1628625 40.3504936,18.2170591 C39.9342459,17.8698163 39.4712818,17.6278064 38.9886338,17.4344054 C39.3602649,17.2534151 39.715099,17.0403637 40.0282034,16.7621558 C40.8704096,15.9885516 41.3134274,14.9103667 41.3134274,13.639815 C41.3134274,12.3268598 40.8189692,11.2409182 39.8019704,10.3196777 C38.5621505,9.22054958 37.1399269,9 35.2466033,9 L29.2865968,9 Z M34.8395413,12.5430139 C35.1471342,12.5430139 35.7205903,12.5430139 36.1985141,12.7454645 C36.7163305,12.9629114 37.0378334,13.5350992 37.0378334,14.2417369 C37.0378334,14.7223954 36.872489,15.197107 36.6071508,15.4797104 C36.1948398,15.9303762 35.7121919,15.9665743 35.1694426,15.9665743 C35.1694426,15.9665743 33.5175741,15.9665743 33.073769,15.9665743 C33.073769,15.5159085 33.073769,12.9941968 33.073769,12.5430139 C33.4984152,12.5430139 34.8395413,12.5430139 34.8395413,12.5430139 Z M35.3460723,19.4206444 C35.8793733,19.4206444 36.4302586,19.4749415 36.8470313,19.8671732 C37.1950417,20.1906287 37.4189126,20.8003074 37.4189126,21.4205869 C37.4189126,21.9395119 37.2619668,22.4568855 36.9884925,22.8398092 C36.5362889,23.452332 36.0441928,23.5723027 35.3463348,23.5723027 C35.3463348,23.5723027 33.5745261,23.5723027 33.1241597,23.5723027 C33.1241597,23.1050893 33.1241597,19.8886335 33.1241597,19.4206444 C33.5742636,19.4206444 35.3460723,19.4206444 35.3460723,19.4206444 Z" id="Shape"></path>
                        <path d="M56.5878527,9 L42,9 L42,12.4505526 C42,12.4505526 46.638569,12.4593254 47.152237,12.4600995 C47.152237,13.0014335 47.152237,27 47.152237,27 L51.2942779,27 C51.2942779,27 51.2942779,12.996789 51.2942779,12.4559711 C51.7979256,12.454423 55.8062758,12.4559711 55.8062758,12.4559711 L57,9 L56.5878527,9 Z" id="Shape"></path>
                        <path d="M70.9186068,9 L59,9 L59,27 L65.8171721,27 C67.361048,27 68.8099684,26.6165378 69.7914361,25.9472219 C70.7982776,25.2673189 72,23.9175836 72,21.3500653 C72,18.9421292 70.8343763,17.6484284 70.1409139,17.0914399 C69.3995815,16.5011405 68.0223354,15.7977391 65.6659758,15.7977391 C65.6659758,15.7977391 63.5628308,15.7977391 63.0998249,15.7977391 C63.0998249,15.3504956 63.0998249,12.9092487 63.0998249,12.4614888 C63.6297966,12.4614888 69.9973037,12.4614888 69.9973037,12.4614888 L71.2039962,9 L70.9186068,9 Z M65.156931,19.2241095 C65.7337264,19.2241095 66.2809626,19.3635503 66.6176228,19.5990503 C67.1530877,19.968052 67.4125802,20.5405339 67.4125802,21.3500653 C67.4125802,22.2011706 67.158581,22.6140703 66.966839,22.850345 C66.6045435,23.3024947 66.0536451,23.5219849 65.2827535,23.5219849 C65.2827535,23.5219849 63.5471356,23.5219849 63.0995634,23.5219849 C63.0995634,23.0520177 63.0995634,19.6938184 63.0995634,19.2241095 C63.5400728,19.2241095 65.156931,19.2241095 65.156931,19.2241095 Z" id="Shape"></path>
                        <path d="M74.274357,10.1500513 C74.2738374,10.1503045 74.2044687,10.1852467 74.1447129,10.2151247 C74.1441933,10.3622361 74.1428943,13.6176764 74.1426345,13.9901391 C74.3439855,13.8944281 74.6412055,13.7539 74.6412055,13.7539 C75.001299,13.5437409 76.9350481,12.4640802 78.6812159,12.3757121 C79.4016628,12.3387444 80.0478046,12.5489035 80.4998701,12.9671961 C80.8693167,13.3085147 81.0727462,13.7655474 81.0727462,14.2542306 C81.0727462,15.8734685 79.9217979,16.6892909 78.5315666,17.5157479 C75.1163939,19.5112465 73,21.5910619 73,25.789433 C73,25.789433 73.0041569,26.78503 73.0051962,27 C73.2670824,26.9997468 84.0982073,26.9982276 84.3606131,26.9982276 C84.360873,26.7612289 84.3600935,23.8309021 84.3606131,23.593397 C84.0987269,23.593397 77.3273578,23.593397 77.3273578,23.593397 L77.3691868,23.4290678 C77.6560145,22.3076285 78.382437,21.4555979 79.7991686,20.5790066 C79.8015069,20.5777406 81.5658613,19.5165637 81.5658613,19.5165637 C83.6422447,18.2773847 84.958171,16.2264345 85,14.1628241 L85,14.0397671 C85,12.6653772 84.5289686,11.4715216 83.6375682,10.5855618 C82.5949597,9.54793287 81.0727462,9 79.2348662,9 C77.6336711,9 75.6869317,9.45146225 74.274357,10.1500513 Z" id="Shape"></path>
                        <path d="M93.3509309,9 C93.2709553,9.12196834 86.0430032,20.2646659 86,20.3304205 C86,20.4046845 86,23.2452833 86,23.4912829 C86.2658858,23.4912829 94.1522594,23.4912829 94.1522594,23.4912829 C94.1522594,23.4912829 94.1522594,26.7491011 94.1522594,27 C94.3955948,27 97.321388,27 97.5649856,27 C97.5649856,26.7488432 97.5649856,23.4912829 97.5649856,23.4912829 L99.8129534,23.4912829 L101,20.0292386 L97.5647234,20.0292386 L97.5647234,16.4836473 L94.1519972,16.4836473 L94.1519972,20.0292386 L90.1246395,20.0292386 C90.4156979,19.5405916 96.26204,10.4984313 97.2361682,9 C96.8035137,9 93.4864959,9 93.3509309,9 Z" id="Shape"></path>
                        <path d="M17.3506982,8.99806249 L3.12916219,8.99806249 C3.12916219,8.99806249 3.55800215,10.3209955 4.05531686,10.9980912 C4.19092374,10.9980912 16.7086466,10.9980912 16.7086466,10.9980912 C16.7086466,10.9980912 19.1235231,12.8190938 20.2787325,16.0022963 L6.97851772,16.0022963 C4.68367347,14.2017021 2.9650913,11.7679292 2.06256713,8.99806249 C2.17696026,8.65886878 2.30397422,8.32587511 2.44307197,7.99882314 L17.343985,7.99882314 C18.5059076,7.2217518 19.66058,5.9985361 19.66058,5.9985361 L3.48549946,5.9985361 C3.70005371,5.65598404 3.9283029,5.32299037 4.17024705,4.99981342 L20.5064447,4.99981342 C20.9377014,4.4968354 21.8042427,2.99952639 21.8042427,2.99952639 L5.97207304,2.99952639 C6.35257787,2.64664093 6.7518797,2.31338892 7.16863588,2.00028704 L22.2900107,2.00028704 C22.7043502,1.04522296 23,0 23,0 L6.57465091,0 C3.43609023,2.14934627 1.06954887,5.29844856 0,8.99806249 C1.0604189,12.6563428 3.40520945,15.8305036 6.56686359,18 L22.9570354,18 C22.9570354,18 22.6689044,13.2127962 17.3506982,8.99806249 Z" id="Shape"></path>
                    </g>
                </g>
            </g>
        </g>
    </g>
</svg>