<?xml version="1.0" encoding="UTF-8" standalone="no"?>
<svg width="23px" height="15px" viewBox="0 0 23 15" version="1.1" xmlns="http://www.w3.org/2000/svg" xmlns:xlink="http://www.w3.org/1999/xlink">
    <!-- Generator: Sketch 46.2 (44496) - http://www.bohemiancoding.com/sketch -->
    <title>twitter</title>
    <desc>Created with Sketch.</desc>
    <defs></defs>
    <g id="Page-1" stroke="none" stroke-width="1" fill="none" fill-rule="evenodd">
        <g id="Desktop-HD-Copy" transform="translate(-1253.000000, -4575.000000)" fill-rule="nonzero" fill="#5293B7">
            <g id="Group-21" transform="translate(150.000000, 4512.000000)">
                <g id="Group-16" transform="translate(905.000000, 47.000000)">
                    <g id="if_twitter_633188" transform="translate(198.000000, 16.000000)">
                        <path d="M0,10.5102532 C0,10.5102532 0.877378057,11.9923744 2.50151434,12.9349563 C4.34415767,14.0043564 5.7371819,14.5600215 7.74928068,14.6632532 C9.7613571,14.7663527 10.8524478,14.9232049 13.7238958,13.8535404 C16.807152,12.7049064 17.8272219,11.2401741 18.6725507,10.1415037 C19.5179018,9.04281857 19.7946388,7.7760167 19.7946388,7.7760167 C19.7946388,7.7760167 20.6033261,7.7797177 21.2012803,7.55748104 C21.9220595,7.2896133 22.4319937,6.79580789 22.4319937,6.79580789 C22.4319937,6.79580789 21.7070263,6.84427346 21.0182075,6.77001833 C20.5106474,6.7152963 20.0393481,6.53786825 20.0393481,6.53786825 C20.0393481,6.53786825 20.9586988,6.48364556 21.5620059,6.17674101 C22.1106644,5.89763807 22.3432793,5.36582391 22.3432793,5.36582391 C22.3432793,5.36582391 21.8458875,5.54285542 21.2964451,5.55928965 C20.524444,5.5823622 19.7348389,5.45610205 19.7348389,5.45610205 C19.7348389,5.45610205 19.5716994,4.319511 18.4623103,2.82342292 C17.3528989,1.3273275 14.9615299,1.35474432 14.9615299,1.35474432 C14.9615299,1.35474432 16.9356434,0.760036534 16.8326622,0.418135438 C16.7297033,0.076234488 15.2266428,0.579279051 15.2266428,0.579279051 C15.2266428,0.579279051 15.860477,0.0124369086 15.6684902,0.000520840548 C15.3540591,-0.0189949814 14.2138071,0.51641627 14.2138071,0.51641627 L14.2817819,0.129495065 C14.2817819,0.129495065 12.5161169,1.80693837 11.7734559,3.0039792 C11.1158137,4.06397996 10.7402166,5.1965322 10.7402166,5.1965322 L9.10879904,4.00997756 C9.10879904,4.00997756 4.35047363,1.14676388 3.29004438,1.66265784 C2.22961515,2.1785518 5.13898129,4.319511 5.13898129,4.319511 C5.13898129,4.319511 3.31723429,3.80361704 3.86103267,4.99018637 C4.40485346,6.17674101 6.22660042,6.53786825 6.22660042,6.53786825 C6.22660042,6.53786825 4.45923331,6.53786825 4.92146192,7.44067901 C5.38371294,8.34348977 7.36859944,8.47246693 7.36859944,8.47246693 C7.36859944,8.47246693 6.36255002,8.78200037 6.66166152,9.55584866 C6.96075065,10.3296823 8.32026898,10.3296969 8.32026898,10.3296969 C8.32026898,10.3296969 7.15108007,11.5162516 4.7311325,11.9289579 C2.31118491,12.341679 0,10.5102532 0,10.5102532 Z" id="twitter"></path>
                    </g>
                </g>
            </g>
        </g>
    </g>
</svg>