<?xml version="1.0" encoding="UTF-8" standalone="no"?>
<svg width="153px" height="39px" viewBox="0 0 153 39" version="1.1" xmlns="http://www.w3.org/2000/svg" xmlns:xlink="http://www.w3.org/1999/xlink">
    <!-- Generator: Sketch 46.2 (44496) - http://www.bohemiancoding.com/sketch -->
    <title>Group 18 Copy 18</title>
    <desc>Created with Sketch.</desc>
    <defs></defs>
    <g id="Page-1" stroke="none" stroke-width="1" fill="none" fill-rule="evenodd">
        <g id="Desktop-HD-Copy" transform="translate(-163.000000, -4543.000000)" fill="#96B6CA">
            <g id="Group-21" transform="translate(150.000000, 4512.000000)">
                <g id="Group-17" transform="translate(13.000000, 30.000000)">
                    <g id="Group-18">
                        <g id="Group-20">
                            <g id="Group-18-Copy-18">
                                <path d="M45.1242173,24.9697417 C45.1242173,25.59611 45.2387125,26.1737521 45.4677064,26.7026853 C45.6967003,27.2316186 46.0065109,27.6909484 46.3971475,28.0806887 C46.7877841,28.4704289 47.2423975,28.7731691 47.7610012,28.9889182 C48.279605,29.2046672 48.8285086,29.3125402 49.4077284,29.3125402 C49.9869482,29.3125402 50.5358518,29.2046672 51.0544555,28.9889182 C51.5730593,28.7731691 52.0310402,28.4704289 52.4284119,28.0806887 C52.8257837,27.6909484 53.1389618,27.2316186 53.3679556,26.7026853 C53.5969495,26.1737521 53.7114447,25.59611 53.7114447,24.9697417 C53.7114447,24.3433735 53.5969495,23.7657314 53.3679556,23.2367981 C53.1389618,22.7078649 52.8257837,22.2485351 52.4284119,21.8587948 C52.0310402,21.4690545 51.5730593,21.1663144 51.0544555,20.9505653 C50.5358518,20.7348163 49.9869482,20.6269433 49.4077284,20.6269433 C48.8285086,20.6269433 48.279605,20.7348163 47.7610012,20.9505653 C47.2423975,21.1663144 46.7877841,21.4690545 46.3971475,21.8587948 C46.0065109,22.2485351 45.6967003,22.7078649 45.4677064,23.2367981 C45.2387125,23.7657314 45.1242173,24.3433735 45.1242173,24.9697417 Z M40.9821429,24.9697417 C40.9821429,23.8005209 41.1909283,22.7113524 41.6085053,21.7022035 C42.0260824,20.6930546 42.6052935,19.8126724 43.3461561,19.0610305 C44.0870186,18.3093885 44.9726728,17.7213071 46.0031453,17.2967686 C47.0336177,16.8722301 48.1684674,16.659964 49.4077284,16.659964 C50.6335191,16.659964 51.7650013,16.8722301 52.8022089,17.2967686 C53.8394165,17.7213071 54.7318057,18.3093885 55.4794033,19.0610305 C56.227001,19.8126724 56.8095796,20.6930546 57.2271567,21.7022035 C57.6447338,22.7113524 57.8535192,23.8005209 57.8535192,24.9697417 C57.8535192,26.1389625 57.6447338,27.2281311 57.2271567,28.23728 C56.8095796,29.2464289 56.227001,30.1268111 55.4794033,30.878453 C54.7318057,31.630095 53.8394165,32.2181764 52.8022089,32.6427149 C51.7650013,33.0672534 50.6335191,33.2795195 49.4077284,33.2795195 C48.1684674,33.2795195 47.0336177,33.0672534 46.0031453,32.6427149 C44.9726728,32.2181764 44.0870186,31.630095 43.3461561,30.878453 C42.6052935,30.1268111 42.0260824,29.2464289 41.6085053,28.23728 C41.1909283,27.2281311 40.9821429,26.1389625 40.9821429,24.9697417 Z M67.3297773,25.2829243 L64.5616593,25.2829243 L64.5616593,28.4982655 C64.5616593,28.7766514 64.5549243,28.9993567 64.541454,29.1663883 C64.5279838,29.3334198 64.5077788,29.5074084 64.4808383,29.6883592 L67.3297773,29.6883592 L67.3297773,25.2829243 Z M59.9346591,29.6883592 C60.2983552,29.6883592 60.5475507,29.5630875 60.682253,29.3125402 C60.8169553,29.0619928 60.8843054,28.6722584 60.8843054,28.1433252 L60.8843054,22.1302197 L70.9869259,22.1302197 L70.9869259,29.6883592 L72.2194457,29.6883592 L72.2194457,35.0333419 L68.562297,35.0333419 L68.562297,32.8410639 L63.0866767,32.8410639 L63.0866767,35.0333419 L59.429528,35.0333419 L59.429528,29.6883592 L59.9346591,29.6883592 Z M77.3717822,27.4334447 C77.3717822,27.7953464 77.4357648,28.1259247 77.563732,28.4251895 C77.6916992,28.7244544 77.8600745,28.9854372 78.068863,29.208146 C78.2776516,29.4308547 78.526847,29.6048433 78.816457,29.7301169 C79.1060669,29.8553906 79.4125099,29.9180265 79.7357954,29.9180265 C80.0590809,29.9180265 80.365524,29.8553906 80.6551339,29.7301169 C80.9447438,29.6048433 81.1939393,29.4308547 81.4027278,29.208146 C81.6115163,28.9854372 81.7798917,28.7244544 81.9078588,28.4251895 C82.035826,28.1259247 82.0998086,27.8023059 82.0998086,27.4543235 C82.0998086,27.1202604 82.035826,26.8036012 81.9078588,26.5043364 C81.7798917,26.2050715 81.6115163,25.9440887 81.4027278,25.7213799 C81.1939393,25.4986712 80.9447438,25.3246826 80.6551339,25.199409 C80.365524,25.0741353 80.0590809,25.0114994 79.7357954,25.0114994 C79.4125099,25.0114994 79.1060669,25.0741353 78.816457,25.199409 C78.526847,25.3246826 78.2776516,25.4986712 78.068863,25.7213799 C77.8600745,25.9440887 77.6916992,26.2015918 77.563732,26.493897 C77.4357648,26.7862022 77.3717822,27.0993816 77.3717822,27.4334447 Z M73.5125812,27.391687 C73.5125812,26.5982872 73.6674865,25.8570958 73.9773017,25.1680907 C74.287117,24.4790856 74.7181578,23.8805649 75.2704371,23.3725106 C75.8227165,22.8644563 76.4793803,22.4642826 77.2404481,22.1719774 C78.001516,21.8796722 78.8332901,21.7335218 79.7357954,21.7335218 C80.6248305,21.7335218 81.4498696,21.8761924 82.2109375,22.161538 C82.9720053,22.4468835 83.6320366,22.8435775 84.1910511,23.3516318 C84.7500655,23.859686 85.1844739,24.4651663 85.4942891,25.1680907 C85.8041044,25.8710151 85.9590097,26.6470042 85.9590097,27.4960812 C85.9590097,28.3451582 85.8007369,29.1211473 85.4841865,29.8240717 C85.1676361,30.5269961 84.7332278,31.1324764 84.1809485,31.6405306 C83.6286691,32.1485849 82.9652703,32.5417991 82.1907322,32.820185 C81.4161941,33.0985709 80.577685,33.2377618 79.6751797,33.2377618 C78.7861446,33.2377618 77.9644731,33.0985709 77.2101403,32.820185 C76.4558075,32.5417991 75.8058788,32.1451051 75.2603345,31.6300912 C74.7147903,31.1150773 74.287117,30.4991577 73.9773017,29.782314 C73.6674865,29.0654703 73.5125812,28.2686026 73.5125812,27.391687 Z M93.4753594,25.0114994 C93.152074,25.0114994 92.8456309,25.0741353 92.556021,25.199409 C92.2664111,25.3246826 92.0172156,25.4986712 91.808427,25.7213799 C91.5996385,25.9440887 91.4312632,26.2015918 91.303296,26.493897 C91.1753289,26.7862022 91.1113462,27.1063411 91.1113462,27.4543235 C91.1113462,27.7883866 91.1719613,28.1050458 91.2931934,28.4043107 C91.4144255,28.7035755 91.5794333,28.9645584 91.7882218,29.1872671 C91.9970103,29.4099758 92.2462058,29.5874442 92.5358157,29.7196775 C92.8254256,29.8519108 93.1386037,29.9180265 93.4753594,29.9180265 C93.7986449,29.9180265 94.105088,29.8519108 94.3946979,29.7196775 C94.6843078,29.5874442 94.9368708,29.4099758 95.1523944,29.1872671 C95.3679181,28.9645584 95.5362934,28.7035755 95.6575255,28.4043107 C95.7787575,28.1050458 95.8393726,27.7883866 95.8393726,27.4543235 C95.8393726,27.1202604 95.7787575,26.8036012 95.6575255,26.5043364 C95.5362934,26.2050715 95.3679181,25.9440887 95.1523944,25.7213799 C94.9368708,25.4986712 94.6843078,25.3246826 94.3946979,25.199409 C94.105088,25.0741353 93.7986449,25.0114994 93.4753594,25.0114994 Z M97.5568181,19.2280612 C97.3682349,19.409012 97.1964921,19.5586422 97.0415845,19.6769562 C96.8866769,19.7952702 96.701464,19.9031431 96.4859404,20.0005782 C96.2704167,20.0980133 96.0010162,20.2024064 95.6777307,20.3137608 C95.3544452,20.4251151 94.9301394,20.564306 94.4048005,20.7313375 C93.9468128,20.8844498 93.5763871,21.0097216 93.2935123,21.1071566 C93.0106375,21.2045917 92.781647,21.2950658 92.6065341,21.3785815 C92.4314211,21.4620973 92.2933533,21.5490916 92.1923266,21.639567 C92.0912999,21.7300424 91.9936422,21.8379153 91.8993506,21.963189 L91.7781192,22.1302197 C92.0879344,22.0049461 92.4011125,21.9075124 92.7176629,21.837916 C93.0342133,21.7683195 93.3945365,21.7335218 93.7986433,21.7335218 C94.6203272,21.7335218 95.3914862,21.8796722 96.1121434,22.1719774 C96.8328006,22.4642826 97.4625243,22.8679361 98.0013334,23.38295 C98.5401426,23.8979639 98.9610809,24.5104037 99.264161,25.2202878 C99.5672411,25.9301719 99.7187789,26.7096407 99.7187789,27.5587177 C99.7187789,28.3799561 99.5672411,29.1385464 99.264161,29.8345111 C98.9610809,30.5304759 98.5334076,31.1289966 97.9811282,31.6300912 C97.4288489,32.1311859 96.7553475,32.5244 95.9606041,32.8097456 C95.1658606,33.0950912 94.2768389,33.2377618 93.2935123,33.2377618 C92.391007,33.2377618 91.5693354,33.1055305 90.8284729,32.8410639 C90.0876103,32.5765972 89.4511516,32.1659842 88.9190776,31.6092124 C88.3870036,31.0524406 87.9761678,30.3390874 87.6865579,29.4691314 C87.396948,28.5991755 87.2521452,27.5587238 87.2521452,26.3477451 C87.2521452,24.3990437 87.6293059,22.7391927 88.3836387,21.3681421 C89.1379715,19.9970915 90.2290436,18.9983971 91.6568877,18.3720288 C91.8320007,18.288513 91.973436,18.2293569 92.0811978,18.1945587 C92.1889596,18.1597604 92.3068224,18.1249627 92.4347895,18.0901645 C92.5627567,18.0553662 92.724397,18.0066494 92.9197153,17.9440126 C93.1150336,17.8813758 93.4012717,17.7874219 93.7784381,17.6621483 C94.3711281,17.4672781 94.8695191,17.2932896 95.2736259,17.1401773 C95.6777327,16.9870651 96.0212184,16.8304753 96.3040932,16.6704034 C96.586968,16.5103315 96.8226934,16.3398227 97.0112766,16.1588719 C97.1998598,15.9779211 97.3817052,15.7621752 97.5568181,15.5116279 L97.5568181,19.2280612 Z M109.659758,27.51696 C109.659758,27.182897 109.60251,26.8662377 109.488013,26.5669729 C109.373516,26.267708 109.208508,26.0067252 108.992985,25.7840164 C108.777461,25.5613077 108.524898,25.3838394 108.235288,25.2516061 C107.945678,25.1193728 107.6325,25.0532571 107.295744,25.0532571 C106.972459,25.0532571 106.669383,25.115893 106.386509,25.2411666 C106.103634,25.3664403 105.857806,25.5404289 105.649017,25.7631376 C105.440229,25.9858463 105.271853,26.2468292 105.143886,26.5460941 C105.015919,26.8453589 104.951936,27.1620181 104.951936,27.4960812 C104.951936,27.8301443 105.012552,28.1433237 105.133784,28.4356289 C105.255016,28.7279341 105.423391,28.9819575 105.638915,29.1977065 C105.854438,29.4134556 106.107001,29.5874442 106.396611,29.7196775 C106.686221,29.8519108 106.992664,29.9180265 107.31595,29.9180265 C107.639235,29.9180265 107.942311,29.8553906 108.225186,29.7301169 C108.50806,29.6048433 108.753888,29.4308547 108.962677,29.208146 C109.171465,28.9854372 109.339841,28.7279341 109.467808,28.4356289 C109.595775,28.1433237 109.659758,27.8371038 109.659758,27.51696 Z M105.052963,38.1860465 L101.395814,38.1860465 L101.395814,22.1302197 L105.052963,22.1302197 L105.052963,23.3203135 C105.834236,22.3042049 106.898368,21.7961583 108.245391,21.7961583 C108.986253,21.7961583 109.676592,21.9457885 110.316428,22.2450533 C110.956264,22.5443182 111.511902,22.9514514 111.98336,23.4664654 C112.454818,23.9814793 112.821877,24.5869596 113.084546,25.2829243 C113.347215,25.9788891 113.478548,26.7235602 113.478548,27.51696 C113.478548,28.3103599 113.347215,29.0480715 113.084546,29.7301169 C112.821877,30.4121624 112.458186,31.0106831 111.993463,31.525697 C111.52874,32.040711 110.979837,32.4443645 110.346736,32.7366697 C109.713635,33.0289749 109.026664,33.1751253 108.285801,33.1751253 C106.992659,33.1751253 105.915057,32.7157954 105.052963,31.7971219 L105.052963,38.1860465 Z M122.732549,25.9301683 C122.611317,25.4012351 122.362121,24.976703 121.984955,24.6565592 C121.607788,24.3364154 121.149808,24.1763459 120.610998,24.1763459 C120.045249,24.1763459 119.5839,24.3294558 119.226939,24.6356803 C118.869978,24.9419048 118.644355,25.3733965 118.550064,25.9301683 L122.732549,25.9301683 Z M118.449038,28.1224464 C118.449038,29.7510039 119.189889,30.5652705 120.671614,30.5652705 C121.466358,30.5652705 122.065774,30.2312124 122.469881,29.5630862 L126.005798,29.5630862 C125.291876,32.0128822 123.507097,33.2377618 120.651409,33.2377618 C119.775844,33.2377618 118.974377,33.1020507 118.246985,32.8306244 C117.519593,32.5591982 116.896604,32.1729435 116.378,31.6718489 C115.859397,31.1707543 115.458663,30.5722336 115.175789,29.8762688 C114.892914,29.180304 114.751478,28.4008352 114.751478,27.5378389 C114.751478,26.647004 114.886179,25.8431767 115.155583,25.126333 C115.424988,24.4094893 115.808884,23.8005293 116.307282,23.2994347 C116.80568,22.79834 117.408464,22.4120854 118.115651,22.1406591 C118.822838,21.8692329 119.620937,21.7335218 120.509972,21.7335218 C121.385537,21.7335218 122.173534,21.8692329 122.873985,22.1406591 C123.574437,22.4120854 124.167118,22.8052996 124.652047,23.3203135 C125.136975,23.8353274 125.507401,24.4651661 125.763335,25.2098484 C126.019269,25.9545307 126.147234,26.7931556 126.147234,27.7257484 L126.147234,28.1224464 L118.449038,28.1224464 Z M135.199183,25.8257741 L135.199183,22.1302197 L138.856331,22.1302197 L138.856331,32.8410639 L135.199183,32.8410639 L135.199183,28.9367211 L131.481418,28.9367211 L131.481418,32.8410639 L127.82427,32.8410639 L127.82427,22.1302197 L131.481418,22.1302197 L131.481418,25.8257741 L135.199183,25.8257741 Z M144.412773,27.4334447 C144.412773,27.7953464 144.476755,28.1259247 144.604722,28.4251895 C144.732689,28.7244544 144.901065,28.9854372 145.109853,29.208146 C145.318642,29.4308547 145.567837,29.6048433 145.857447,29.7301169 C146.147057,29.8553906 146.4535,29.9180265 146.776786,29.9180265 C147.100071,29.9180265 147.406514,29.8553906 147.696124,29.7301169 C147.985734,29.6048433 148.23493,29.4308547 148.443718,29.208146 C148.652507,28.9854372 148.820882,28.7244544 148.948849,28.4251895 C149.076816,28.1259247 149.140799,27.8023059 149.140799,27.4543235 C149.140799,27.1202604 149.076816,26.8036012 148.948849,26.5043364 C148.820882,26.2050715 148.652507,25.9440887 148.443718,25.7213799 C148.23493,25.4986712 147.985734,25.3246826 147.696124,25.199409 C147.406514,25.0741353 147.100071,25.0114994 146.776786,25.0114994 C146.4535,25.0114994 146.147057,25.0741353 145.857447,25.199409 C145.567837,25.3246826 145.318642,25.4986712 145.109853,25.7213799 C144.901065,25.9440887 144.732689,26.2015918 144.604722,26.493897 C144.476755,26.7862022 144.412773,27.0993816 144.412773,27.4334447 Z M140.553571,27.391687 C140.553571,26.5982872 140.708477,25.8570958 141.018292,25.1680907 C141.328107,24.4790856 141.759148,23.8805649 142.311427,23.3725106 C142.863707,22.8644563 143.520371,22.4642826 144.281438,22.1719774 C145.042506,21.8796722 145.87428,21.7335218 146.776786,21.7335218 C147.665821,21.7335218 148.49086,21.8761924 149.251928,22.161538 C150.012996,22.4468835 150.673027,22.8435775 151.232041,23.3516318 C151.791056,23.859686 152.225464,24.4651663 152.535279,25.1680907 C152.845095,25.8710151 153,26.6470042 153,27.4960812 C153,28.3451582 152.841727,29.1211473 152.525177,29.8240717 C152.208626,30.5269961 151.774218,31.1324764 151.221939,31.6405306 C150.669659,32.1485849 150.006261,32.5417991 149.231723,32.820185 C148.457184,33.0985709 147.618675,33.2377618 146.71617,33.2377618 C145.827135,33.2377618 145.005463,33.0985709 144.251131,32.820185 C143.496798,32.5417991 142.846869,32.1451051 142.301325,31.6300912 C141.755781,31.1150773 141.328107,30.4991577 141.018292,29.782314 C140.708477,29.0654703 140.553571,28.2686026 140.553571,27.391687 Z" id="Одобрено"></path>
                                <g id="Group-27" fill-rule="nonzero">
                                    <polygon id="Shape-Copy" points="27.3214286 20.3015988 24.2933036 17.3255814 16.5066964 24.9781977 13.0459821 21.5770349 10.0178571 24.5530523 16.5066964 30.9302326"></polygon>
                                    <path d="M30.2978792,15.7891259 L17.7689621,6.34790964 L5.21501284,15.8079889 L5.21501284,34.7912546 L30.2978792,34.7912546 L30.2978792,15.7891259 Z M34.3579467,13.9775178 L34.5996478,13.9775178 L34.5996478,38.8104152 L33.9756122,38.8104152 L33.9756122,39.0930233 L1.13396131,39.0930233 L1.13396131,38.8104152 L0.913244189,38.8104152 L0.913244189,13.9775178 L1.1799775,13.9775178 L0.932303843,13.6488437 L17.7277523,0.992565488 L17.7689621,1.04725267 L17.8101718,0.992565488 L34.6056203,13.6488437 L34.3579467,13.9775178 Z" id="Combined-Shape"></path>
                                </g>
                            </g>
                        </g>
                    </g>
                </g>
            </g>
        </g>
    </g>
</svg>