<?xml version="1.0" encoding="UTF-8" standalone="no"?>
<svg width="20px" height="20px" viewBox="0 0 20 20" version="1.1" xmlns="http://www.w3.org/2000/svg" xmlns:xlink="http://www.w3.org/1999/xlink">
    <!-- Generator: Sketch 46.2 (44496) - http://www.bohemiancoding.com/sketch -->
    <title>instagram</title>
    <desc>Created with Sketch.</desc>
    <defs></defs>
    <g id="Page-1" stroke="none" stroke-width="1" fill="none" fill-rule="evenodd">
        <g id="Desktop-HD-Copy" transform="translate(-1191.000000, -4573.000000)" fill-rule="nonzero" fill="#5293B7">
            <g id="Group-21" transform="translate(150.000000, 4512.000000)">
                <g id="Group-16" transform="translate(905.000000, 47.000000)">
                    <g id="if_instagram_633196" transform="translate(136.000000, 14.000000)">
                        <path d="M11.9253341,10.2073571 C11.9253341,9.17508288 11.0855943,8.3350208 10.0529979,8.3350208 C9.02072367,8.3350208 8.18066159,9.17508288 8.18066159,10.2073571 C8.18066159,11.2397924 9.02072367,12.0796934 10.0529979,12.0796934 C11.0855943,12.0796934 11.9253341,11.2397924 11.9253341,10.2073571 L11.9253341,10.2073571 Z M14.5634577,10.2073571 C14.5634577,12.6945144 12.5399941,14.7176558 10.0529979,14.7176558 C7.56600168,14.7176558 5.54269912,12.6945144 5.54269912,10.2073571 C5.54269912,9.52245032 5.69688773,8.87331146 5.97110824,8.29119712 L0.455764,8.29119712 L0.455764,14.7904806 C0.455764,17.4087868 2.58588687,19.5389097 5.2041931,19.5389097 L14.707496,19.5389097 C17.3256411,19.5389097 19.455764,17.4087868 19.455764,14.7904806 L19.455764,8.29119712 L14.1350487,8.29119712 C14.4092691,8.87331146 14.5634577,9.52245032 14.5634577,10.2073571 L14.5634577,10.2073571 Z M13.9450921,3.34685017 C13.9450921,3.05651802 14.1822558,2.81935435 14.4727491,2.81935435 L16.1027659,2.81935435 C16.3930981,2.81935435 16.630584,3.05651802 16.630584,3.34685017 L16.630584,4.97702815 C16.630584,5.26736033 16.3930981,5.50468509 16.1027659,5.50468509 L14.4727491,5.50468509 C14.1822558,5.50468509 13.9450921,5.26736033 13.9450921,4.97702815 L13.9450921,3.34685017 L13.9450921,3.34685017 Z M10.0529979,5.69705836 C11.0253367,5.69705836 11.9258175,6.00720785 12.6632483,6.53244805 L19.455764,6.53244805 L19.455764,5.20951944 C19.455764,2.59121321 17.3256411,0.46109034 14.707496,0.46109034 L5.2041931,0.46109034 C2.58588687,0.46109034 0.455764,2.59121321 0.455764,5.20951944 L0.455764,6.53244805 L7.44306969,6.53244805 C8.18033936,6.00720785 9.08082018,5.69705836 10.0529979,5.69705836 L10.0529979,5.69705836 L10.0529979,5.69705836 Z" id="instagram"></path>
                    </g>
                </g>
            </g>
        </g>
    </g>
</svg>