<svg id="Layer_1" data-name="Layer 1" xmlns="http://www.w3.org/2000/svg" viewBox="0 0 100 36"><title>Монтажная область 1</title><path d="M29,5.16H5.23L6.93.46H30.69Zm-.85,2.38H4.39L2.7,12.23H26.46Zm-2.54,7.08H1.77L.08,19.31H23.85Z" fill="#5fa7dd"/><path d="M85.77,31.08H90a3.71,3.71,0,0,0,3.31-1.31,4.36,4.36,0,0,0,.85-2.69,3.72,3.72,0,0,0-1.46-3.23A4.19,4.19,0,0,0,90,23.15H85.77Zm-5.69,4.77V7.54H98.54l-1.62,4.77H85.77v6.23h4.54c3.69,0,5.62.85,6.92,2A8.36,8.36,0,0,1,100,27.23a8.21,8.21,0,0,1-3.31,7c-1.77,1.23-3.62,1.54-7.38,1.54H80.08Zm-16.31,0V12.31H55.62V7.54H78.31l-1.62,4.77H69.46V35.85Zm-22.61-17h3.15a6.1,6.1,0,0,0,1.92-.15,3.07,3.07,0,0,0,2.15-3.15c0-1.92-.85-2.77-2.15-3.15a7.24,7.24,0,0,0-2.15-.23h-3v6.69Zm0,4.92v7.46h3.92a4,4,0,0,0,3-.85,3.88,3.88,0,0,0,1.15-2.92A3.77,3.77,0,0,0,48.46,25c-.85-1-1.85-1.31-3.62-1.31H41.16Zm9.08-3v.08a9,9,0,0,1,2.62,1.54,6.58,6.58,0,0,1,2.38,5.54c0,3.85-2.08,6.69-5.46,7.54a13.61,13.61,0,0,1-4.08.38H35.46V7.54h9.08a15.8,15.8,0,0,1,4.23.38c3.31.85,5.46,3.15,5.46,6.69a6.19,6.19,0,0,1-1.85,4.62A6.21,6.21,0,0,1,50.23,20.77Z" fill="#1d2c91"/></svg>