<?xml version="1.0" encoding="UTF-8" standalone="no"?>
<svg width="10px" height="10px" viewBox="0 0 10 10" version="1.1" xmlns="http://www.w3.org/2000/svg" xmlns:xlink="http://www.w3.org/1999/xlink">
    <!-- Generator: Sketch 46.2 (44496) - http://www.bohemiancoding.com/sketch -->
    <title>Combined Shape</title>
    <desc>Created with Sketch.</desc>
    <defs></defs>
    <g id="Page-1" stroke="none" stroke-width="1" fill="none" fill-rule="evenodd">
        <g id="загрузака-документов" transform="translate(-1072.000000, -437.000000)" fill="#E94C36">
            <path d="M1078.33333,440.666667 L1078.33333,437.333333 C1078.33333,436.596954 1077.73638,436 1077,436 L1077,436 L1077,436 C1076.26362,436 1075.66667,436.596954 1075.66667,437.333333 L1075.66667,437.333333 L1075.66667,440.666667 L1072.33333,440.666667 C1071.59695,440.666667 1071,441.26362 1071,442 C1071,442.73638 1071.59695,443.333333 1072.33333,443.333333 L1072.33333,443.333333 L1075.66667,443.333333 L1075.66667,446.666667 C1075.66667,447.403046 1076.26362,448 1077,448 C1077.73638,448 1078.33333,447.403046 1078.33333,446.666667 L1078.33333,446.666667 L1078.33333,443.333333 L1081.66667,443.333333 C1082.40305,443.333333 1083,442.73638 1083,442 L1083,442 L1083,442 C1083,441.26362 1082.40305,440.666667 1081.66667,440.666667 L1078.33333,440.666667 Z" id="Combined-Shape" transform="translate(1077.000000, 442.000000) rotate(-45.000000) translate(-1077.000000, -442.000000) "></path>
        </g>
    </g>
</svg>