<?xml version="1.0" encoding="UTF-8"?>
<svg width="88px" height="88px" viewBox="0 0 88 88" version="1.1" xmlns="http://www.w3.org/2000/svg" xmlns:xlink="http://www.w3.org/1999/xlink">
    <!-- Generator: Sketch 46.2 (44496) - http://www.bohemiancoding.com/sketch -->
    <title>Group</title>
    <desc>Created with Sketch.</desc>
    <defs></defs>
    <g id="Page-1" stroke="none" stroke-width="1" fill="none" fill-rule="evenodd">
        <g id="Desktop-HD-Copy" transform="translate(-316.000000, -1551.000000)" fill-rule="nonzero" fill="#FFFFFF">
            <g id="Group-26" transform="translate(0.000000, 1278.000000)">
                <g id="Group-13">
                    <g id="Group-6" transform="translate(316.000000, 273.000000)">
                        <g id="noun_1093413_cc">
                            <g id="Group">
                                <path d="M44,88 C68.3222222,88 88,68.3222222 88,44 C88,19.6777778 68.3222222,0 44,0 C19.6777778,0 0,19.6777778 0,44 C0,68.3222222 19.6777778,88 44,88 Z M44,4.88888889 C65.5111111,4.88888889 83.1111111,22.4888889 83.1111111,44 C83.1111111,65.5111111 65.5111111,83.1111111 44,83.1111111 C22.4888889,83.1111111 4.88888889,65.5111111 4.88888889,44 C4.88888889,22.4888889 22.4888889,4.88888889 44,4.88888889 Z" id="Shape"></path>
                                <path d="M31.2142857,62.634375 C31.5785714,62.878125 32.0642857,63 32.4285714,63 C32.7928571,63 33.2785714,62.878125 33.6428571,62.634375 L62.7857143,45.571875 C63.5142857,45.084375 64,44.353125 64,43.5 C64,42.646875 63.5142857,41.79375 62.7857143,41.428125 L33.6428571,24.365625 C32.9142857,23.878125 31.9428571,23.878125 31.2142857,24.365625 C30.4857143,24.853125 30,25.584375 30,26.4375 L30,60.5625 C30,61.415625 30.4857143,62.26875 31.2142857,62.634375 Z M34.8571429,30.703125 L56.7142857,43.5 L34.8571429,56.296875 L34.8571429,30.703125 Z" id="Shape"></path>
                            </g>
                        </g>
                    </g>
                </g>
            </g>
        </g>
    </g>
</svg>