<?xml version="1.0" encoding="UTF-8"?>
<svg width="75px" height="84px" viewBox="0 0 75 84" version="1.1" xmlns="http://www.w3.org/2000/svg" xmlns:xlink="http://www.w3.org/1999/xlink">
    <!-- Generator: Sketch 46.2 (44496) - http://www.bohemiancoding.com/sketch -->
    <title>Group 27</title>
    <desc>Created with Sketch.</desc>
    <defs></defs>
    <g id="Page-1" stroke="none" stroke-width="1" fill="none" fill-rule="evenodd">
        <g id="Artboard" transform="translate(-1495.000000, -944.000000)" fill-rule="nonzero">
            <g id="Group-5-Copy" transform="translate(1284.000000, 764.000000)">
                <g id="Group-4">
                    <g id="Group-3-Copy-2">
                        <g id="Group-10" transform="translate(211.000000, 180.000000)">
                            <g id="Group-9">
                                <g id="Group-18-Copy-18">
                                    <g id="Group-27">
                                        <polygon id="Shape-Copy" fill="#4CAF50" points="56.7307692 43.7412946 50.0320513 37.1642857 32.8067766 54.0765944 25.1510989 46.5600128 18.452381 53.1370217 32.8067766 67.2306122"></polygon>
                                        <path d="M65.0952273,33.6887413 L37.3296646,12.7658891 L9.50866488,33.7305161 L9.50866488,74.3721757 L65.0952273,74.3721757 L65.0952273,33.6887413 Z M74.5656291,28.9429226 L74.5848367,28.9429226 L74.5848367,28.9573966 L74.6054753,28.9729489 L74.5848367,29.0003373 L74.5848367,83.9386678 L65.0952273,83.9386678 L65.0952273,83.8617851 L9.50866488,83.8617851 L9.50866488,83.9386678 L0.0190554407,83.9386678 L0.0190554407,28.9429226 L0.0937000173,28.9429226 L37.2496023,0.943941986 L37.3296646,1.05018826 L37.4097269,0.943941986 L74.5656291,28.9429226 Z" id="Combined-Shape" fill="#4476B0"></path>
                                    </g>
                                </g>
                            </g>
                        </g>
                    </g>
                </g>
            </g>
        </g>
    </g>
</svg>